<svg width="151" height="151" viewBox="0 0 151 151" fill="none" xmlns="http://www.w3.org/2000/svg">
<g filter="url(#filter0_d_644_7640)">
<g clip-path="url(#clip0_644_7640)">
<rect x="13" y="8" width="119.137" height="119.137" rx="16.9097" fill="url(#paint0_linear_644_7640)"/>
<path d="M27.2017 31.2979H25.5804L28.5323 22.9129H30.4074L33.3635 31.2979H31.7422L29.5026 24.6325H29.4371L27.2017 31.2979ZM27.2549 28.0102H31.6767V29.2303H27.2549V28.0102ZM39.2315 25.0091L36.992 31.2979H35.3543L33.1148 25.0091H34.6951L36.1404 29.6807H36.2059L37.6553 25.0091H39.2315ZM42.7782 33.7872C42.2459 33.7872 41.7887 33.7148 41.4066 33.5702C41.0245 33.4282 40.7174 33.2372 40.4854 32.997C40.2534 32.7568 40.0923 32.4907 40.0023 32.1986L41.337 31.8752C41.397 31.998 41.4844 32.1195 41.599 32.2396C41.7137 32.3624 41.8679 32.4634 42.0617 32.5425C42.2582 32.6244 42.5052 32.6654 42.8027 32.6654C43.2231 32.6654 43.5711 32.563 43.8467 32.3583C44.1224 32.1563 44.2603 31.8233 44.2603 31.3593V30.1679H44.1866C44.1101 30.3207 43.9982 30.4777 43.8508 30.6387C43.7062 30.7998 43.5138 30.9349 43.2736 31.044C43.0361 31.1532 42.7372 31.2078 42.3769 31.2078C41.8938 31.2078 41.4557 31.0945 41.0627 30.868C40.6724 30.6387 40.3612 30.2975 40.1292 29.8444C39.8999 29.3886 39.7853 28.8181 39.7853 28.133C39.7853 27.4425 39.8999 26.8597 40.1292 26.3848C40.3612 25.9071 40.6737 25.5455 41.0668 25.2998C41.4598 25.0515 41.8979 24.9273 42.381 24.9273C42.7495 24.9273 43.0525 24.99 43.2899 25.1156C43.5301 25.2384 43.7212 25.3872 43.8631 25.5619C44.0051 25.7338 44.1129 25.8962 44.1866 26.0491H44.2685V25.0091H45.7301V31.4002C45.7301 31.9379 45.6018 32.3829 45.3452 32.735C45.0887 33.0871 44.7379 33.3505 44.293 33.5251C43.8481 33.6998 43.3432 33.7872 42.7782 33.7872ZM42.7904 30.045C43.1043 30.045 43.3718 29.9686 43.5929 29.8158C43.814 29.6629 43.9819 29.4432 44.0965 29.1566C44.2111 28.87 44.2685 28.5261 44.2685 28.1249C44.2685 27.7291 44.2111 27.3824 44.0965 27.0849C43.9846 26.7874 43.8181 26.5568 43.597 26.393C43.3786 26.2265 43.1098 26.1432 42.7904 26.1432C42.4602 26.1432 42.1845 26.2292 41.9634 26.4012C41.7423 26.5731 41.5758 26.8092 41.4639 27.1095C41.352 27.407 41.296 27.7455 41.296 28.1249C41.296 28.5097 41.352 28.8468 41.4639 29.1361C41.5785 29.4227 41.7464 29.6465 41.9675 29.8076C42.1913 29.9659 42.4656 30.045 42.7904 30.045ZM51.4067 31.2979L49.6298 25.0091H51.1406L52.2461 29.4309H52.3034L53.4334 25.0091H54.9278L56.0578 29.4063H56.1192L57.2083 25.0091H58.7231L56.9421 31.2979H55.3986L54.2195 27.0481H54.1335L52.9544 31.2979H51.4067ZM62.3619 31.4207C61.7314 31.4207 61.1868 31.2897 60.7283 31.0277C60.2724 30.7629 59.9217 30.389 59.6761 29.9058C59.4304 29.42 59.3076 28.8482 59.3076 28.1904C59.3076 27.5435 59.4304 26.9757 59.6761 26.4872C59.9244 25.9959 60.2711 25.6137 60.716 25.3408C61.1609 25.0651 61.6836 24.9273 62.2841 24.9273C62.6717 24.9273 63.0374 24.99 63.3813 25.1156C63.728 25.2384 64.0337 25.4295 64.2984 25.6888C64.5659 25.9481 64.7761 26.2784 64.929 26.6796C65.0818 27.0781 65.1582 27.553 65.1582 28.1044V28.5588H60.0036V27.5599H63.7375C63.7348 27.276 63.6734 27.0235 63.5533 26.8024C63.4332 26.5786 63.2653 26.4026 63.0497 26.2743C62.8368 26.146 62.5884 26.0818 62.3046 26.0818C62.0016 26.0818 61.7355 26.1555 61.5062 26.3029C61.2769 26.4476 61.0981 26.6387 60.9698 26.8761C60.8443 27.1109 60.7801 27.3688 60.7774 27.6499V28.522C60.7774 28.8877 60.8443 29.2016 60.978 29.4637C61.1118 29.723 61.2987 29.9222 61.5389 30.0614C61.7791 30.1979 62.0603 30.2661 62.3823 30.2661C62.598 30.2661 62.7931 30.2361 62.9678 30.1761C63.1425 30.1133 63.294 30.0218 63.4223 29.9018C63.5506 29.7817 63.6475 29.6329 63.713 29.4555L65.0968 29.6111C65.0095 29.9768 64.843 30.2962 64.5973 30.5691C64.3544 30.8393 64.0432 31.0495 63.6638 31.1996C63.2844 31.347 62.8504 31.4207 62.3619 31.4207ZM66.4121 31.2979V25.0091H67.8942V31.2979H66.4121ZM67.1572 24.1166C66.9225 24.1166 66.7205 24.0388 66.5513 23.8832C66.3821 23.7249 66.2974 23.5352 66.2974 23.3141C66.2974 23.0903 66.3821 22.9006 66.5513 22.745C66.7205 22.5867 66.9225 22.5076 67.1572 22.5076C67.3947 22.5076 67.5967 22.5867 67.7632 22.745C67.9324 22.9006 68.017 23.0903 68.017 23.3141C68.017 23.5352 67.9324 23.7249 67.7632 23.8832C67.5967 24.0388 67.3947 24.1166 67.1572 24.1166ZM72.1532 33.7872C71.621 33.7872 71.1638 33.7148 70.7817 33.5702C70.3995 33.4282 70.0925 33.2372 69.8604 32.997C69.6284 32.7568 69.4674 32.4907 69.3773 32.1986L70.712 31.8752C70.7721 31.998 70.8594 32.1195 70.9741 32.2396C71.0887 32.3624 71.2429 32.4634 71.4367 32.5425C71.6332 32.6244 71.8803 32.6654 72.1778 32.6654C72.5981 32.6654 72.9461 32.563 73.2218 32.3583C73.4975 32.1563 73.6353 31.8233 73.6353 31.3593V30.1679H73.5616C73.4852 30.3207 73.3733 30.4777 73.2259 30.6387C73.0812 30.7998 72.8888 30.9349 72.6486 31.044C72.4112 31.1532 72.1123 31.2078 71.752 31.2078C71.2689 31.2078 70.8308 31.0945 70.4377 30.868C70.0474 30.6387 69.7363 30.2975 69.5043 29.8444C69.275 29.3886 69.1603 28.8181 69.1603 28.133C69.1603 27.4425 69.275 26.8597 69.5043 26.3848C69.7363 25.9071 70.0488 25.5455 70.4418 25.2998C70.8349 25.0515 71.273 24.9273 71.7561 24.9273C72.1246 24.9273 72.4275 24.99 72.665 25.1156C72.9052 25.2384 73.0963 25.3872 73.2382 25.5619C73.3801 25.7338 73.4879 25.8962 73.5616 26.0491H73.6435V25.0091H75.1052V31.4002C75.1052 31.9379 74.9769 32.3829 74.7203 32.735C74.4637 33.0871 74.113 33.3505 73.6681 33.5251C73.2232 33.6998 72.7182 33.7872 72.1532 33.7872ZM72.1655 30.045C72.4794 30.045 72.7469 29.9686 72.968 29.8158C73.1891 29.6629 73.3569 29.4432 73.4716 29.1566C73.5862 28.87 73.6435 28.5261 73.6435 28.1249C73.6435 27.7291 73.5862 27.3824 73.4716 27.0849C73.3596 26.7874 73.1932 26.5568 72.9721 26.393C72.7537 26.2265 72.4848 26.1432 72.1655 26.1432C71.8352 26.1432 71.5596 26.2292 71.3385 26.4012C71.1174 26.5731 70.9509 26.8092 70.839 27.1095C70.7271 27.407 70.6711 27.7455 70.6711 28.1249C70.6711 28.5097 70.7271 28.8468 70.839 29.1361C70.9536 29.4227 71.1215 29.6465 71.3426 29.8076C71.5664 29.9659 71.8407 30.045 72.1655 30.045ZM78.1062 27.6131V31.2979H76.6241V22.9129H78.0735V26.0777H78.1472C78.2946 25.7229 78.5225 25.4431 78.8309 25.2384C79.1421 25.031 79.5378 24.9273 80.0182 24.9273C80.4549 24.9273 80.8357 25.0187 81.1605 25.2016C81.4853 25.3845 81.7364 25.6519 81.9139 26.004C82.094 26.3561 82.1841 26.786 82.1841 27.2937V31.2979H80.702V27.523C80.702 27.0999 80.5928 26.771 80.3744 26.5363C80.1588 26.2988 79.8558 26.1801 79.4655 26.1801C79.2035 26.1801 78.9687 26.2374 78.7613 26.3521C78.5566 26.464 78.3955 26.6264 78.2782 26.8393C78.1635 27.0522 78.1062 27.3101 78.1062 27.6131ZM86.8351 25.0091V26.1555H83.2199V25.0091H86.8351ZM84.1125 23.5025H85.5946V29.4063C85.5946 29.6056 85.6246 29.7585 85.6846 29.8649C85.7474 29.9686 85.8293 30.0396 85.9303 30.0778C86.0313 30.116 86.1432 30.1351 86.266 30.1351C86.3588 30.1351 86.4434 30.1283 86.5199 30.1147C86.599 30.101 86.6591 30.0887 86.7 30.0778L86.9498 31.2365C86.8706 31.2638 86.7573 31.2938 86.6099 31.3265C86.4653 31.3593 86.2879 31.3784 86.0777 31.3839C85.7065 31.3948 85.3721 31.3388 85.0746 31.216C84.7771 31.0904 84.541 30.8966 84.3663 30.6346C84.1943 30.3726 84.1097 30.045 84.1125 29.652V23.5025Z" fill="white"/>
<path d="M30.6602 51.0699C29.9036 51.0699 29.227 50.9338 28.6306 50.6616C28.0341 50.3854 27.5617 50.0031 27.2134 49.5147C26.8651 49.0263 26.681 48.4638 26.661 47.8273H27.7959C27.8159 48.2757 27.954 48.668 28.2102 49.0043C28.4664 49.3365 28.8067 49.5967 29.231 49.7849C29.6554 49.969 30.1278 50.0611 30.6482 50.0611C31.2166 50.0611 31.7171 49.955 32.1494 49.7429C32.5858 49.5307 32.926 49.2404 33.1702 48.8721C33.4184 48.4998 33.5425 48.0795 33.5425 47.6111C33.5425 47.1147 33.4164 46.6764 33.1642 46.2961C32.912 45.9158 32.5497 45.6195 32.0773 45.4073C31.609 45.1952 31.0485 45.0891 30.396 45.0891H29.6754V44.0803H30.396C30.9284 44.0803 31.3988 43.9842 31.8071 43.792C32.2195 43.5959 32.5437 43.3216 32.7799 42.9694C33.0161 42.6171 33.1342 42.2027 33.1342 41.7264C33.1342 41.274 33.0321 40.8757 32.828 40.5314C32.6238 40.1871 32.3356 39.9169 31.9633 39.7207C31.595 39.5246 31.1646 39.4265 30.6722 39.4265C30.1958 39.4265 29.7595 39.5186 29.3631 39.7027C28.9668 39.8869 28.6466 40.1471 28.4024 40.4833C28.1622 40.8196 28.0341 41.2179 28.0181 41.6783H26.9312C26.9472 41.0378 27.1233 40.4753 27.4596 39.9909C27.7999 39.5026 28.2502 39.1222 28.8107 38.85C29.3752 38.5738 29.9997 38.4357 30.6842 38.4357C31.4088 38.4357 32.0353 38.5838 32.5637 38.88C33.0922 39.1763 33.5005 39.5706 33.7887 40.063C34.081 40.5514 34.2271 41.0898 34.2271 41.6783C34.2271 42.3789 34.0369 42.9794 33.6566 43.4798C33.2763 43.9762 32.7639 44.3205 32.1194 44.5126V44.5907C32.904 44.7468 33.5205 45.0951 33.9689 45.6355C34.4212 46.172 34.6474 46.8305 34.6474 47.6111C34.6474 48.2677 34.4753 48.8581 34.131 49.3826C33.7867 49.903 33.3144 50.3153 32.7139 50.6196C32.1174 50.9198 31.4328 51.0699 30.6602 51.0699ZM41.0006 38.4357C41.513 38.4397 42.0094 38.5438 42.4898 38.7479C42.9742 38.9481 43.4105 39.2724 43.7988 39.7207C44.1872 40.1651 44.4954 40.7576 44.7236 41.4982C44.9518 42.2348 45.0659 43.1415 45.0659 44.2184C45.0659 45.2232 44.9778 46.1439 44.8017 46.9806C44.6255 47.8173 44.3613 48.5419 44.009 49.1544C43.6607 49.7629 43.2204 50.2353 42.6879 50.5715C42.1595 50.9038 41.541 51.0699 40.8324 51.0699C40.1719 51.0699 39.5854 50.9318 39.073 50.6556C38.5646 50.3794 38.1523 49.9971 37.836 49.5087C37.5198 49.0163 37.3236 48.4478 37.2475 47.8033H38.3524C38.4605 48.4598 38.7247 49.0003 39.1451 49.4246C39.5694 49.8489 40.1319 50.0611 40.8324 50.0611C41.8373 50.0611 42.6179 49.5927 43.1743 48.656C43.7308 47.7192 44.009 46.3861 44.009 44.6567H43.931C43.7388 45.017 43.4866 45.3313 43.1743 45.5995C42.8661 45.8677 42.5138 46.0779 42.1175 46.23C41.7212 46.3781 41.3028 46.4522 40.8625 46.4522C40.1779 46.4522 39.5514 46.28 38.9829 45.9358C38.4145 45.5875 37.9601 45.1131 37.6198 44.5126C37.2796 43.9081 37.1094 43.2196 37.1094 42.4469C37.1094 41.7183 37.2696 41.0498 37.5898 40.4413C37.9141 39.8288 38.3664 39.3404 38.9469 38.9761C39.5314 38.6078 40.2159 38.4277 41.0006 38.4357ZM41.0006 39.4445C40.4681 39.4445 39.9898 39.5806 39.5654 39.8528C39.1451 40.1211 38.8108 40.4833 38.5626 40.9397C38.3184 41.3921 38.1963 41.8945 38.1963 42.4469C38.1963 43.0034 38.3184 43.5098 38.5626 43.9662C38.8108 44.4185 39.1451 44.7788 39.5654 45.047C39.9898 45.3113 40.4681 45.4434 41.0006 45.4434C41.4089 45.4434 41.7892 45.3613 42.1415 45.1972C42.4938 45.029 42.798 44.8008 43.0542 44.5126C43.3145 44.2244 43.5106 43.8981 43.6427 43.5338C43.7788 43.1655 43.8329 42.7792 43.8049 42.3749C43.7568 41.8144 43.6067 41.314 43.3545 40.8737C43.1063 40.4293 42.778 40.081 42.3697 39.8288C41.9654 39.5726 41.509 39.4445 41.0006 39.4445ZM47.3117 48.2597V47.3469L52.7941 38.6038H53.4667V40.1351H52.9683L48.5667 47.1728V47.2508H55.7545V48.2597H47.3117ZM53.0524 50.9018V47.9714V47.5511V38.6038H54.1212V50.9018H53.0524ZM58.5078 50.9919C58.2716 50.9919 58.0674 50.9078 57.8953 50.7397C57.7271 50.5675 57.6431 50.3634 57.6431 50.1272C57.6431 49.887 57.7271 49.6828 57.8953 49.5147C58.0674 49.3465 58.2716 49.2625 58.5078 49.2625C58.748 49.2625 58.9521 49.3465 59.1203 49.5147C59.2884 49.6828 59.3725 49.887 59.3725 50.1272C59.3725 50.2833 59.3324 50.4274 59.2524 50.5595C59.1763 50.6916 59.0722 50.7977 58.9401 50.8778C58.812 50.9538 58.6679 50.9919 58.5078 50.9919ZM65.586 51.0699C64.9015 51.0699 64.289 50.9318 63.7485 50.6556C63.2121 50.3754 62.7837 49.9911 62.4635 49.5027C62.1472 49.0143 61.9791 48.4558 61.9591 47.8273H63.046C63.082 48.4798 63.3382 49.0163 63.8146 49.4366C64.291 49.8529 64.8814 50.0611 65.586 50.0611C66.1345 50.0611 66.6229 49.931 67.0512 49.6708C67.4795 49.4066 67.8138 49.0463 68.054 48.5899C68.2982 48.1295 68.4203 47.6111 68.4203 47.0347C68.4163 46.4342 68.2862 45.9057 68.03 45.4494C67.7738 44.989 67.4255 44.6287 66.9851 44.3685C66.5488 44.1083 66.0584 43.9782 65.514 43.9782C65.1016 43.9742 64.6973 44.0422 64.301 44.1823C63.9047 44.3225 63.5744 44.5026 63.3102 44.7228L62.1873 44.5787L62.9259 38.6038H69.0028V39.6126H63.8686L63.3762 43.726H63.4363C63.7085 43.4978 64.0388 43.3116 64.4271 43.1675C64.8194 43.0234 65.2337 42.9513 65.6701 42.9513C66.3947 42.9513 67.0452 43.1255 67.6217 43.4738C68.2021 43.8221 68.6605 44.3024 68.9968 44.9149C69.3371 45.5234 69.5072 46.224 69.5072 47.0166C69.5072 47.7933 69.3371 48.4878 68.9968 49.1003C68.6605 49.7088 68.1961 50.1892 67.6036 50.5415C67.0152 50.8938 66.3426 51.0699 65.586 51.0699ZM76.4166 53.0592C76.0452 53.0592 75.72 53.0107 75.4408 52.9137C75.1617 52.8191 74.9263 52.689 74.7347 52.5234C74.5431 52.3578 74.3941 52.1721 74.2876 51.9663L74.8057 51.6257C74.8837 51.7629 74.9878 51.8977 75.1179 52.0302C75.2504 52.1626 75.4219 52.2726 75.6324 52.3602C75.8453 52.4477 76.1067 52.4914 76.4166 52.4914C76.8992 52.4914 77.2883 52.3708 77.584 52.1295C77.8821 51.8882 78.0311 51.5133 78.0311 51.0047V49.777H77.9743C77.901 49.9426 77.7957 50.1082 77.6585 50.2737C77.5213 50.437 77.3415 50.573 77.1192 50.6818C76.8992 50.7906 76.626 50.845 76.2995 50.845C75.8643 50.845 75.4775 50.7374 75.1392 50.5221C74.8033 50.3069 74.5384 49.9993 74.3444 49.5996C74.1528 49.1974 74.057 48.7184 74.057 48.1625C74.057 47.6113 74.1504 47.1264 74.3373 46.7077C74.5265 46.289 74.7903 45.9625 75.1286 45.7283C75.4668 45.4941 75.8607 45.377 76.3102 45.377C76.6437 45.377 76.9205 45.4362 77.1405 45.5545C77.3605 45.6704 77.5367 45.8147 77.6692 45.9874C77.804 46.16 77.9093 46.328 77.985 46.4912H78.0488V45.4516H78.6663V51.0437C78.6663 51.505 78.5681 51.8847 78.3717 52.1827C78.1754 52.4808 77.9081 52.7008 77.5698 52.8427C77.2315 52.987 76.8471 53.0592 76.4166 53.0592ZM76.374 50.2666C76.7241 50.2666 77.0234 50.1827 77.2718 50.0147C77.5201 49.8444 77.7106 49.6007 77.843 49.2838C77.9755 48.9668 78.0417 48.5895 78.0417 48.1518C78.0417 47.726 77.9767 47.3487 77.8466 47.0199C77.7165 46.6887 77.5272 46.4285 77.2789 46.2393C77.0328 46.0477 76.7312 45.9519 76.374 45.9519C76.0097 45.9519 75.7022 46.05 75.4515 46.2464C75.2007 46.4427 75.0115 46.7077 74.8837 47.0412C74.756 47.3724 74.6921 47.7426 74.6921 48.1518C74.6921 48.5682 74.7572 48.936 74.8873 49.2554C75.0174 49.5724 75.2078 49.8207 75.4586 50.0005C75.7093 50.1779 76.0145 50.2666 76.374 50.2666ZM80.3384 50.9018V45.4516H80.9523V46.289H80.9984C81.1072 46.0146 81.2965 45.7934 81.5661 45.6254C81.8382 45.4551 82.1457 45.3699 82.4887 45.3699C82.5407 45.3699 82.5987 45.3711 82.6626 45.3735C82.7264 45.3759 82.7797 45.3782 82.8222 45.3806V46.0228C82.7938 46.0181 82.7442 46.011 82.6732 46.0015C82.6022 45.9921 82.5254 45.9874 82.4426 45.9874C82.1587 45.9874 81.9056 46.0477 81.6832 46.1683C81.4632 46.2866 81.2894 46.451 81.1616 46.6615C81.0339 46.8721 80.97 47.1122 80.97 47.3819V50.9018H80.3384ZM85.4223 51.026C85.0935 51.026 84.793 50.9621 84.521 50.8344C84.249 50.7043 84.0325 50.5174 83.8717 50.2737C83.7108 50.0277 83.6304 49.7297 83.6304 49.3796C83.6304 49.1099 83.6812 48.8828 83.7829 48.6983C83.8847 48.5138 84.029 48.3624 84.2158 48.2441C84.4027 48.1258 84.6239 48.0324 84.8794 47.9638C85.1349 47.8952 85.4164 47.842 85.7239 47.8041C86.029 47.7663 86.2869 47.7331 86.4974 47.7047C86.7103 47.6764 86.8724 47.6314 86.9835 47.5699C87.0947 47.5084 87.1503 47.4091 87.1503 47.2719V47.1441C87.1503 46.7727 87.0391 46.4806 86.8168 46.2677C86.5968 46.0524 86.2798 45.9448 85.8658 45.9448C85.4731 45.9448 85.1526 46.0311 84.9042 46.2038C84.6582 46.3765 84.4855 46.5799 84.3862 46.8141L83.7865 46.5977C83.9095 46.2996 84.0798 46.0619 84.2975 45.8845C84.5151 45.7047 84.7587 45.5758 85.0284 45.4977C85.2981 45.4173 85.5713 45.377 85.8481 45.377C86.0562 45.377 86.2727 45.4042 86.4974 45.4587C86.7245 45.5131 86.935 45.6077 87.129 45.7425C87.323 45.875 87.4803 46.0607 87.6009 46.2996C87.7216 46.5362 87.7819 46.8366 87.7819 47.2009V50.9018H87.1503V50.0396H87.1113C87.0356 50.2004 86.9232 50.3565 86.7742 50.5079C86.6252 50.6593 86.4383 50.7835 86.2136 50.8805C85.9888 50.9775 85.7251 51.026 85.4223 51.026ZM85.5074 50.4476C85.8433 50.4476 86.1343 50.3731 86.3803 50.2241C86.6263 50.075 86.8156 49.8775 86.9481 49.6315C87.0829 49.3831 87.1503 49.1099 87.1503 48.8118V48.0241C87.103 48.069 87.0238 48.1093 86.9126 48.1447C86.8038 48.1802 86.6772 48.2122 86.5329 48.2405C86.391 48.2666 86.249 48.289 86.1071 48.308C85.9652 48.3269 85.8374 48.3434 85.7239 48.3576C85.4164 48.3955 85.1538 48.4546 84.9362 48.5351C84.7185 48.6155 84.5517 48.7267 84.4358 48.8686C84.3199 49.0082 84.262 49.188 84.262 49.4079C84.262 49.7391 84.3802 49.9958 84.6168 50.1779C84.8534 50.3577 85.1502 50.4476 85.5074 50.4476ZM89.462 50.9018V45.4516H90.0759V46.289H90.1327C90.2415 46.0075 90.4225 45.7863 90.6756 45.6254C90.9311 45.4622 91.2374 45.3806 91.5946 45.3806C91.9707 45.3806 92.2794 45.4693 92.5207 45.6467C92.7644 45.8218 92.9465 46.0631 93.0672 46.3706H93.1133C93.2363 46.0678 93.4362 45.8277 93.7129 45.6503C93.9921 45.4705 94.3304 45.3806 94.7278 45.3806C95.234 45.3806 95.6338 45.5403 95.9271 45.8596C96.2204 46.1766 96.3671 46.6402 96.3671 47.2506V50.9018H95.7355V47.2506C95.7355 46.82 95.6255 46.4971 95.4055 46.2819C95.1855 46.0666 94.8957 45.959 94.5362 45.959C94.1198 45.959 93.7993 46.0867 93.5746 46.3422C93.3498 46.5977 93.2375 46.9218 93.2375 47.3144V50.9018H92.5917V47.1938C92.5917 46.8248 92.4888 46.5267 92.283 46.2996C92.0772 46.0725 91.7874 45.959 91.4136 45.959C91.1629 45.959 90.937 46.0205 90.7359 46.1435C90.5372 46.2665 90.3799 46.438 90.264 46.658C90.1504 46.8756 90.0936 47.1264 90.0936 47.4102V50.9018H89.462Z" fill="white"/>
<path d="M30.4861 91.0383C29.6214 91.0383 28.8828 90.7901 28.2703 90.2937C27.6618 89.7933 27.1934 89.0707 26.8651 88.1259C26.5409 87.1811 26.3787 86.0462 26.3787 84.7211C26.3787 83.4001 26.5409 82.2692 26.8651 81.3284C27.1934 80.3836 27.6638 79.661 28.2763 79.1606C28.8928 78.6562 29.6294 78.404 30.4861 78.404C31.3428 78.404 32.0773 78.6562 32.6898 79.1606C33.3063 79.661 33.7767 80.3836 34.101 81.3284C34.4293 82.2692 34.5934 83.4001 34.5934 84.7211C34.5934 86.0462 34.4293 87.1811 34.101 88.1259C33.7767 89.0707 33.3083 89.7933 32.6958 90.2937C32.0874 90.7901 31.3508 91.0383 30.4861 91.0383ZM30.4861 90.0295C31.4348 90.0295 32.1754 89.5671 32.7079 88.6423C33.2403 87.7136 33.5065 86.4065 33.5065 84.7211C33.5065 83.6002 33.3844 82.6435 33.1402 81.8508C32.9 81.0542 32.5537 80.4457 32.1014 80.0253C31.653 79.605 31.1146 79.3948 30.4861 79.3948C29.5453 79.3948 28.8067 79.8632 28.2703 80.8C27.7338 81.7327 27.4656 83.0398 27.4656 84.7211C27.4656 85.8421 27.5857 86.7988 27.8259 87.5915C28.0701 88.3841 28.4164 88.9886 28.8647 89.4049C29.3171 89.8213 29.8575 90.0295 30.4861 90.0295ZM37.4202 90.9602C37.184 90.9602 36.9798 90.8761 36.8077 90.708C36.6395 90.5359 36.5555 90.3317 36.5555 90.0955C36.5555 89.8553 36.6395 89.6511 36.8077 89.483C36.9798 89.3149 37.184 89.2308 37.4202 89.2308C37.6604 89.2308 37.8645 89.3149 38.0327 89.483C38.2008 89.6511 38.2849 89.8553 38.2849 90.0955C38.2849 90.2516 38.2448 90.3957 38.1648 90.5279C38.0887 90.66 37.9846 90.766 37.8525 90.8461C37.7244 90.9222 37.5803 90.9602 37.4202 90.9602ZM43.425 78.5722V90.8701H42.3021V79.7491H42.2301L39.3477 81.6647V80.4997L42.2541 78.5722H43.425ZM51.1533 91.0383C50.3967 91.0383 49.7201 90.9022 49.1237 90.6299C48.5272 90.3537 48.0548 89.9714 47.7065 89.483C47.3582 88.9946 47.1741 88.4322 47.1541 87.7956H48.289C48.309 88.244 48.4471 88.6363 48.7033 88.9726C48.9595 89.3049 49.2998 89.5651 49.7242 89.7532C50.1485 89.9374 50.6209 90.0295 51.1413 90.0295C51.7098 90.0295 52.2102 89.9234 52.6425 89.7112C53.0789 89.499 53.4191 89.2088 53.6633 88.8405C53.9115 88.4682 54.0356 88.0478 54.0356 87.5795C54.0356 87.0831 53.9095 86.6447 53.6573 86.2644C53.4051 85.8841 53.0428 85.5879 52.5705 85.3757C52.1021 85.1635 51.5416 85.0574 50.8891 85.0574H50.1685V84.0486H50.8891C51.4215 84.0486 51.8919 83.9525 52.3002 83.7604C52.7126 83.5642 53.0368 83.29 53.273 82.9377C53.5092 82.5854 53.6273 82.1711 53.6273 81.6947C53.6273 81.2423 53.5252 80.844 53.3211 80.4997C53.1169 80.1554 52.8287 79.8852 52.4564 79.6891C52.0881 79.4929 51.6577 79.3948 51.1653 79.3948C50.6889 79.3948 50.2526 79.4869 49.8563 79.6711C49.4599 79.8552 49.1397 80.1154 48.8955 80.4517C48.6553 80.788 48.5272 81.1863 48.5112 81.6467H47.4243C47.4403 81.0061 47.6164 80.4437 47.9527 79.9593C48.293 79.4709 48.7434 79.0906 49.3038 78.8184C49.8683 78.5421 50.4928 78.404 51.1773 78.404C51.9019 78.404 52.5284 78.5521 53.0569 78.8484C53.5853 79.1446 53.9936 79.5389 54.2818 80.0313C54.5741 80.5197 54.7202 81.0582 54.7202 81.6467C54.7202 82.3472 54.53 82.9477 54.1497 83.4481C53.7694 83.9445 53.257 84.2888 52.6125 84.481V84.559C53.3971 84.7151 54.0136 85.0634 54.462 85.6039C54.9144 86.1403 55.1405 86.7988 55.1405 87.5795C55.1405 88.236 54.9684 88.8265 54.6241 89.3509C54.2798 89.8713 53.8075 90.2837 53.207 90.5879C52.6105 90.8881 51.9259 91.0383 51.1533 91.0383ZM60.9107 89.5218V89.1918C60.9107 88.9197 60.9651 88.6749 61.0739 88.4573C61.1827 88.2373 61.3377 88.0634 61.5387 87.9357C61.7398 87.8079 61.9787 87.7441 62.2555 87.7441C62.5346 87.7441 62.7735 87.8079 62.9723 87.9357C63.171 88.0634 63.3235 88.2373 63.43 88.4573C63.5364 88.6749 63.5897 88.9197 63.5897 89.1918V89.5218C63.5897 89.7938 63.5353 90.0386 63.4264 90.2563C63.32 90.4739 63.1674 90.6478 62.9687 90.7779C62.77 90.9056 62.5323 90.9695 62.2555 90.9695C61.974 90.9695 61.7327 90.9056 61.5316 90.7779C61.3329 90.6478 61.1792 90.4739 61.0703 90.2563C60.9639 90.0386 60.9107 89.7938 60.9107 89.5218ZM61.4678 89.1918V89.5218C61.4678 89.7891 61.5328 90.0174 61.6629 90.2066C61.7954 90.3935 61.9929 90.4869 62.2555 90.4869C62.511 90.4869 62.7038 90.3935 62.8339 90.2066C62.964 90.0174 63.029 89.7891 63.029 89.5218V89.1918C63.029 88.9245 62.9652 88.6974 62.8374 88.5105C62.7097 88.3212 62.5157 88.2266 62.2555 88.2266C61.9976 88.2266 61.8013 88.3212 61.6665 88.5105C61.534 88.6974 61.4678 88.9245 61.4678 89.1918ZM57.2488 85.2815V84.9515C57.2488 84.6795 57.3032 84.4346 57.412 84.217C57.5208 83.9994 57.6758 83.8267 57.8769 83.699C58.0779 83.5689 58.3168 83.5038 58.5936 83.5038C58.8728 83.5038 59.1117 83.5689 59.3104 83.699C59.5091 83.8267 59.6617 83.9994 59.7681 84.217C59.8746 84.4346 59.9278 84.6795 59.9278 84.9515V85.2815C59.9278 85.5536 59.8734 85.7996 59.7646 86.0196C59.6581 86.2372 59.5055 86.4099 59.3068 86.5376C59.1081 86.6654 58.8704 86.7292 58.5936 86.7292C58.3121 86.7292 58.0708 86.6654 57.8698 86.5376C57.671 86.4099 57.5173 86.2372 57.4085 86.0196C57.302 85.7996 57.2488 85.5536 57.2488 85.2815ZM57.8059 84.9515V85.2815C57.8059 85.5488 57.8709 85.7771 58.001 85.9663C58.1335 86.1532 58.331 86.2467 58.5936 86.2467C58.8491 86.2467 59.0419 86.1532 59.172 85.9663C59.3021 85.7771 59.3672 85.5488 59.3672 85.2815V84.9515C59.3672 84.6842 59.3033 84.4571 59.1755 84.2702C59.0478 84.081 58.8538 83.9864 58.5936 83.9864C58.3358 83.9864 58.1394 84.081 58.0046 84.2702C57.8721 84.4571 57.8059 84.6842 57.8059 84.9515ZM57.5752 90.8701L62.5677 83.6032H63.1958L58.2033 90.8701H57.5752Z" fill="white"/>
<path d="M27.2017 71.2664H25.5804L28.5323 62.8814H30.4074L33.3635 71.2664H31.7422L29.5026 64.601H29.4371L27.2017 71.2664ZM27.2549 67.9787H31.6767V69.1988H27.2549V67.9787ZM39.2315 64.9776L36.992 71.2664H35.3543L33.1148 64.9776H34.6951L36.1404 69.6491H36.2059L37.6553 64.9776H39.2315ZM42.7782 73.7556C42.2459 73.7556 41.7887 73.6833 41.4066 73.5387C41.0245 73.3967 40.7174 73.2057 40.4854 72.9655C40.2534 72.7253 40.0923 72.4591 40.0023 72.1671L41.337 71.8436C41.397 71.9665 41.4844 72.0879 41.599 72.208C41.7137 72.3309 41.8679 72.4318 42.0617 72.511C42.2582 72.5929 42.5052 72.6338 42.8027 72.6338C43.2231 72.6338 43.5711 72.5315 43.8467 72.3268C44.1224 72.1248 44.2603 71.7918 44.2603 71.3278V70.1364H44.1866C44.1101 70.2892 43.9982 70.4461 43.8508 70.6072C43.7062 70.7682 43.5138 70.9033 43.2736 71.0125C43.0361 71.1217 42.7372 71.1763 42.3769 71.1763C41.8938 71.1763 41.4557 71.063 41.0627 70.8365C40.6724 70.6072 40.3612 70.266 40.1292 69.8129C39.8999 69.3571 39.7853 68.7866 39.7853 68.1015C39.7853 67.411 39.8999 66.8282 40.1292 66.3533C40.3612 65.8756 40.6737 65.514 41.0668 65.2683C41.4598 65.0199 41.8979 64.8957 42.381 64.8957C42.7495 64.8957 43.0525 64.9585 43.2899 65.0841C43.5301 65.2069 43.7212 65.3557 43.8631 65.5303C44.0051 65.7023 44.1129 65.8647 44.1866 66.0176H44.2685V64.9776H45.7301V71.3687C45.7301 71.9064 45.6018 72.3513 45.3452 72.7034C45.0887 73.0555 44.7379 73.3189 44.293 73.4936C43.8481 73.6683 43.3432 73.7556 42.7782 73.7556ZM42.7904 70.0135C43.1043 70.0135 43.3718 69.9371 43.5929 69.7842C43.814 69.6314 43.9819 69.4117 44.0965 69.1251C44.2111 68.8385 44.2685 68.4946 44.2685 68.0933C44.2685 67.6976 44.2111 67.3509 44.0965 67.0534C43.9846 66.7559 43.8181 66.5252 43.597 66.3615C43.3786 66.195 43.1098 66.1117 42.7904 66.1117C42.4602 66.1117 42.1845 66.1977 41.9634 66.3697C41.7423 66.5416 41.5758 66.7777 41.4639 67.078C41.352 67.3755 41.296 67.7139 41.296 68.0933C41.296 68.4782 41.352 68.8153 41.4639 69.1046C41.5785 69.3912 41.7464 69.615 41.9675 69.7761C42.1913 69.9344 42.4656 70.0135 42.7904 70.0135ZM50.1089 71.2664V64.9776H51.5255V66.0462H51.5992C51.7302 65.6859 51.9472 65.4048 52.2502 65.2028C52.5531 64.9981 52.9148 64.8957 53.3351 64.8957C53.7609 64.8957 54.1198 64.9995 54.4119 65.2069C54.7067 65.4116 54.9141 65.6914 55.0342 66.0462H55.0997C55.2389 65.6968 55.4737 65.4184 55.8039 65.211C56.1369 65.0008 56.5313 64.8957 56.9872 64.8957C57.5658 64.8957 58.038 65.0786 58.4038 65.4444C58.7695 65.8101 58.9524 66.3437 58.9524 67.0452V71.2664H57.4662V67.2745C57.4662 66.8842 57.3625 66.5989 57.155 66.4188C56.9476 66.2359 56.6938 66.1445 56.3935 66.1445C56.0359 66.1445 55.7562 66.2564 55.5542 66.4802C55.3549 66.7013 55.2553 66.9893 55.2553 67.3441V71.2664H53.8019V67.2131C53.8019 66.8883 53.7036 66.629 53.5071 66.4352C53.3133 66.2414 53.0594 66.1445 52.7456 66.1445C52.5327 66.1445 52.3389 66.1991 52.1642 66.3082C51.9895 66.4147 51.8503 66.5662 51.7466 66.7627C51.6428 66.9565 51.591 67.183 51.591 67.4423V71.2664H50.1089ZM63.1991 71.3892C62.585 71.3892 62.0528 71.2541 61.6024 70.9839C61.152 70.7136 60.8027 70.3356 60.5543 69.8498C60.3086 69.3639 60.1858 68.7962 60.1858 68.1466C60.1858 67.4969 60.3086 66.9278 60.5543 66.4393C60.8027 65.9507 61.152 65.5713 61.6024 65.3011C62.0528 65.0308 62.585 64.8957 63.1991 64.8957C63.8133 64.8957 64.3455 65.0308 64.7959 65.3011C65.2463 65.5713 65.5943 65.9507 65.8399 66.4393C66.0883 66.9278 66.2125 67.4969 66.2125 68.1466C66.2125 68.7962 66.0883 69.3639 65.8399 69.8498C65.5943 70.3356 65.2463 70.7136 64.7959 70.9839C64.3455 71.2541 63.8133 71.3892 63.1991 71.3892ZM63.2073 70.2019C63.5403 70.2019 63.8187 70.1104 64.0426 69.9275C64.2664 69.7419 64.4329 69.4936 64.542 69.1824C64.654 68.8712 64.7099 68.5246 64.7099 68.1425C64.7099 67.7576 64.654 67.4096 64.542 67.0984C64.4329 66.7845 64.2664 66.5348 64.0426 66.3492C63.8187 66.1636 63.5403 66.0708 63.2073 66.0708C62.8661 66.0708 62.5823 66.1636 62.3557 66.3492C62.1319 66.5348 61.964 66.7845 61.8521 67.0984C61.743 67.4096 61.6884 67.7576 61.6884 68.1425C61.6884 68.5246 61.743 68.8712 61.8521 69.1824C61.964 69.4936 62.1319 69.7419 62.3557 69.9275C62.5823 70.1104 62.8661 70.2019 63.2073 70.2019ZM67.4704 71.2664V64.9776H68.9075V66.0257H68.973C69.0877 65.6627 69.2842 65.383 69.5626 65.1864C69.8437 64.9872 70.1644 64.8876 70.5247 64.8876C70.6066 64.8876 70.6981 64.8916 70.799 64.8998C70.9028 64.9053 70.9887 64.9148 71.057 64.9285V66.2919C70.9942 66.27 70.8946 66.2509 70.7581 66.2346C70.6244 66.2154 70.4947 66.2059 70.3692 66.2059C70.0989 66.2059 69.856 66.2646 69.6404 66.3819C69.4275 66.4966 69.2596 66.6563 69.1368 66.861C69.014 67.0657 68.9526 67.3018 68.9526 67.5693V71.2664H67.4704ZM75.5197 64.9776V66.124H71.9045V64.9776H75.5197ZM72.797 63.4709H74.2791V69.3748C74.2791 69.5741 74.3092 69.7269 74.3692 69.8334C74.432 69.9371 74.5139 70.0081 74.6149 70.0463C74.7159 70.0845 74.8278 70.1036 74.9506 70.1036C75.0434 70.1036 75.128 70.0968 75.2044 70.0831C75.2836 70.0695 75.3436 70.0572 75.3846 70.0463L75.6343 71.2049C75.5552 71.2322 75.4419 71.2623 75.2945 71.295C75.1498 71.3278 74.9724 71.3469 74.7623 71.3523C74.3911 71.3633 74.0567 71.3073 73.7592 71.1845C73.4617 71.0589 73.2256 70.8651 73.0509 70.6031C72.8789 70.3411 72.7943 70.0135 72.797 69.6205V63.4709ZM78.5689 71.3933C78.1704 71.3933 77.8114 71.3223 77.4921 71.1804C77.1755 71.0357 76.9244 70.8228 76.7388 70.5417C76.5559 70.2605 76.4644 69.9139 76.4644 69.5017C76.4644 69.1469 76.5299 68.8535 76.661 68.6215C76.792 68.3895 76.9708 68.2039 77.1973 68.0647C77.4239 67.9255 77.6791 67.8204 77.9629 67.7494C78.2495 67.6757 78.5457 67.6225 78.8514 67.5897C79.2199 67.5515 79.5187 67.5174 79.748 67.4874C79.9773 67.4546 80.1438 67.4055 80.2475 67.34C80.354 67.2718 80.4072 67.1667 80.4072 67.0247V67.0002C80.4072 66.6917 80.3157 66.4529 80.1329 66.2837C79.95 66.1145 79.6866 66.0298 79.3427 66.0298C78.9797 66.0298 78.6917 66.109 78.4788 66.2673C78.2686 66.4256 78.1267 66.6126 78.053 66.8282L76.6691 66.6317C76.7783 66.2496 76.9585 65.9302 77.2096 65.6736C77.4607 65.4143 77.7678 65.2205 78.1308 65.0923C78.4938 64.9612 78.895 64.8957 79.3345 64.8957C79.6375 64.8957 79.9391 64.9312 80.2393 65.0022C80.5396 65.0732 80.8139 65.1905 81.0623 65.3543C81.3106 65.5153 81.5099 65.7351 81.66 66.0135C81.8129 66.2919 81.8893 66.6399 81.8893 67.0575V71.2664H80.4645V70.4025H80.4154C80.3253 70.5772 80.1984 70.7409 80.0346 70.8938C79.8736 71.0439 79.6702 71.1654 79.4246 71.2582C79.1816 71.3482 78.8964 71.3933 78.5689 71.3933ZM78.9537 70.3042C79.2512 70.3042 79.5092 70.2455 79.7275 70.1282C79.9459 70.0081 80.1138 69.8498 80.2311 69.6532C80.3512 69.4567 80.4113 69.2424 80.4113 69.0104V68.2694C80.3649 68.3076 80.2857 68.3431 80.1738 68.3758C80.0646 68.4086 79.9418 68.4372 79.8053 68.4618C79.6689 68.4864 79.5337 68.5082 79.4 68.5273C79.2663 68.5464 79.1503 68.5628 79.052 68.5764C78.8309 68.6065 78.633 68.6556 78.4583 68.7238C78.2836 68.7921 78.1458 68.8876 78.0448 69.0104C77.9438 69.1305 77.8933 69.2861 77.8933 69.4772C77.8933 69.7501 77.9929 69.9562 78.1922 70.0954C78.3915 70.2346 78.6453 70.3042 78.9537 70.3042ZM84.8617 62.8814V71.2664H83.3796V62.8814H84.8617ZM86.3858 71.2664V64.9776H87.8679V71.2664H86.3858ZM87.1309 64.0851C86.8962 64.0851 86.6942 64.0073 86.525 63.8517C86.3557 63.6934 86.2711 63.5037 86.2711 63.2826C86.2711 63.0588 86.3557 62.8691 86.525 62.7135C86.6942 62.5552 86.8962 62.4761 87.1309 62.4761C87.3684 62.4761 87.5704 62.5552 87.7369 62.7135C87.9061 62.8691 87.9907 63.0588 87.9907 63.2826C87.9907 63.5037 87.9061 63.6934 87.7369 63.8517C87.5704 64.0073 87.3684 64.0851 87.1309 64.0851ZM92.5322 64.9776V66.124H88.917V64.9776H92.5322ZM89.8096 63.4709H91.2917V69.3748C91.2917 69.5741 91.3217 69.7269 91.3818 69.8334C91.4445 69.9371 91.5264 70.0081 91.6274 70.0463C91.7284 70.0845 91.8403 70.1036 91.9631 70.1036C92.0559 70.1036 92.1405 70.0968 92.217 70.0831C92.2961 70.0695 92.3562 70.0572 92.3971 70.0463L92.6469 71.2049C92.5677 71.2322 92.4544 71.2623 92.307 71.295C92.1624 71.3278 91.985 71.3469 91.7748 71.3523C91.4036 71.3633 91.0692 71.3073 90.7717 71.1845C90.4742 71.0589 90.2381 70.8651 90.0634 70.6031C89.8915 70.3411 89.8068 70.0135 89.8096 69.6205V63.4709ZM94.693 73.6246C94.491 73.6246 94.304 73.6083 94.132 73.5755C93.9628 73.5455 93.8277 73.51 93.7267 73.4691L94.0706 72.3145C94.2863 72.3773 94.4787 72.4073 94.6479 72.4046C94.8172 72.4018 94.9659 72.3486 95.0942 72.2449C95.2252 72.1439 95.3358 71.9747 95.4258 71.7372L95.5527 71.3974L93.2723 64.9776H94.8444L96.2938 69.7269H96.3593L97.8128 64.9776H99.389L96.8711 72.0279C96.7537 72.3609 96.5981 72.6461 96.4043 72.8836C96.2106 73.1238 95.9731 73.3066 95.692 73.4322C95.4135 73.5605 95.0805 73.6246 94.693 73.6246Z" fill="white"/>
<path d="M25.7804 106.823V106.042H31.2307V106.823H28.9455V113.309H28.0655V106.823H25.7804ZM33.899 113.423C33.407 113.423 32.9753 113.306 32.6039 113.071C32.2348 112.837 31.9462 112.51 31.7381 112.089C31.5323 111.668 31.4294 111.175 31.4294 110.612C31.4294 110.045 31.5323 109.549 31.7381 109.126C31.9462 108.702 32.2348 108.373 32.6039 108.139C32.9753 107.905 33.407 107.788 33.899 107.788C34.391 107.788 34.8216 107.905 35.1906 108.139C35.562 108.373 35.8506 108.702 36.0564 109.126C36.2646 109.549 36.3686 110.045 36.3686 110.612C36.3686 111.175 36.2646 111.668 36.0564 112.089C35.8506 112.51 35.562 112.837 35.1906 113.071C34.8216 113.306 34.391 113.423 33.899 113.423ZM33.899 112.671C34.2728 112.671 34.5803 112.575 34.8216 112.383C35.0629 112.191 35.2415 111.94 35.3574 111.627C35.4733 111.315 35.5312 110.977 35.5312 110.612C35.5312 110.248 35.4733 109.909 35.3574 109.594C35.2415 109.279 35.0629 109.025 34.8216 108.831C34.5803 108.637 34.2728 108.54 33.899 108.54C33.5252 108.54 33.2177 108.637 32.9764 108.831C32.7352 109.025 32.5566 109.279 32.4406 109.594C32.3247 109.909 32.2668 110.248 32.2668 110.612C32.2668 110.977 32.3247 111.315 32.4406 111.627C32.5566 111.94 32.7352 112.191 32.9764 112.383C33.2177 112.575 33.5252 112.671 33.899 112.671ZM40.0172 107.859V108.569H37.1927V107.859H40.0172ZM38.016 106.553H38.8534V111.748C38.8534 111.984 38.8877 112.162 38.9563 112.28C39.0272 112.396 39.1171 112.474 39.2259 112.514C39.3371 112.552 39.4542 112.571 39.5772 112.571C39.6695 112.571 39.7452 112.566 39.8043 112.557C39.8635 112.545 39.9108 112.536 39.9462 112.529L40.1166 113.281C40.0598 113.302 39.9805 113.323 39.8788 113.345C39.7771 113.368 39.6482 113.38 39.4921 113.38C39.2555 113.38 39.0237 113.329 38.7966 113.228C38.5719 113.126 38.385 112.971 38.236 112.763C38.0893 112.555 38.016 112.292 38.016 111.975V106.553ZM42.8807 113.437C42.5353 113.437 42.2219 113.372 41.9404 113.242C41.6589 113.109 41.4354 112.919 41.2698 112.671C41.1042 112.42 41.0214 112.117 41.0214 111.762C41.0214 111.45 41.0829 111.197 41.2059 111.003C41.3289 110.806 41.4933 110.653 41.6991 110.542C41.9049 110.43 42.132 110.348 42.3804 110.293C42.6312 110.236 42.8831 110.191 43.1362 110.158C43.4674 110.116 43.7359 110.084 43.9417 110.062C44.1498 110.039 44.3012 110 44.3959 109.945C44.4928 109.891 44.5413 109.796 44.5413 109.662V109.633C44.5413 109.283 44.4455 109.011 44.2539 108.817C44.0647 108.623 43.7773 108.526 43.3917 108.526C42.9919 108.526 42.6785 108.614 42.4514 108.789C42.2243 108.964 42.0646 109.151 41.9723 109.349L41.1775 109.065C41.3195 108.734 41.5087 108.476 41.7453 108.292C41.9842 108.105 42.2444 107.975 42.5259 107.902C42.8097 107.826 43.0889 107.788 43.3633 107.788C43.5383 107.788 43.7394 107.809 43.9665 107.852C44.196 107.892 44.4171 107.976 44.63 108.104C44.8453 108.232 45.0239 108.424 45.1658 108.682C45.3078 108.94 45.3787 109.285 45.3787 109.718V113.309H44.5413V112.571H44.4988C44.442 112.689 44.3474 112.816 44.2149 112.951C44.0824 113.086 43.9062 113.2 43.6862 113.295C43.4662 113.39 43.1977 113.437 42.8807 113.437ZM43.0085 112.685C43.3396 112.685 43.6188 112.62 43.8459 112.49C44.0753 112.359 44.248 112.191 44.3639 111.986C44.4822 111.78 44.5413 111.563 44.5413 111.336V110.57C44.5059 110.612 44.4278 110.652 44.3071 110.687C44.1889 110.72 44.0517 110.75 43.8955 110.776C43.7418 110.799 43.5916 110.821 43.4449 110.84C43.3006 110.856 43.1835 110.87 43.0936 110.882C42.876 110.911 42.6725 110.957 42.4833 111.021C42.2964 111.082 42.145 111.175 42.0291 111.301C41.9156 111.424 41.8588 111.592 41.8588 111.805C41.8588 112.096 41.9664 112.316 42.1817 112.465C42.3993 112.611 42.6749 112.685 43.0085 112.685ZM47.7446 106.042V113.309H46.9072V106.042H47.7446ZM54.3028 113.423C53.8108 113.423 53.379 113.306 53.0077 113.071C52.6386 112.837 52.35 112.51 52.1419 112.089C51.9361 111.668 51.8332 111.175 51.8332 110.612C51.8332 110.045 51.9361 109.549 52.1419 109.126C52.35 108.702 52.6386 108.373 53.0077 108.139C53.379 107.905 53.8108 107.788 54.3028 107.788C54.7948 107.788 55.2254 107.905 55.5944 108.139C55.9658 108.373 56.2544 108.702 56.4602 109.126C56.6683 109.549 56.7724 110.045 56.7724 110.612C56.7724 111.175 56.6683 111.668 56.4602 112.089C56.2544 112.51 55.9658 112.837 55.5944 113.071C55.2254 113.306 54.7948 113.423 54.3028 113.423ZM54.3028 112.671C54.6766 112.671 54.9841 112.575 55.2254 112.383C55.4666 112.191 55.6452 111.94 55.7612 111.627C55.8771 111.315 55.935 110.977 55.935 110.612C55.935 110.248 55.8771 109.909 55.7612 109.594C55.6452 109.279 55.4666 109.025 55.2254 108.831C54.9841 108.637 54.6766 108.54 54.3028 108.54C53.929 108.54 53.6215 108.637 53.3802 108.831C53.1389 109.025 52.9603 109.279 52.8444 109.594C52.7285 109.909 52.6706 110.248 52.6706 110.612C52.6706 110.977 52.7285 111.315 52.8444 111.627C52.9603 111.94 53.1389 112.191 53.3802 112.383C53.6215 112.575 53.929 112.671 54.3028 112.671ZM60.4778 107.859V108.569H57.5398V107.859H60.4778ZM58.4197 113.309V107.107C58.4197 106.794 58.4931 106.534 58.6397 106.326C58.7864 106.118 58.9768 105.962 59.211 105.858C59.4452 105.754 59.6924 105.702 59.9526 105.702C60.1584 105.702 60.3264 105.718 60.4565 105.751C60.5866 105.784 60.6836 105.815 60.7474 105.844L60.5062 106.567C60.4636 106.553 60.4044 106.535 60.3287 106.514C60.2554 106.493 60.1584 106.482 60.0378 106.482C59.761 106.482 59.5611 106.552 59.4381 106.692C59.3175 106.831 59.2571 107.036 59.2571 107.305V113.309H58.4197ZM64.5752 113.309V106.042H68.9326V106.823H65.4552V109.278H68.6061V110.059H65.4552V113.309H64.5752ZM71.93 113.437C71.5846 113.437 71.2712 113.372 70.9897 113.242C70.7082 113.109 70.4847 112.919 70.3191 112.671C70.1535 112.42 70.0707 112.117 70.0707 111.762C70.0707 111.45 70.1322 111.197 70.2552 111.003C70.3782 110.806 70.5426 110.653 70.7484 110.542C70.9542 110.43 71.1813 110.348 71.4297 110.293C71.6804 110.236 71.9324 110.191 72.1855 110.158C72.5167 110.116 72.7852 110.084 72.991 110.062C73.1991 110.039 73.3505 110 73.4451 109.945C73.5421 109.891 73.5906 109.796 73.5906 109.662V109.633C73.5906 109.283 73.4948 109.011 73.3032 108.817C73.114 108.623 72.8266 108.526 72.441 108.526C72.0412 108.526 71.7278 108.614 71.5007 108.789C71.2736 108.964 71.1139 109.151 71.0216 109.349L70.2268 109.065C70.3687 108.734 70.558 108.476 70.7945 108.292C71.0335 108.105 71.2937 107.975 71.5752 107.902C71.859 107.826 72.1382 107.788 72.4126 107.788C72.5876 107.788 72.7887 107.809 73.0158 107.852C73.2453 107.892 73.4664 107.976 73.6793 108.104C73.8946 108.232 74.0732 108.424 74.2151 108.682C74.3571 108.94 74.428 109.285 74.428 109.718V113.309H73.5906V112.571H73.5481C73.4913 112.689 73.3967 112.816 73.2642 112.951C73.1317 113.086 72.9555 113.2 72.7355 113.295C72.5155 113.39 72.247 113.437 71.93 113.437ZM72.0578 112.685C72.3889 112.685 72.6681 112.62 72.8952 112.49C73.1246 112.359 73.2973 112.191 73.4132 111.986C73.5315 111.78 73.5906 111.563 73.5906 111.336V110.57C73.5551 110.612 73.4771 110.652 73.3564 110.687C73.2382 110.72 73.101 110.75 72.9448 110.776C72.7911 110.799 72.6409 110.821 72.4942 110.84C72.3499 110.856 72.2328 110.87 72.1429 110.882C71.9253 110.911 71.7218 110.957 71.5326 111.021C71.3457 111.082 71.1943 111.175 71.0784 111.301C70.9649 111.424 70.9081 111.592 70.9081 111.805C70.9081 112.096 71.0157 112.316 71.231 112.465C71.4486 112.611 71.7242 112.685 72.0578 112.685ZM78.1706 113.423C77.6597 113.423 77.2197 113.302 76.8507 113.061C76.4816 112.82 76.1978 112.487 75.9991 112.064C75.8004 111.64 75.701 111.157 75.701 110.612C75.701 110.059 75.8027 109.57 76.0062 109.147C76.212 108.721 76.4982 108.389 76.8649 108.15C77.2339 107.909 77.6644 107.788 78.1564 107.788C78.5397 107.788 78.885 107.859 79.1926 108.001C79.5001 108.143 79.752 108.342 79.9484 108.597C80.1447 108.853 80.2665 109.151 80.3138 109.491H79.4764C79.4126 109.243 79.2706 109.023 79.0506 108.831C78.833 108.637 78.5397 108.54 78.1706 108.54C77.8442 108.54 77.558 108.625 77.3119 108.796C77.0683 108.964 76.8779 109.201 76.7407 109.509C76.6058 109.814 76.5384 110.172 76.5384 110.584C76.5384 111.005 76.6046 111.372 76.7371 111.684C76.8719 111.996 77.0612 112.239 77.3048 112.411C77.5509 112.584 77.8395 112.671 78.1706 112.671C78.3883 112.671 78.5858 112.633 78.7632 112.557C78.9406 112.481 79.0908 112.372 79.2138 112.231C79.3369 112.089 79.4244 111.918 79.4764 111.72H80.3138C80.2665 112.041 80.1494 112.331 79.9625 112.589C79.778 112.844 79.5332 113.048 79.228 113.199C78.9253 113.348 78.5728 113.423 78.1706 113.423ZM81.538 113.309V107.859H82.3754V113.309H81.538ZM81.9638 106.951C81.8006 106.951 81.6598 106.895 81.5416 106.784C81.4256 106.673 81.3677 106.539 81.3677 106.383C81.3677 106.227 81.4256 106.093 81.5416 105.982C81.6598 105.871 81.8006 105.815 81.9638 105.815C82.127 105.815 82.2666 105.871 82.3825 105.982C82.5008 106.093 82.5599 106.227 82.5599 106.383C82.5599 106.539 82.5008 106.673 82.3825 106.784C82.2666 106.895 82.127 106.951 81.9638 106.951ZM84.7466 106.042V113.309H83.9092V106.042H84.7466ZM86.2803 113.309V107.859H87.1178V113.309H86.2803ZM86.7061 106.951C86.5429 106.951 86.4022 106.895 86.2839 106.784C86.168 106.673 86.11 106.539 86.11 106.383C86.11 106.227 86.168 106.093 86.2839 105.982C86.4022 105.871 86.5429 105.815 86.7061 105.815C86.8694 105.815 87.0089 105.871 87.1249 105.982C87.2431 106.093 87.3023 106.227 87.3023 106.383C87.3023 106.539 87.2431 106.673 87.1249 106.784C87.0089 106.895 86.8694 106.951 86.7061 106.951ZM91.0218 107.859V108.569H88.1973V107.859H91.0218ZM89.0205 106.553H89.858V111.748C89.858 111.984 89.8923 112.162 89.9609 112.28C90.0318 112.396 90.1217 112.474 90.2305 112.514C90.3417 112.552 90.4588 112.571 90.5818 112.571C90.6741 112.571 90.7498 112.566 90.8089 112.557C90.868 112.545 90.9154 112.536 90.9508 112.529L91.1212 113.281C91.0644 113.302 90.9851 113.323 90.8834 113.345C90.7817 113.368 90.6528 113.38 90.4966 113.38C90.2601 113.38 90.0283 113.329 89.8012 113.228C89.5764 113.126 89.3896 112.971 89.2405 112.763C89.0939 112.555 89.0205 112.292 89.0205 111.975V106.553ZM92.8208 115.353C92.6789 115.353 92.5523 115.341 92.4411 115.318C92.33 115.296 92.2531 115.275 92.2105 115.254L92.4234 114.516C92.6268 114.568 92.8066 114.587 92.9627 114.572C93.1189 114.558 93.2573 114.488 93.3779 114.363C93.5009 114.24 93.6133 114.04 93.715 113.763L93.8711 113.338L91.8557 107.859H92.764L94.2685 112.202H94.3253L95.8298 107.859H96.7382L94.4247 114.104C94.3206 114.386 94.1916 114.619 94.0379 114.803C93.8841 114.99 93.7055 115.128 93.5021 115.218C93.301 115.308 93.0739 115.353 92.8208 115.353ZM101.193 106.042L103.067 109.065H103.123L104.997 106.042H106.033L103.748 109.676L106.033 113.309H104.997L103.123 110.343H103.067L101.193 113.309H100.157L102.499 109.676L100.157 106.042H101.193Z" fill="white" fill-opacity="0.7"/>
</g>
</g>
<defs>
<filter id="filter0_d_644_7640" x="0.702032" y="0.31377" width="149.882" height="149.881" filterUnits="userSpaceOnUse" color-interpolation-filters="sRGB">
<feFlood flood-opacity="0" result="BackgroundImageFix"/>
<feColorMatrix in="SourceAlpha" type="matrix" values="0 0 0 0 0 0 0 0 0 0 0 0 0 0 0 0 0 0 127 0" result="hardAlpha"/>
<feOffset dx="3.07449" dy="7.68623"/>
<feGaussianBlur stdDeviation="7.68623"/>
<feComposite in2="hardAlpha" operator="out"/>
<feColorMatrix type="matrix" values="0 0 0 0 0 0 0 0 0 0 0 0 0 0 0 0 0 0 0.1 0"/>
<feBlend mode="normal" in2="BackgroundImageFix" result="effect1_dropShadow_644_7640"/>
<feBlend mode="normal" in="SourceGraphic" in2="effect1_dropShadow_644_7640" result="shape"/>
</filter>
<linearGradient id="paint0_linear_644_7640" x1="72.5683" y1="8" x2="72.5683" y2="127.137" gradientUnits="userSpaceOnUse">
<stop stop-color="#00274D"/>
<stop offset="1" stop-color="#001223"/>
</linearGradient>
<clipPath id="clip0_644_7640">
<rect x="13" y="8" width="119.137" height="119.137" rx="16.6561" fill="white"/>
</clipPath>
</defs>
</svg>
