<svg width="285" height="151" viewBox="0 0 285 151" fill="none" xmlns="http://www.w3.org/2000/svg">
<g filter="url(#filter0_d_644_7657)">
<g clip-path="url(#clip0_644_7657)">
<rect x="13.0845" y="8.26752" width="252.877" height="119.137" rx="16.9097" fill="url(#paint0_linear_644_7657)"/>
<path d="M30.7662 25.4856C30.728 25.128 30.567 24.8496 30.2831 24.6504C30.002 24.4511 29.6362 24.3515 29.1859 24.3515C28.8692 24.3515 28.5977 24.3993 28.3711 24.4948C28.1446 24.5903 27.9712 24.72 27.8511 24.8837C27.731 25.0475 27.6696 25.2345 27.6669 25.4447C27.6669 25.6193 27.7065 25.7708 27.7856 25.8991C27.8675 26.0274 27.9781 26.1366 28.1173 26.2266C28.2565 26.314 28.4107 26.3877 28.5799 26.4477C28.7491 26.5078 28.9197 26.5583 29.0917 26.5992L29.8778 26.7957C30.1944 26.8694 30.4987 26.9691 30.7908 27.0946C31.0856 27.2202 31.349 27.3785 31.581 27.5696C31.8157 27.7606 32.0013 27.9913 32.1378 28.2615C32.2743 28.5317 32.3425 28.8483 32.3425 29.2113C32.3425 29.7026 32.217 30.1353 31.9658 30.5092C31.7147 30.8804 31.3517 31.1711 30.8768 31.3813C30.4046 31.5887 29.8327 31.6924 29.1613 31.6924C28.5089 31.6924 27.9426 31.5915 27.4622 31.3895C26.9845 31.1875 26.6106 30.8927 26.3404 30.5051C26.0729 30.1175 25.9282 29.6453 25.9064 29.0885H27.4008C27.4226 29.3806 27.5127 29.6235 27.671 29.8173C27.8293 30.0111 28.0354 30.1557 28.2892 30.2513C28.5458 30.3468 28.8324 30.3946 29.149 30.3946C29.4793 30.3946 29.7686 30.3454 30.017 30.2472C30.2681 30.1462 30.4646 30.007 30.6066 29.8296C30.7485 29.6494 30.8208 29.4393 30.8236 29.1991C30.8208 28.9807 30.7567 28.8006 30.6311 28.6586C30.5056 28.514 30.3295 28.3939 30.103 28.2983C29.8792 28.2001 29.6171 28.1127 29.3169 28.0363L28.3629 27.7906C27.6724 27.6132 27.1265 27.3444 26.7252 26.9841C26.3267 26.6211 26.1275 26.1393 26.1275 25.5388C26.1275 25.0448 26.2612 24.6122 26.5287 24.2409C26.7989 23.8697 27.166 23.5818 27.6301 23.3771C28.0941 23.1696 28.6195 23.0659 29.2063 23.0659C29.8014 23.0659 30.3227 23.1696 30.7703 23.3771C31.2207 23.5818 31.5742 23.867 31.8307 24.2328C32.0873 24.5958 32.2197 25.0134 32.2279 25.4856H30.7662ZM33.6312 33.9238V25.2768H35.0887V26.3167H35.1747C35.2511 26.1639 35.3589 26.0015 35.4981 25.8295C35.6373 25.6548 35.8257 25.5061 36.0631 25.3832C36.3006 25.2577 36.6036 25.1949 36.9721 25.1949C37.4579 25.1949 37.896 25.3191 38.2863 25.5675C38.6794 25.8131 38.9905 26.1775 39.2198 26.6606C39.4518 27.141 39.5678 27.7306 39.5678 28.4293C39.5678 29.1199 39.4545 29.7067 39.228 30.1899C39.0014 30.673 38.693 31.0415 38.3027 31.2953C37.9124 31.5491 37.4702 31.6761 36.9762 31.6761C36.6159 31.6761 36.317 31.616 36.0795 31.4959C35.8421 31.3758 35.651 31.2312 35.5063 31.0619C35.3644 30.89 35.2538 30.7276 35.1747 30.5747H35.1133V33.9238H33.6312ZM35.0846 28.4212C35.0846 28.8278 35.1419 29.184 35.2566 29.4897C35.3739 29.7955 35.5418 30.0343 35.7602 30.2062C35.9813 30.3755 36.2487 30.4601 36.5626 30.4601C36.8902 30.4601 37.1645 30.3727 37.3856 30.198C37.6067 30.0206 37.7732 29.7791 37.8851 29.4734C37.9997 29.1649 38.057 28.8142 38.057 28.4212C38.057 28.0308 38.0011 27.6842 37.8892 27.3812C37.7773 27.0782 37.6108 26.8408 37.3897 26.6688C37.1686 26.4969 36.8929 26.4109 36.5626 26.4109C36.246 26.4109 35.9772 26.4941 35.7561 26.6606C35.535 26.8271 35.3671 27.0605 35.2525 27.3607C35.1406 27.661 35.0846 28.0145 35.0846 28.4212ZM43.6211 31.6883C42.9906 31.6883 42.446 31.5573 41.9875 31.2953C41.5317 31.0305 41.1809 30.6566 40.9353 30.1735C40.6896 29.6876 40.5668 29.1158 40.5668 28.458C40.5668 27.8111 40.6896 27.2434 40.9353 26.7548C41.1837 26.2635 41.5303 25.8814 41.9752 25.6084C42.4201 25.3327 42.9428 25.1949 43.5433 25.1949C43.9309 25.1949 44.2966 25.2577 44.6405 25.3832C44.9872 25.5061 45.2929 25.6971 45.5577 25.9564C45.8251 26.2157 46.0353 26.546 46.1882 26.9472C46.341 27.3457 46.4174 27.8207 46.4174 28.372V28.8265H41.2628V27.8275H44.9967C44.994 27.5436 44.9326 27.2911 44.8125 27.0701C44.6924 26.8462 44.5245 26.6702 44.3089 26.5419C44.096 26.4136 43.8476 26.3495 43.5638 26.3495C43.2608 26.3495 42.9947 26.4232 42.7654 26.5706C42.5361 26.7152 42.3573 26.9063 42.229 27.1438C42.1035 27.3785 42.0393 27.6364 42.0366 27.9176V28.7896C42.0366 29.1554 42.1035 29.4693 42.2372 29.7313C42.371 29.9906 42.558 30.1899 42.7981 30.3291C43.0383 30.4655 43.3195 30.5338 43.6416 30.5338C43.8572 30.5338 44.0523 30.5038 44.227 30.4437C44.4017 30.3809 44.5532 30.2895 44.6815 30.1694C44.8098 30.0493 44.9067 29.9005 44.9722 29.7231L46.356 29.8787C46.2687 30.2445 46.1022 30.5638 45.8565 30.8367C45.6136 31.107 45.3024 31.3171 44.923 31.4673C44.5437 31.6147 44.1097 31.6883 43.6211 31.6883ZM50.4144 31.6883C49.7866 31.6883 49.2476 31.5505 48.7972 31.2748C48.3496 30.9992 48.0043 30.6184 47.7614 30.1325C47.5212 29.644 47.4011 29.0817 47.4011 28.4457C47.4011 27.807 47.5239 27.2434 47.7696 26.7548C48.0152 26.2635 48.3619 25.8814 48.8095 25.6084C49.2599 25.3327 49.7921 25.1949 50.4062 25.1949C50.9167 25.1949 51.3684 25.2891 51.7614 25.4774C52.1572 25.663 52.4725 25.9264 52.7072 26.2676C52.9419 26.606 53.0757 27.0018 53.1084 27.4549H51.6918C51.6345 27.1519 51.498 26.8995 51.2824 26.6975C51.0695 26.4928 50.7843 26.3904 50.4267 26.3904C50.1237 26.3904 49.8576 26.4723 49.6283 26.6361C49.3991 26.7971 49.2203 27.0291 49.092 27.3321C48.9664 27.6351 48.9037 27.9981 48.9037 28.4212C48.9037 28.8497 48.9664 29.2182 49.092 29.5266C49.2176 29.8323 49.3936 30.0684 49.6201 30.2349C49.8494 30.3987 50.1183 30.4806 50.4267 30.4806C50.6451 30.4806 50.8402 30.4396 51.0122 30.3577C51.1869 30.2731 51.3329 30.1516 51.4503 29.9933C51.5676 29.835 51.6482 29.6426 51.6918 29.4161H53.1084C53.0729 29.861 52.9419 30.2554 52.7154 30.5993C52.4888 30.9405 52.1804 31.208 51.7901 31.4018C51.3998 31.5928 50.9412 31.6883 50.4144 31.6883ZM54.3254 31.5655V25.2768H55.8076V31.5655H54.3254ZM55.0706 24.3842C54.8359 24.3842 54.6339 24.3065 54.4646 24.1509C54.2954 23.9926 54.2108 23.8029 54.2108 23.5818C54.2108 23.358 54.2954 23.1683 54.4646 23.0127C54.6339 22.8544 54.8359 22.7752 55.0706 22.7752C55.3081 22.7752 55.51 22.8544 55.6765 23.0127C55.8458 23.1683 55.9304 23.358 55.9304 23.5818C55.9304 23.8029 55.8458 23.9926 55.6765 24.1509C55.51 24.3065 55.3081 24.3842 55.0706 24.3842ZM60.5169 25.2768V26.4232H56.7994V25.2768H60.5169ZM57.7288 31.5655V24.6831C57.7288 24.2601 57.8161 23.908 57.9908 23.6268C58.1682 23.3457 58.4057 23.1355 58.7032 22.9963C59.0007 22.8571 59.331 22.7875 59.694 22.7875C59.9506 22.7875 60.1785 22.808 60.3777 22.8489C60.577 22.8899 60.7244 22.9267 60.8199 22.9595L60.5251 24.1058C60.4623 24.0867 60.3832 24.0676 60.2877 24.0485C60.1921 24.0267 60.0857 24.0158 59.9683 24.0158C59.6926 24.0158 59.4975 24.0826 59.3828 24.2164C59.2709 24.3474 59.215 24.5357 59.215 24.7814V31.5655H57.7288ZM61.6776 31.5655V25.2768H63.1598V31.5655H61.6776ZM62.4228 24.3842C62.1881 24.3842 61.9861 24.3065 61.8169 24.1509C61.6476 23.9926 61.563 23.8029 61.563 23.5818C61.563 23.358 61.6476 23.1683 61.8169 23.0127C61.9861 22.8544 62.1881 22.7752 62.4228 22.7752C62.6603 22.7752 62.8622 22.8544 63.0287 23.0127C63.198 23.1683 63.2826 23.358 63.2826 23.5818C63.2826 23.8029 63.198 23.9926 63.0287 24.1509C62.8622 24.3065 62.6603 24.3842 62.4228 24.3842ZM67.427 31.6883C66.7992 31.6883 66.2601 31.5505 65.8097 31.2748C65.3621 30.9992 65.0168 30.6184 64.7739 30.1325C64.5337 29.644 64.4136 29.0817 64.4136 28.4457C64.4136 27.807 64.5364 27.2434 64.7821 26.7548C65.0278 26.2635 65.3744 25.8814 65.822 25.6084C66.2724 25.3327 66.8046 25.1949 67.4188 25.1949C67.9292 25.1949 68.3809 25.2891 68.774 25.4774C69.1697 25.663 69.485 25.9264 69.7197 26.2676C69.9545 26.606 70.0882 27.0018 70.121 27.4549H68.7044C68.647 27.1519 68.5106 26.8995 68.2949 26.6975C68.082 26.4928 67.7968 26.3904 67.4393 26.3904C67.1363 26.3904 66.8702 26.4723 66.6409 26.6361C66.4116 26.7971 66.2328 27.0291 66.1045 27.3321C65.979 27.6351 65.9162 27.9981 65.9162 28.4212C65.9162 28.8497 65.979 29.2182 66.1045 29.5266C66.2301 29.8323 66.4061 30.0684 66.6327 30.2349C66.862 30.3987 67.1308 30.4806 67.4393 30.4806C67.6576 30.4806 67.8528 30.4396 68.0247 30.3577C68.1994 30.2731 68.3454 30.1516 68.4628 29.9933C68.5802 29.835 68.6607 29.6426 68.7044 29.4161H70.121C70.0855 29.861 69.9545 30.2554 69.7279 30.5993C69.5014 30.9405 69.1929 31.208 68.8026 31.4018C68.4123 31.5928 67.9538 31.6883 67.427 31.6883ZM74.2633 31.5655V23.1805H79.6349V24.4538H75.7823V26.7302H79.2665V28.0035H75.7823V31.5655H74.2633ZM83.2757 31.6883C82.6452 31.6883 82.1007 31.5573 81.6421 31.2953C81.1863 31.0305 80.8356 30.6566 80.5899 30.1735C80.3443 29.6876 80.2214 29.1158 80.2214 28.458C80.2214 27.8111 80.3443 27.2434 80.5899 26.7548C80.8383 26.2635 81.1849 25.8814 81.6298 25.6084C82.0748 25.3327 82.5974 25.1949 83.1979 25.1949C83.5855 25.1949 83.9513 25.2577 84.2952 25.3832C84.6418 25.5061 84.9475 25.6971 85.2123 25.9564C85.4798 26.2157 85.69 26.546 85.8428 26.9472C85.9957 27.3457 86.0721 27.8207 86.0721 28.372V28.8265H80.9175V27.8275H84.6514C84.6487 27.5436 84.5872 27.2911 84.4671 27.0701C84.347 26.8462 84.1792 26.6702 83.9636 26.5419C83.7507 26.4136 83.5023 26.3495 83.2184 26.3495C82.9154 26.3495 82.6493 26.4232 82.42 26.5706C82.1908 26.7152 82.012 26.9063 81.8837 27.1438C81.7581 27.3785 81.694 27.6364 81.6913 27.9176V28.7896C81.6913 29.1554 81.7581 29.4693 81.8919 29.7313C82.0256 29.9906 82.2126 30.1899 82.4528 30.3291C82.693 30.4655 82.9741 30.5338 83.2962 30.5338C83.5118 30.5338 83.707 30.5038 83.8817 30.4437C84.0564 30.3809 84.2078 30.2895 84.3361 30.1694C84.4644 30.0493 84.5613 29.9005 84.6268 29.7231L86.0107 29.8787C85.9233 30.2445 85.7568 30.5638 85.5112 30.8367C85.2683 31.107 84.9571 31.3171 84.5777 31.4673C84.1983 31.6147 83.7643 31.6883 83.2757 31.6883ZM90.11 31.6883C89.4795 31.6883 88.935 31.5573 88.4764 31.2953C88.0206 31.0305 87.6699 30.6566 87.4242 30.1735C87.1785 29.6876 87.0557 29.1158 87.0557 28.458C87.0557 27.8111 87.1785 27.2434 87.4242 26.7548C87.6726 26.2635 88.0192 25.8814 88.4641 25.6084C88.909 25.3327 89.4317 25.1949 90.0322 25.1949C90.4198 25.1949 90.7856 25.2577 91.1295 25.3832C91.4761 25.5061 91.7818 25.6971 92.0466 25.9564C92.3141 26.2157 92.5242 26.546 92.6771 26.9472C92.8299 27.3457 92.9064 27.8207 92.9064 28.372V28.8265H87.7517V27.8275H91.4857C91.4829 27.5436 91.4215 27.2911 91.3014 27.0701C91.1813 26.8462 91.0135 26.6702 90.7978 26.5419C90.5849 26.4136 90.3366 26.3495 90.0527 26.3495C89.7497 26.3495 89.4836 26.4232 89.2543 26.5706C89.025 26.7152 88.8463 26.9063 88.718 27.1438C88.5924 27.3785 88.5283 27.6364 88.5255 27.9176V28.7896C88.5255 29.1554 88.5924 29.4693 88.7262 29.7313C88.8599 29.9906 89.0469 30.1899 89.2871 30.3291C89.5273 30.4655 89.8084 30.5338 90.1305 30.5338C90.3461 30.5338 90.5413 30.5038 90.716 30.4437C90.8906 30.3809 91.0421 30.2895 91.1704 30.1694C91.2987 30.0493 91.3956 29.9005 91.4611 29.7231L92.845 29.8787C92.7576 30.2445 92.5911 30.5638 92.3455 30.8367C92.1025 31.107 91.7914 31.3171 91.412 31.4673C91.0326 31.6147 90.5986 31.6883 90.11 31.6883ZM96.4939 31.6761C95.9999 31.6761 95.5577 31.5491 95.1674 31.2953C94.7771 31.0415 94.4687 30.673 94.2421 30.1899C94.0156 29.7067 93.9023 29.1199 93.9023 28.4293C93.9023 27.7306 94.0169 27.141 94.2462 26.6606C94.4782 26.1775 94.7907 25.8131 95.1838 25.5675C95.5768 25.3191 96.0149 25.1949 96.498 25.1949C96.8665 25.1949 97.1695 25.2577 97.407 25.3832C97.6444 25.5061 97.8328 25.6548 97.972 25.8295C98.1112 26.0015 98.219 26.1639 98.2954 26.3167H98.3568V23.1805H99.843V31.5655H98.3855V30.5747H98.2954C98.219 30.7276 98.1084 30.89 97.9638 31.0619C97.8191 31.2312 97.628 31.3758 97.3906 31.4959C97.1531 31.616 96.8542 31.6761 96.4939 31.6761ZM96.9075 30.4601C97.2213 30.4601 97.4888 30.3755 97.7099 30.2062C97.931 30.0343 98.0989 29.7955 98.2135 29.4897C98.3282 29.184 98.3855 28.8278 98.3855 28.4212C98.3855 28.0145 98.3282 27.661 98.2135 27.3607C98.1016 27.0605 97.9351 26.8271 97.714 26.6606C97.4957 26.4941 97.2268 26.4109 96.9075 26.4109C96.5772 26.4109 96.3015 26.4969 96.0804 26.6688C95.8593 26.8408 95.6928 27.0782 95.5809 27.3812C95.469 27.6842 95.4131 28.0308 95.4131 28.4212C95.4131 28.8142 95.469 29.1649 95.5809 29.4734C95.6956 29.7791 95.8634 30.0206 96.0845 30.198C96.3083 30.3727 96.5826 30.4601 96.9075 30.4601ZM101.422 31.5655V25.2768H102.904V31.5655H101.422ZM102.168 24.3842C101.933 24.3842 101.731 24.3065 101.562 24.1509C101.392 23.9926 101.308 23.8029 101.308 23.5818C101.308 23.358 101.392 23.1683 101.562 23.0127C101.731 22.8544 101.933 22.7752 102.168 22.7752C102.405 22.7752 102.607 22.8544 102.773 23.0127C102.943 23.1683 103.027 23.358 103.027 23.5818C103.027 23.8029 102.943 23.9926 102.773 24.1509C102.607 24.3065 102.405 24.3842 102.168 24.3842ZM105.911 27.8807V31.5655H104.429V25.2768H105.845V26.3454H105.919C106.064 25.9933 106.294 25.7135 106.611 25.5061C106.93 25.2986 107.325 25.1949 107.794 25.1949C108.228 25.1949 108.606 25.2877 108.928 25.4733C109.253 25.6589 109.504 25.9278 109.681 26.2799C109.862 26.632 109.95 27.0591 109.948 27.5614V31.5655H108.465V27.7906C108.465 27.3703 108.356 27.0414 108.138 26.8039C107.922 26.5665 107.623 26.4477 107.241 26.4477C106.982 26.4477 106.751 26.5051 106.549 26.6197C106.35 26.7316 106.193 26.894 106.079 27.1069C105.967 27.3198 105.911 27.5777 105.911 27.8807ZM114.189 34.0548C113.657 34.0548 113.2 33.9825 112.818 33.8378C112.435 33.6959 112.128 33.5048 111.896 33.2646C111.664 33.0244 111.503 32.7583 111.413 32.4663L112.748 32.1428C112.808 32.2656 112.895 32.3871 113.01 32.5072C113.125 32.63 113.279 32.731 113.473 32.8102C113.669 32.8921 113.916 32.933 114.214 32.933C114.634 32.933 114.982 32.8306 115.258 32.6259C115.533 32.4239 115.671 32.0909 115.671 31.6269V30.4355H115.598C115.521 30.5884 115.409 30.7453 115.262 30.9064C115.117 31.0674 114.925 31.2025 114.685 31.3117C114.447 31.4209 114.148 31.4754 113.788 31.4754C113.305 31.4754 112.867 31.3622 112.474 31.1356C112.083 30.9064 111.772 30.5652 111.54 30.1121C111.311 29.6562 111.196 29.0858 111.196 28.4007C111.196 27.7101 111.311 27.1274 111.54 26.6524C111.772 26.1748 112.085 25.8131 112.478 25.5675C112.871 25.3191 113.309 25.1949 113.792 25.1949C114.161 25.1949 114.464 25.2577 114.701 25.3832C114.941 25.5061 115.132 25.6548 115.274 25.8295C115.416 26.0015 115.524 26.1639 115.598 26.3167H115.679V25.2768H117.141V31.6679C117.141 32.2056 117.013 32.6505 116.756 33.0026C116.5 33.3547 116.149 33.6181 115.704 33.7928C115.259 33.9675 114.754 34.0548 114.189 34.0548ZM114.201 30.3127C114.515 30.3127 114.783 30.2363 115.004 30.0834C115.225 29.9306 115.393 29.7108 115.508 29.4242C115.622 29.1376 115.679 28.7937 115.679 28.3925C115.679 27.9967 115.622 27.6501 115.508 27.3526C115.396 27.055 115.229 26.8244 115.008 26.6606C114.79 26.4941 114.521 26.4109 114.201 26.4109C113.871 26.4109 113.596 26.4969 113.374 26.6688C113.153 26.8408 112.987 27.0769 112.875 27.3771C112.763 27.6746 112.707 28.0131 112.707 28.3925C112.707 28.7774 112.763 29.1144 112.875 29.4038C112.99 29.6904 113.157 29.9142 113.379 30.0752C113.602 30.2335 113.877 30.3127 114.201 30.3127ZM121.585 31.5655V23.1805H124.73C125.374 23.1805 125.914 23.2925 126.351 23.5163C126.791 23.7401 127.122 24.054 127.346 24.4579C127.573 24.8592 127.686 25.3273 127.686 25.8623C127.686 26.4 127.571 26.8667 127.342 27.2625C127.115 27.6555 126.781 27.9599 126.339 28.1755C125.897 28.3884 125.353 28.4949 124.709 28.4949H122.47V27.2338H124.505C124.881 27.2338 125.19 27.182 125.43 27.0782C125.67 26.9718 125.848 26.8176 125.962 26.6156C126.08 26.4109 126.138 26.1598 126.138 25.8623C126.138 25.5647 126.08 25.3109 125.962 25.1007C125.845 24.8878 125.666 24.7268 125.426 24.6176C125.186 24.5057 124.876 24.4498 124.496 24.4498H123.104V31.5655H121.585ZM125.917 27.7661L127.993 31.5655H126.298L124.259 27.7661H125.917ZM130.828 31.6924C130.43 31.6924 130.071 31.6215 129.751 31.4795C129.435 31.3349 129.184 31.122 128.998 30.8408C128.815 30.5597 128.724 30.2131 128.724 29.8009C128.724 29.4461 128.789 29.1527 128.92 28.9207C129.051 28.6886 129.23 28.503 129.457 28.3638C129.683 28.2246 129.938 28.1195 130.222 28.0486C130.509 27.9749 130.805 27.9217 131.111 27.8889C131.479 27.8507 131.778 27.8166 132.007 27.7865C132.237 27.7538 132.403 27.7047 132.507 27.6392C132.613 27.5709 132.666 27.4658 132.666 27.3239V27.2993C132.666 26.9909 132.575 26.7521 132.392 26.5828C132.209 26.4136 131.946 26.329 131.602 26.329C131.239 26.329 130.951 26.4082 130.738 26.5665C130.528 26.7248 130.386 26.9117 130.312 27.1274L128.928 26.9309C129.038 26.5487 129.218 26.2294 129.469 25.9728C129.72 25.7135 130.027 25.5197 130.39 25.3914C130.753 25.2604 131.154 25.1949 131.594 25.1949C131.897 25.1949 132.198 25.2304 132.499 25.3014C132.799 25.3723 133.073 25.4897 133.322 25.6535C133.57 25.8145 133.769 26.0342 133.919 26.3126C134.072 26.591 134.149 26.939 134.149 27.3567V31.5655H132.724V30.7016H132.675C132.585 30.8763 132.458 31.0401 132.294 31.1929C132.133 31.3431 131.929 31.4645 131.684 31.5573C131.441 31.6474 131.156 31.6924 130.828 31.6924ZM131.213 30.6034C131.511 30.6034 131.768 30.5447 131.987 30.4273C132.205 30.3072 132.373 30.1489 132.49 29.9524C132.61 29.7559 132.671 29.5416 132.671 29.3096V28.5685C132.624 28.6068 132.545 28.6422 132.433 28.675C132.324 28.7078 132.201 28.7364 132.065 28.761C131.928 28.7855 131.793 28.8074 131.659 28.8265C131.526 28.8456 131.41 28.862 131.311 28.8756C131.09 28.9056 130.892 28.9548 130.718 29.023C130.543 29.0912 130.405 29.1868 130.304 29.3096C130.203 29.4297 130.153 29.5853 130.153 29.7763C130.153 30.0493 130.252 30.2554 130.451 30.3946C130.651 30.5338 130.905 30.6034 131.213 30.6034ZM138.779 25.2768V26.4232H135.164V25.2768H138.779ZM136.056 23.7701H137.539V29.674C137.539 29.8732 137.569 30.0261 137.629 30.1325C137.691 30.2363 137.773 30.3072 137.874 30.3454C137.975 30.3837 138.087 30.4028 138.21 30.4028C138.303 30.4028 138.387 30.3959 138.464 30.3823C138.543 30.3686 138.603 30.3564 138.644 30.3454L138.894 31.5041C138.815 31.5314 138.701 31.5614 138.554 31.5942C138.409 31.6269 138.232 31.646 138.022 31.6515C137.65 31.6624 137.316 31.6065 137.019 31.4836C136.721 31.3581 136.485 31.1643 136.31 30.9023C136.138 30.6402 136.054 30.3127 136.056 29.9196V23.7701ZM142.735 31.6883C142.105 31.6883 141.56 31.5573 141.102 31.2953C140.646 31.0305 140.295 30.6566 140.049 30.1735C139.804 29.6876 139.681 29.1158 139.681 28.458C139.681 27.8111 139.804 27.2434 140.049 26.7548C140.298 26.2635 140.644 25.8814 141.089 25.6084C141.534 25.3327 142.057 25.1949 142.657 25.1949C143.045 25.1949 143.411 25.2577 143.755 25.3832C144.101 25.5061 144.407 25.6971 144.672 25.9564C144.939 26.2157 145.149 26.546 145.302 26.9472C145.455 27.3457 145.532 27.8207 145.532 28.372V28.8265H140.377V27.8275H144.111C144.108 27.5436 144.047 27.2911 143.927 27.0701C143.806 26.8462 143.639 26.6702 143.423 26.5419C143.21 26.4136 142.962 26.3495 142.678 26.3495C142.375 26.3495 142.109 26.4232 141.879 26.5706C141.65 26.7152 141.471 26.9063 141.343 27.1438C141.218 27.3785 141.153 27.6364 141.151 27.9176V28.7896C141.151 29.1554 141.218 29.4693 141.351 29.7313C141.485 29.9906 141.672 30.1899 141.912 30.3291C142.152 30.4655 142.434 30.5338 142.756 30.5338C142.971 30.5338 143.166 30.5038 143.341 30.4437C143.516 30.3809 143.667 30.2895 143.796 30.1694C143.924 30.0493 144.021 29.9005 144.086 29.7231L145.47 29.8787C145.383 30.2445 145.216 30.5638 144.971 30.8367C144.728 31.107 144.417 31.3171 144.037 31.4673C143.658 31.6147 143.224 31.6883 142.735 31.6883ZM148.525 30.4191L148.472 30.8695C148.434 31.2134 148.366 31.5628 148.267 31.9176C148.172 32.2752 148.071 32.6041 147.965 32.9043C147.858 33.2046 147.772 33.4407 147.707 33.6126H146.708C146.746 33.4461 146.798 33.2196 146.863 32.933C146.931 32.6464 146.997 32.3243 147.06 31.9668C147.122 31.6092 147.165 31.2462 147.187 30.8777L147.215 30.4191H148.525ZM152.484 24.4538V23.1805H159.173V24.4538H156.582V31.5655H155.075V24.4538H152.484ZM161.352 31.6924C160.953 31.6924 160.594 31.6215 160.275 31.4795C159.958 31.3349 159.707 31.122 159.521 30.8408C159.339 30.5597 159.247 30.2131 159.247 29.8009C159.247 29.4461 159.313 29.1527 159.444 28.9207C159.575 28.6886 159.754 28.503 159.98 28.3638C160.207 28.2246 160.462 28.1195 160.746 28.0486C161.032 27.9749 161.328 27.9217 161.634 27.8889C162.003 27.8507 162.301 27.8166 162.531 27.7865C162.76 27.7538 162.927 27.7047 163.03 27.6392C163.137 27.5709 163.19 27.4658 163.19 27.3239V27.2993C163.19 26.9909 163.098 26.7521 162.916 26.5828C162.733 26.4136 162.469 26.329 162.125 26.329C161.762 26.329 161.474 26.4082 161.262 26.5665C161.051 26.7248 160.909 26.9117 160.836 27.1274L159.452 26.9309C159.561 26.5487 159.741 26.2294 159.992 25.9728C160.243 25.7135 160.551 25.5197 160.914 25.3914C161.277 25.2604 161.678 25.1949 162.117 25.1949C162.42 25.1949 162.722 25.2304 163.022 25.3014C163.322 25.3723 163.597 25.4897 163.845 25.6535C164.093 25.8145 164.293 26.0342 164.443 26.3126C164.596 26.591 164.672 26.939 164.672 27.3567V31.5655H163.247V30.7016H163.198C163.108 30.8763 162.981 31.0401 162.817 31.1929C162.656 31.3431 162.453 31.4645 162.207 31.5573C161.964 31.6474 161.679 31.6924 161.352 31.6924ZM161.736 30.6034C162.034 30.6034 162.292 30.5447 162.51 30.4273C162.729 30.3072 162.897 30.1489 163.014 29.9524C163.134 29.7559 163.194 29.5416 163.194 29.3096V28.5685C163.148 28.6068 163.068 28.6422 162.957 28.675C162.847 28.7078 162.725 28.7364 162.588 28.761C162.452 28.7855 162.316 28.8074 162.183 28.8265C162.049 28.8456 161.933 28.862 161.835 28.8756C161.614 28.9056 161.416 28.9548 161.241 29.023C161.066 29.0912 160.929 29.1868 160.828 29.3096C160.727 29.4297 160.676 29.5853 160.676 29.7763C160.676 30.0493 160.776 30.2554 160.975 30.3946C161.174 30.5338 161.428 30.6034 161.736 30.6034ZM167.644 27.8807V31.5655H166.162V25.2768H167.579V26.3454H167.653C167.797 25.9933 168.028 25.7135 168.345 25.5061C168.664 25.2986 169.058 25.1949 169.528 25.1949C169.962 25.1949 170.34 25.2877 170.662 25.4733C170.987 25.6589 171.238 25.9278 171.415 26.2799C171.595 26.632 171.684 27.0591 171.681 27.5614V31.5655H170.199V27.7906C170.199 27.3703 170.09 27.0414 169.872 26.8039C169.656 26.5665 169.357 26.4477 168.975 26.4477C168.716 26.4477 168.485 26.5051 168.283 26.6197C168.084 26.7316 167.927 26.894 167.812 27.1069C167.7 27.3198 167.644 27.5777 167.644 27.8807ZM174.539 29.5921L174.535 27.8029H174.772L177.033 25.2768H178.764L175.984 28.372H175.677L174.539 29.5921ZM173.188 31.5655V23.1805H174.67V31.5655H173.188ZM177.135 31.5655L175.088 28.7037L176.087 27.6596L178.908 31.5655H177.135ZM183.947 23.1805L185.793 26.2512H185.859L187.713 23.1805H189.445L186.862 27.373L189.486 31.5655H187.726L185.859 28.5153H185.793L183.926 31.5655H182.174L184.823 27.373L182.207 23.1805H183.947Z" fill="white"/>
<path d="M202.277 31.3341V24.0672H204.818C205.324 24.0672 205.741 24.1547 206.07 24.3297C206.399 24.5024 206.644 24.7354 206.805 25.0288C206.965 25.3197 207.046 25.6426 207.046 25.9974C207.046 26.3097 206.99 26.5675 206.879 26.771C206.77 26.9744 206.626 27.1353 206.446 27.2536C206.269 27.3718 206.076 27.4594 205.868 27.5161V27.5871C206.09 27.6013 206.314 27.6794 206.539 27.8213C206.763 27.9632 206.951 28.1667 207.103 28.4316C207.254 28.6965 207.33 29.0206 207.33 29.4038C207.33 29.7681 207.247 30.0958 207.081 30.3867C206.916 30.6777 206.654 30.9083 206.297 31.0787C205.94 31.249 205.475 31.3341 204.903 31.3341H202.277ZM203.157 30.5535H204.903C205.478 30.5535 205.886 30.4423 206.127 30.22C206.371 29.9952 206.492 29.7232 206.492 29.4038C206.492 29.1578 206.43 28.9307 206.304 28.7226C206.179 28.512 206 28.3441 205.769 28.2187C205.537 28.091 205.262 28.0271 204.945 28.0271H203.157V30.5535ZM203.157 27.2607H204.789C205.054 27.2607 205.293 27.2086 205.506 27.1045C205.721 27.0004 205.892 26.8538 206.017 26.6645C206.145 26.4753 206.209 26.2529 206.209 25.9974C206.209 25.6781 206.097 25.4072 205.875 25.1849C205.653 24.9602 205.3 24.8478 204.818 24.8478H203.157V27.2607ZM210.266 31.4619C209.921 31.4619 209.607 31.3968 209.326 31.2667C209.044 31.1342 208.821 30.9438 208.655 30.6954C208.489 30.4447 208.407 30.1419 208.407 29.7871C208.407 29.4748 208.468 29.2217 208.591 29.0277C208.714 28.8314 208.879 28.6776 209.084 28.5664C209.29 28.4553 209.517 28.3725 209.766 28.3181C210.016 28.2613 210.268 28.2163 210.522 28.1832C210.853 28.1406 211.121 28.1087 211.327 28.0874C211.535 28.0638 211.687 28.0247 211.781 27.9703C211.878 27.9159 211.927 27.8213 211.927 27.6865V27.6581C211.927 27.308 211.831 27.0359 211.639 26.842C211.45 26.648 211.163 26.551 210.777 26.551C210.377 26.551 210.064 26.6385 209.837 26.8136C209.61 26.9886 209.45 27.1755 209.358 27.3742L208.563 27.0903C208.705 26.7592 208.894 26.5013 209.131 26.3168C209.369 26.1299 209.63 25.9998 209.911 25.9265C210.195 25.8508 210.474 25.8129 210.749 25.8129C210.924 25.8129 211.125 25.8342 211.352 25.8768C211.581 25.917 211.802 26.001 212.015 26.1287C212.231 26.2565 212.409 26.4493 212.551 26.7071C212.693 26.965 212.764 27.3103 212.764 27.7432V31.3341H211.927V30.5961H211.884C211.827 30.7144 211.733 30.8409 211.6 30.9758C211.468 31.1106 211.291 31.2253 211.071 31.3199C210.851 31.4146 210.583 31.4619 210.266 31.4619ZM210.394 30.7096C210.725 30.7096 211.004 30.6446 211.231 30.5145C211.461 30.3844 211.633 30.2164 211.749 30.0106C211.868 29.8048 211.927 29.5884 211.927 29.3613V28.5948C211.891 28.6374 211.813 28.6764 211.692 28.7119C211.574 28.745 211.437 28.7746 211.281 28.8006C211.127 28.8243 210.977 28.8456 210.83 28.8645C210.686 28.8811 210.569 28.8953 210.479 28.9071C210.261 28.9355 210.058 28.9816 209.869 29.0455C209.682 29.107 209.53 29.2004 209.414 29.3258C209.301 29.4488 209.244 29.6167 209.244 29.8296C209.244 30.1206 209.352 30.3406 209.567 30.4896C209.785 30.6363 210.06 30.7096 210.394 30.7096ZM216.663 25.8839V26.5936H213.838V25.8839H216.663ZM214.662 24.5781H215.499V29.7729C215.499 30.0094 215.533 30.1868 215.602 30.3051C215.673 30.421 215.763 30.4991 215.872 30.5393C215.983 30.5772 216.1 30.5961 216.223 30.5961C216.315 30.5961 216.391 30.5914 216.45 30.5819C216.509 30.5701 216.556 30.5606 216.592 30.5535L216.762 31.3058C216.705 31.327 216.626 31.3483 216.524 31.3696C216.423 31.3933 216.294 31.4051 216.138 31.4051C215.901 31.4051 215.669 31.3542 215.442 31.2525C215.217 31.1508 215.031 30.9959 214.882 30.7877C214.735 30.5795 214.662 30.3169 214.662 30V24.5781ZM220.078 31.4477C219.567 31.4477 219.127 31.327 218.758 31.0858C218.389 30.8445 218.105 30.5121 217.906 30.0887C217.708 29.6652 217.608 29.1815 217.608 28.6374C217.608 28.0839 217.71 27.5954 217.914 27.1719C218.119 26.7461 218.406 26.4138 218.772 26.1749C219.141 25.9336 219.572 25.8129 220.064 25.8129C220.447 25.8129 220.792 25.8839 221.1 26.0258C221.407 26.1678 221.659 26.3665 221.856 26.622C222.052 26.8774 222.174 27.1755 222.221 27.5161H221.384C221.32 27.2678 221.178 27.0478 220.958 26.8561C220.74 26.6622 220.447 26.5652 220.078 26.5652C219.752 26.5652 219.465 26.6503 219.219 26.8207C218.976 26.9886 218.785 27.2264 218.648 27.5339C218.513 27.839 218.446 28.1974 218.446 28.609C218.446 29.0301 218.512 29.3967 218.645 29.709C218.779 30.0213 218.969 30.2637 219.212 30.4364C219.458 30.6091 219.747 30.6954 220.078 30.6954C220.296 30.6954 220.493 30.6576 220.671 30.5819C220.848 30.5062 220.998 30.3974 221.121 30.2554C221.244 30.1135 221.332 29.9432 221.384 29.7445H222.221C222.174 30.0662 222.057 30.356 221.87 30.6138C221.685 30.8693 221.441 31.0727 221.135 31.2241C220.833 31.3732 220.48 31.4477 220.078 31.4477ZM224.283 28.0555V31.3341H223.445V24.0672H224.283V26.7355H224.354C224.482 26.454 224.673 26.2305 224.929 26.0649C225.186 25.8969 225.529 25.8129 225.958 25.8129C226.329 25.8129 226.654 25.8874 226.933 26.0365C227.213 26.1831 227.429 26.4091 227.583 26.7142C227.739 27.017 227.817 27.4026 227.817 27.871V31.3341H226.98V27.9277C226.98 27.4948 226.867 27.1601 226.642 26.9236C226.42 26.6846 226.111 26.5652 225.716 26.5652C225.442 26.5652 225.196 26.6231 224.978 26.739C224.763 26.855 224.593 27.0241 224.467 27.2465C224.344 27.4688 224.283 27.7385 224.283 28.0555ZM229.959 31.3909C229.784 31.3909 229.634 31.3282 229.509 31.2028C229.383 31.0775 229.321 30.9273 229.321 30.7522C229.321 30.5772 229.383 30.4269 229.509 30.3016C229.634 30.1762 229.784 30.1135 229.959 30.1135C230.134 30.1135 230.285 30.1762 230.41 30.3016C230.535 30.4269 230.598 30.5772 230.598 30.7522C230.598 30.8681 230.568 30.9746 230.509 31.0716C230.452 31.1685 230.376 31.2466 230.279 31.3058C230.184 31.3625 230.078 31.3909 229.959 31.3909ZM229.959 27.3458C229.784 27.3458 229.634 27.2831 229.509 27.1578C229.383 27.0324 229.321 26.8822 229.321 26.7071C229.321 26.5321 229.383 26.3819 229.509 26.2565C229.634 26.1311 229.784 26.0684 229.959 26.0684C230.134 26.0684 230.285 26.1311 230.41 26.2565C230.535 26.3819 230.598 26.5321 230.598 26.7071C230.598 26.823 230.568 26.9295 230.509 27.0265C230.452 27.1235 230.376 27.2015 230.279 27.2607C230.184 27.3174 230.078 27.3458 229.959 27.3458ZM235.45 24.0672L237.324 27.0903H237.381L239.254 24.0672H240.29L238.005 27.7006L240.29 31.3341H239.254L237.381 28.3677H237.324L235.45 31.3341H234.414L236.756 27.7006L234.414 24.0672H235.45ZM241.861 24.0672L243.735 27.0903H243.792L245.665 24.0672H246.701L244.416 27.7006L246.701 31.3341H245.665L243.792 28.3677H243.735L241.861 31.3341H240.825L243.167 27.7006L240.825 24.0672H241.861ZM248.272 24.0672L250.146 27.0903H250.202L252.076 24.0672H253.112L250.827 27.7006L253.112 31.3341H252.076L250.202 28.3677H250.146L248.272 31.3341H247.236L249.578 27.7006L247.236 24.0672H248.272Z" fill="#B2BDC7"/>
<line x1="25.7666" y1="51.3103" x2="25.7666" y2="95.1218" stroke="white" stroke-width="0.768623"/>
<line x1="160.66" y1="95.506" x2="25.382" y2="95.506" stroke="white" stroke-width="0.768623"/>
<path d="M25.7208 101.101V100.375H30.047V101.101H28.3029V105.965H27.4622V101.101H25.7208ZM34.5977 100.375H35.4439V104.052C35.4439 104.443 35.352 104.79 35.1682 105.092C34.9844 105.392 34.726 105.628 34.393 105.801C34.06 105.972 33.6697 106.058 33.2221 106.058C32.7763 106.058 32.3869 105.972 32.0539 105.801C31.7209 105.628 31.4625 105.392 31.2787 105.092C31.0949 104.79 31.003 104.443 31.003 104.052V100.375H31.8464V103.983C31.8464 104.236 31.9019 104.461 32.0129 104.658C32.1257 104.854 32.285 105.009 32.4906 105.122C32.6962 105.233 32.94 105.288 33.2221 105.288C33.506 105.288 33.7507 105.233 33.9563 105.122C34.1638 105.009 34.3221 104.854 34.4312 104.658C34.5422 104.461 34.5977 104.236 34.5977 103.983V100.375ZM36.6701 105.965V100.375H40.1748V101.101H37.5135V102.804H39.9919V103.528H37.5135V105.239H40.2075V105.965H36.6701Z" fill="white"/>
<path d="M61.6789 105.965L60.1285 100.375H61.0156L62.1047 104.704H62.1565L63.2893 100.375H64.1682L65.3009 104.707H65.3528L66.4391 100.375H67.3289L65.7758 105.965H64.927L63.7506 101.778H63.7069L62.5305 105.965H61.6789ZM68.0979 105.965V100.375H71.6026V101.101H68.9414V102.804H71.4197V103.528H68.9414V105.239H71.6354V105.965H68.0979ZM74.5388 105.965H72.7292V100.375H74.5962C75.1439 100.375 75.6143 100.487 76.0073 100.711C76.4004 100.933 76.7015 101.252 76.9108 101.669C77.1218 102.084 77.2274 102.581 77.2274 103.162C77.2274 103.744 77.1209 104.245 76.908 104.663C76.697 105.082 76.3913 105.404 75.9909 105.629C75.5906 105.853 75.1066 105.965 74.5388 105.965ZM73.5726 105.228H74.4924C74.9182 105.228 75.2722 105.148 75.5542 104.988C75.8363 104.826 76.0473 104.592 76.1875 104.286C76.3276 103.979 76.3976 103.604 76.3976 103.162C76.3976 102.723 76.3276 102.351 76.1875 102.045C76.0492 101.74 75.8426 101.508 75.5679 101.349C75.2931 101.191 74.9519 101.112 74.5443 101.112H73.5726V105.228Z" fill="white"/>
<path d="M97.9713 101.101V100.375H102.298V101.101H100.553V105.965H99.7127V101.101H97.9713ZM103.254 105.965V100.375H104.097V102.804H106.884V100.375H107.73V105.965H106.884V103.528H104.097V105.965H103.254ZM112.553 100.375H113.399V104.052C113.399 104.443 113.307 104.79 113.123 105.092C112.94 105.392 112.681 105.628 112.348 105.801C112.015 105.972 111.625 106.058 111.177 106.058C110.731 106.058 110.342 105.972 110.009 105.801C109.676 105.628 109.418 105.392 109.234 105.092C109.05 104.79 108.958 104.443 108.958 104.052V100.375H109.802V103.983C109.802 104.236 109.857 104.461 109.968 104.658C110.081 104.854 110.24 105.009 110.446 105.122C110.651 105.233 110.895 105.288 111.177 105.288C111.461 105.288 111.706 105.233 111.911 105.122C112.119 105.009 112.277 104.854 112.386 104.658C112.497 104.461 112.553 104.236 112.553 103.983V100.375Z" fill="white"/>
<path d="M134.096 101.101V100.375H138.423V101.101H136.678V105.965H135.838V101.101H134.096ZM143.994 103.17C143.994 103.767 143.885 104.28 143.667 104.709C143.448 105.137 143.149 105.466 142.769 105.698C142.39 105.927 141.96 106.041 141.477 106.041C140.993 106.041 140.561 105.927 140.181 105.698C139.802 105.466 139.504 105.136 139.286 104.707C139.067 104.277 138.958 103.765 138.958 103.17C138.958 102.573 139.067 102.061 139.286 101.633C139.504 101.204 139.802 100.875 140.181 100.645C140.561 100.414 140.993 100.299 141.477 100.299C141.96 100.299 142.39 100.414 142.769 100.645C143.149 100.875 143.448 101.204 143.667 101.633C143.885 102.061 143.994 102.573 143.994 103.17ZM143.159 103.17C143.159 102.715 143.085 102.332 142.938 102.021C142.792 101.708 142.592 101.471 142.337 101.311C142.084 101.149 141.798 101.068 141.477 101.068C141.155 101.068 140.868 101.149 140.615 101.311C140.362 101.471 140.162 101.708 140.014 102.021C139.869 102.332 139.796 102.715 139.796 103.17C139.796 103.625 139.869 104.009 140.014 104.322C140.162 104.633 140.362 104.87 140.615 105.032C140.868 105.192 141.155 105.272 141.477 105.272C141.798 105.272 142.084 105.192 142.337 105.032C142.592 104.87 142.792 104.633 142.938 104.322C143.085 104.009 143.159 103.625 143.159 103.17ZM146.855 105.965H145.046V100.375H146.913C147.46 100.375 147.931 100.487 148.324 100.711C148.717 100.933 149.018 101.252 149.227 101.669C149.438 102.084 149.544 102.581 149.544 103.162C149.544 103.744 149.437 104.245 149.224 104.663C149.013 105.082 148.708 105.404 148.307 105.629C147.907 105.853 147.423 105.965 146.855 105.965ZM145.889 105.228H146.809C147.235 105.228 147.589 105.148 147.871 104.988C148.153 104.826 148.364 104.592 148.504 104.286C148.644 103.979 148.714 103.604 148.714 103.162C148.714 102.723 148.644 102.351 148.504 102.045C148.366 101.74 148.159 101.508 147.884 101.349C147.609 101.191 147.268 101.112 146.861 101.112H145.889V105.228ZM150.787 105.965H149.892L151.903 100.375H152.878L154.889 105.965H153.994L152.414 101.39H152.37L150.787 105.965ZM150.937 103.776H153.841V104.486H150.937V103.776ZM154.695 100.375H155.653L157.113 102.916H157.173L158.634 100.375H159.592L157.564 103.771V105.965H156.723V103.771L154.695 100.375Z" fill="white"/>
<path fill-rule="evenodd" clip-rule="evenodd" d="M29.9941 64.377C29.9941 63.528 30.6824 62.8397 31.5314 62.8397C32.3804 62.8397 33.0686 63.528 33.0686 64.377V90.5102C33.0686 91.3591 32.3804 92.0474 31.5314 92.0474C30.6824 92.0474 29.9941 91.3591 29.9941 90.5101V64.377ZM36.1432 70.5259C36.1432 69.6769 36.8315 68.9887 37.6805 68.9887C38.5295 68.9887 39.2177 69.6769 39.2177 70.5259V90.5101C39.2177 91.3591 38.5295 92.0473 37.6805 92.0473C36.8315 92.0473 36.1432 91.3591 36.1432 90.5101V70.5259ZM43.8292 78.2122C42.9802 78.2122 42.292 78.9004 42.292 79.7494V90.5101C42.292 91.3591 42.9802 92.0474 43.8292 92.0474C44.6782 92.0474 45.3665 91.3591 45.3665 90.5101V79.7494C45.3665 78.9004 44.6782 78.2122 43.8292 78.2122ZM48.441 72.0632C48.441 71.2142 49.1292 70.5259 49.9782 70.5259C50.8272 70.5259 51.5155 71.2142 51.5155 72.0632V90.5101C51.5155 91.3591 50.8272 92.0474 49.9782 92.0474C49.1292 92.0474 48.441 91.3591 48.441 90.5101V72.0632ZM56.1275 82.0553C55.2785 82.0553 54.5903 82.7436 54.5903 83.5926V90.5102C54.5903 91.3592 55.2785 92.0474 56.1275 92.0474C56.9765 92.0474 57.6648 91.3592 57.6648 90.5102V83.5926C57.6648 82.7436 56.9765 82.0553 56.1275 82.0553ZM60.7393 87.4357C60.7393 86.5867 61.4275 85.8985 62.2765 85.8985C63.1255 85.8985 63.8138 86.5867 63.8138 87.4357V90.5102C63.8138 91.3592 63.1255 92.0474 62.2765 92.0474C61.4275 92.0474 60.7393 91.3592 60.7393 90.5102V87.4357ZM68.4253 80.5181C67.5763 80.5181 66.888 81.2063 66.888 82.0553V90.5102C66.888 91.3592 67.5763 92.0474 68.4253 92.0474C69.2743 92.0474 69.9625 91.3592 69.9625 90.5102V82.0553C69.9625 81.2063 69.2743 80.5181 68.4253 80.5181ZM73.037 70.5259C73.037 69.6769 73.7253 68.9887 74.5743 68.9887C75.4233 68.9887 76.1115 69.6769 76.1115 70.5259V90.5101C76.1115 91.3591 75.4233 92.0473 74.5743 92.0473C73.7253 92.0473 73.037 91.3591 73.037 90.5101V70.5259ZM80.7233 72.8319C79.8743 72.8319 79.1861 73.5202 79.1861 74.3692V90.5103C79.1861 91.3593 79.8743 92.0475 80.7233 92.0475C81.5723 92.0475 82.2606 91.3593 82.2606 90.5103V74.3692C82.2606 73.5202 81.5723 72.8319 80.7233 72.8319ZM85.3351 85.8984C85.3351 85.0494 86.0233 84.3612 86.8723 84.3612C87.7213 84.3612 88.4096 85.0494 88.4096 85.8984V90.5102C88.4096 91.3592 87.7213 92.0474 86.8723 92.0474C86.0233 92.0474 85.3351 91.3592 85.3351 90.5102V85.8984ZM93.0211 65.1455C92.1721 65.1455 91.4838 65.8338 91.4838 66.6828V90.5101C91.4838 91.3591 92.1721 92.0473 93.0211 92.0473C93.8701 92.0473 94.5583 91.3591 94.5583 90.5101V66.6828C94.5583 65.8338 93.8701 65.1455 93.0211 65.1455ZM97.6331 83.5926C97.6331 82.7436 98.3214 82.0553 99.1704 82.0553C100.019 82.0553 100.708 82.7436 100.708 83.5926V90.5102C100.708 91.3592 100.019 92.0474 99.1704 92.0474C98.3214 92.0474 97.6331 91.3592 97.6331 90.5102V83.5926ZM105.319 85.8985C104.47 85.8985 103.782 86.5867 103.782 87.4357V90.5102C103.782 91.3592 104.47 92.0474 105.319 92.0474C106.168 92.0474 106.857 91.3592 106.857 90.5102V87.4357C106.857 86.5867 106.168 85.8985 105.319 85.8985Z" fill="url(#paint1_linear_644_7657)"/>
<path fill-rule="evenodd" clip-rule="evenodd" d="M103.782 64.377C103.782 63.528 104.47 62.8398 105.319 62.8398C106.168 62.8398 106.857 63.528 106.857 64.377V90.5102C106.857 91.3592 106.168 92.0475 105.319 92.0475C104.47 92.0475 103.782 91.3592 103.782 90.5102V64.377ZM109.931 70.526C109.931 69.677 110.62 68.9887 111.469 68.9887C112.318 68.9887 113.006 69.677 113.006 70.526V90.5102C113.006 91.3592 112.318 92.0474 111.469 92.0474C110.62 92.0474 109.931 91.3592 109.931 90.5102V70.526ZM117.618 78.2122C116.769 78.2122 116.08 78.9005 116.08 79.7495V90.5102C116.08 91.3592 116.769 92.0475 117.618 92.0475C118.467 92.0475 119.155 91.3592 119.155 90.5102V79.7495C119.155 78.9005 118.467 78.2122 117.618 78.2122ZM122.229 72.0632C122.229 71.2142 122.918 70.526 123.767 70.526C124.616 70.526 125.304 71.2142 125.304 72.0632V90.5102C125.304 91.3592 124.616 92.0474 123.767 92.0474C122.918 92.0474 122.229 91.3592 122.229 90.5102V72.0632ZM129.916 82.0554C129.067 82.0554 128.378 82.7436 128.378 83.5926V90.5102C128.378 91.3592 129.067 92.0475 129.916 92.0475C130.765 92.0475 131.453 91.3592 131.453 90.5102V83.5926C131.453 82.7436 130.765 82.0554 129.916 82.0554ZM134.527 87.4358C134.527 86.5868 135.216 85.8985 136.065 85.8985C136.914 85.8985 137.602 86.5868 137.602 87.4358V90.5103C137.602 91.3592 136.914 92.0475 136.065 92.0475C135.216 92.0475 134.527 91.3592 134.527 90.5103V87.4358ZM142.214 80.5181C141.365 80.5181 140.676 81.2064 140.676 82.0554V90.5102C140.676 91.3592 141.365 92.0475 142.214 92.0475C143.063 92.0475 143.751 91.3592 143.751 90.5102V82.0554C143.751 81.2064 143.063 80.5181 142.214 80.5181ZM146.825 70.526C146.825 69.677 147.514 68.9887 148.363 68.9887C149.212 68.9887 149.9 69.677 149.9 70.526V90.5102C149.9 91.3592 149.212 92.0474 148.363 92.0474C147.514 92.0474 146.825 91.3592 146.825 90.5102V70.526ZM154.512 72.832C153.663 72.832 152.974 73.5202 152.974 74.3692V90.5103C152.974 91.3593 153.663 92.0476 154.512 92.0476C155.361 92.0476 156.049 91.3593 156.049 90.5103V74.3692C156.049 73.5202 155.361 72.832 154.512 72.832Z" fill="url(#paint2_linear_644_7657)"/>
<path d="M178.086 43.2422C178.045 42.8804 177.877 42.6002 177.581 42.4015C177.286 42.2002 176.914 42.0996 176.465 42.0996C176.144 42.0996 175.867 42.1505 175.632 42.2524C175.398 42.3518 175.216 42.4894 175.086 42.6651C174.959 42.8384 174.895 43.0358 174.895 43.2574C174.895 43.4434 174.938 43.6039 175.025 43.7389C175.114 43.8739 175.23 43.9873 175.373 44.079C175.518 44.1682 175.673 44.2433 175.839 44.3045C176.004 44.3631 176.164 44.4115 176.316 44.4497L177.081 44.6484C177.33 44.7095 177.586 44.7923 177.849 44.8968C178.111 45.0012 178.354 45.1388 178.579 45.3095C178.803 45.4801 178.984 45.6916 179.121 45.9438C179.261 46.196 179.331 46.4979 179.331 46.8494C179.331 47.2927 179.217 47.6863 178.987 48.0302C178.761 48.3741 178.431 48.6454 177.998 48.8441C177.567 49.0429 177.046 49.1422 176.435 49.1422C175.849 49.1422 175.342 49.0492 174.914 48.8633C174.486 48.6773 174.151 48.4136 173.909 48.0722C173.667 47.7283 173.533 47.3207 173.508 46.8494H174.692C174.715 47.1322 174.807 47.3679 174.968 47.5564C175.131 47.7423 175.338 47.8812 175.59 47.9729C175.845 48.0621 176.124 48.1066 176.427 48.1066C176.761 48.1066 177.058 48.0544 177.318 47.95C177.58 47.843 177.786 47.6952 177.937 47.5067C178.087 47.3156 178.162 47.0927 178.162 46.838C178.162 46.6062 178.096 46.4164 177.963 46.2686C177.833 46.1208 177.656 45.9986 177.432 45.9018C177.211 45.805 176.96 45.7196 176.679 45.6457L175.755 45.3935C175.128 45.2228 174.631 44.9719 174.264 44.6407C173.9 44.3096 173.718 43.8714 173.718 43.3262C173.718 42.8753 173.84 42.4817 174.085 42.1454C174.329 41.8092 174.661 41.5481 175.078 41.3621C175.496 41.1736 175.967 41.0793 176.492 41.0793C177.022 41.0793 177.49 41.1723 177.895 41.3583C178.302 41.5442 178.623 41.8003 178.858 42.1263C179.092 42.4499 179.214 42.8218 179.224 43.2422H178.086ZM180.742 49.0123V41.1863H185.595V42.2028H181.923V44.5872H185.248V45.5999H181.923V49.0123H180.742ZM187.048 49.0123V41.1863H189.837C190.443 41.1863 190.947 41.2908 191.346 41.4996C191.749 41.7085 192.05 41.9977 192.248 42.3671C192.447 42.7339 192.546 43.1581 192.546 43.6396C192.546 44.1185 192.446 44.5401 192.244 44.9044C192.046 45.2662 191.745 45.5477 191.343 45.7489C190.943 45.9502 190.44 46.0508 189.833 46.0508H187.72V45.0343H189.726C190.108 45.0343 190.419 44.9796 190.659 44.87C190.901 44.7605 191.078 44.6013 191.19 44.3924C191.302 44.1835 191.358 43.9325 191.358 43.6396C191.358 43.3441 191.301 43.088 191.186 42.8715C191.074 42.6549 190.897 42.4894 190.655 42.3747C190.415 42.2575 190.101 42.1989 189.711 42.1989H188.228V49.0123H187.048ZM190.911 45.4814L192.844 49.0123H191.499L189.604 45.4814H190.911Z" fill="white"/>
<path d="M174.783 57.3182L178.188 62.6566H178.266L181.671 57.3182H182.998L179.04 63.4672L182.998 69.6162H181.671L178.266 64.3379H178.188L174.783 69.6162H173.456L177.473 63.4672L173.456 57.3182H174.783ZM185.319 57.3182L188.723 62.6566H188.801L192.206 57.3182H193.533L189.576 63.4672L193.533 69.6162H192.206L188.801 64.3379H188.723L185.319 69.6162H183.991L188.009 63.4672L183.991 57.3182H185.319ZM196.292 69.7063C196.056 69.7063 195.852 69.6222 195.68 69.4541C195.512 69.2819 195.428 69.0778 195.428 68.8416C195.428 68.6014 195.512 68.3972 195.68 68.2291C195.852 68.0609 196.056 67.9769 196.292 67.9769C196.533 67.9769 196.737 68.0609 196.905 68.2291C197.073 68.3972 197.157 68.6014 197.157 68.8416C197.157 68.9977 197.117 69.1418 197.037 69.2739C196.961 69.406 196.857 69.5121 196.725 69.5922C196.597 69.6682 196.453 69.7063 196.292 69.7063ZM200.395 57.3182L203.8 62.6566H203.878L207.283 57.3182H208.61L204.653 63.4672L208.61 69.6162H207.283L203.878 64.3379H203.8L200.395 69.6162H199.068L203.085 63.4672L199.068 57.3182H200.395ZM210.931 57.3182L214.336 62.6566H214.414L217.818 57.3182H219.145L215.188 63.4672L219.145 69.6162H217.818L214.414 64.3379H214.336L210.931 69.6162H209.604L213.621 63.4672L209.604 57.3182H210.931ZM226.222 57.3182L229.627 62.6566H229.705L233.11 57.3182H234.437L230.48 63.4672L234.437 69.6162H233.11L229.705 64.3379H229.627L226.222 69.6162H224.895L228.912 63.4672L224.895 57.3182H226.222Z" fill="white"/>
<path d="M178.122 100.361V112.659H176.999V101.538H176.927L174.044 103.454V102.289L176.951 100.361H178.122ZM181.562 110.017V109.104L187.045 100.361H187.717V101.892H187.219L182.818 108.93V109.008H190.005V110.017H181.562ZM187.303 112.659V109.729V109.308V100.361H188.372V112.659H187.303ZM196.039 112.827C195.354 112.827 194.742 112.689 194.201 112.413C193.665 112.133 193.236 111.748 192.916 111.26C192.6 110.772 192.432 110.213 192.412 109.585H193.499C193.535 110.237 193.791 110.774 194.267 111.194C194.744 111.61 195.334 111.818 196.039 111.818C196.587 111.818 197.076 111.688 197.504 111.428C197.932 111.164 198.267 110.804 198.507 110.347C198.751 109.887 198.873 109.369 198.873 108.792C198.869 108.192 198.739 107.663 198.483 107.207C198.227 106.746 197.878 106.386 197.438 106.126C197.002 105.866 196.511 105.736 195.967 105.736C195.554 105.732 195.15 105.8 194.754 105.94C194.357 106.08 194.027 106.26 193.763 106.48L192.64 106.336L193.379 100.361H199.456V101.37H194.321L193.829 105.483H193.889C194.161 105.255 194.491 105.069 194.88 104.925C195.272 104.781 195.686 104.709 196.123 104.709C196.847 104.709 197.498 104.883 198.074 105.231C198.655 105.579 199.113 106.06 199.449 106.672C199.79 107.281 199.96 107.981 199.96 108.774C199.96 109.551 199.79 110.245 199.449 110.858C199.113 111.466 198.649 111.947 198.056 112.299C197.468 112.651 196.795 112.827 196.039 112.827ZM202.515 112.659V111.837L206.532 107.321C207.057 106.728 207.479 106.222 207.799 105.802C208.12 105.381 208.352 104.993 208.496 104.637C208.644 104.28 208.718 103.91 208.718 103.526C208.718 103.057 208.608 102.649 208.388 102.301C208.172 101.948 207.873 101.674 207.493 101.478C207.113 101.282 206.684 101.184 206.208 101.184C205.704 101.184 205.261 101.292 204.881 101.508C204.505 101.724 204.212 102.021 204.004 102.397C203.796 102.773 203.692 103.206 203.692 103.694H202.617C202.617 103.013 202.773 102.411 203.085 101.886C203.402 101.358 203.832 100.944 204.376 100.643C204.925 100.343 205.545 100.193 206.238 100.193C206.923 100.193 207.531 100.341 208.063 100.637C208.596 100.93 209.014 101.328 209.318 101.832C209.623 102.337 209.775 102.901 209.775 103.526C209.775 103.978 209.695 104.416 209.535 104.841C209.379 105.265 209.108 105.738 208.724 106.258C208.34 106.778 207.807 107.415 207.127 108.168L204.076 111.572V111.65H210.159V112.659H202.515ZM215.686 110.601L215.679 109.774H215.821L218.375 107.209H219.174L216.651 109.735L216.594 109.746L215.686 110.601ZM215.111 112.659V105.392H215.742V112.659H215.111ZM218.507 112.659L216.292 109.86L216.747 109.423L219.316 112.659H218.507ZM222.216 114.817C221.844 114.817 221.519 114.768 221.24 114.671C220.961 114.576 220.725 114.446 220.534 114.281C220.342 114.115 220.193 113.929 220.087 113.724L220.605 113.383C220.683 113.52 220.787 113.655 220.917 113.788C221.049 113.92 221.221 114.03 221.431 114.118C221.644 114.205 221.906 114.249 222.216 114.249C222.698 114.249 223.087 114.128 223.383 113.887C223.681 113.646 223.83 113.271 223.83 112.762V111.534H223.773C223.7 111.7 223.595 111.866 223.457 112.031C223.32 112.194 223.14 112.33 222.918 112.439C222.698 112.548 222.425 112.602 222.098 112.602C221.663 112.602 221.276 112.495 220.938 112.28C220.602 112.064 220.337 111.757 220.143 111.357C219.952 110.955 219.856 110.476 219.856 109.92C219.856 109.369 219.949 108.884 220.136 108.465C220.325 108.046 220.589 107.72 220.927 107.486C221.266 107.252 221.66 107.134 222.109 107.134C222.443 107.134 222.719 107.194 222.939 107.312C223.159 107.428 223.336 107.572 223.468 107.745C223.603 107.917 223.708 108.085 223.784 108.249H223.848V107.209H224.465V112.801C224.465 113.262 224.367 113.642 224.171 113.94C223.974 114.238 223.707 114.458 223.369 114.6C223.03 114.744 222.646 114.817 222.216 114.817ZM222.173 112.024C222.523 112.024 222.822 111.94 223.071 111.772C223.319 111.602 223.509 111.358 223.642 111.041C223.774 110.724 223.841 110.347 223.841 109.909C223.841 109.483 223.776 109.106 223.645 108.777C223.515 108.446 223.326 108.186 223.078 107.997C222.832 107.805 222.53 107.709 222.173 107.709C221.809 107.709 221.501 107.807 221.25 108.004C221 108.2 220.81 108.465 220.683 108.799C220.555 109.13 220.491 109.5 220.491 109.909C220.491 110.326 220.556 110.693 220.686 111.013C220.816 111.33 221.007 111.578 221.257 111.758C221.508 111.935 221.813 112.024 222.173 112.024Z" fill="white"/>
<path d="M173.817 92.0553V84.2293H178.67V85.2457H174.998V87.6302H178.323V88.6428H174.998V92.0553H173.817ZM182.13 92.1737C181.551 92.1737 181.053 92.0502 180.635 91.803C180.22 91.5534 179.899 91.2031 179.672 90.7522C179.448 90.2987 179.336 89.7676 179.336 89.1587C179.336 88.5575 179.448 88.0276 179.672 87.5691C179.899 87.1105 180.215 86.7526 180.62 86.4953C181.028 86.238 181.504 86.1093 182.049 86.1093C182.38 86.1093 182.701 86.1641 183.012 86.2737C183.323 86.3832 183.602 86.5552 183.849 86.7895C184.096 87.0239 184.291 87.3283 184.434 87.7028C184.576 88.0748 184.648 88.5269 184.648 89.0594V89.4644H179.982V88.6085H183.528C183.528 88.3079 183.467 88.0416 183.345 87.8098C183.222 87.5754 183.05 87.3907 182.829 87.2557C182.61 87.1207 182.352 87.0532 182.057 87.0532C181.736 87.0532 181.456 87.1322 181.216 87.2901C180.979 87.4455 180.796 87.6493 180.666 87.9015C180.539 88.1512 180.475 88.4225 180.475 88.7155V89.3842C180.475 89.7765 180.544 90.1102 180.681 90.3854C180.821 90.6605 181.016 90.8707 181.266 91.0159C181.516 91.1585 181.807 91.2299 182.141 91.2299C182.358 91.2299 182.555 91.1993 182.733 91.1381C182.912 91.0745 183.066 90.9802 183.196 90.8554C183.326 90.7305 183.425 90.5764 183.494 90.393L184.575 90.5879C184.489 90.9063 184.333 91.1853 184.109 91.4247C183.887 91.6617 183.608 91.8464 183.272 91.9788C182.938 92.1087 182.558 92.1737 182.13 92.1737ZM188.445 92.1737C187.867 92.1737 187.369 92.0502 186.951 91.803C186.536 91.5534 186.215 91.2031 185.988 90.7522C185.764 90.2987 185.652 89.7676 185.652 89.1587C185.652 88.5575 185.764 88.0276 185.988 87.5691C186.215 87.1105 186.531 86.7526 186.936 86.4953C187.343 86.238 187.82 86.1093 188.365 86.1093C188.696 86.1093 189.017 86.1641 189.328 86.2737C189.639 86.3832 189.918 86.5552 190.165 86.7895C190.412 87.0239 190.607 87.3283 190.749 87.7028C190.892 88.0748 190.963 88.5269 190.963 89.0594V89.4644H186.298V88.6085H189.844C189.844 88.3079 189.783 88.0416 189.66 87.8098C189.538 87.5754 189.366 87.3907 189.144 87.2557C188.925 87.1207 188.668 87.0532 188.373 87.0532C188.052 87.0532 187.771 87.1322 187.532 87.2901C187.295 87.4455 187.112 87.6493 186.982 87.9015C186.854 88.1512 186.791 88.4225 186.791 88.7155V89.3842C186.791 89.7765 186.859 90.1102 186.997 90.3854C187.137 90.6605 187.332 90.8707 187.582 91.0159C187.831 91.1585 188.123 91.2299 188.457 91.2299C188.673 91.2299 188.871 91.1993 189.049 91.1381C189.227 91.0745 189.381 90.9802 189.511 90.8554C189.641 90.7305 189.741 90.5764 189.809 90.393L190.891 90.5879C190.804 90.9063 190.649 91.1853 190.425 91.4247C190.203 91.6617 189.924 91.8464 189.588 91.9788C189.254 92.1087 188.873 92.1737 188.445 92.1737ZM194.428 92.1699C193.954 92.1699 193.532 92.0489 193.16 91.8069C192.79 91.5623 192.5 91.2146 192.288 90.7637C192.08 90.3102 191.975 89.7663 191.975 89.132C191.975 88.4976 192.081 87.955 192.292 87.5041C192.506 87.0532 192.799 86.708 193.171 86.4685C193.543 86.2291 193.965 86.1093 194.436 86.1093C194.8 86.1093 195.093 86.1705 195.315 86.2928C195.539 86.4125 195.712 86.5526 195.835 86.7131C195.959 86.8736 196.056 87.015 196.125 87.1373H196.194V84.2293H197.336V92.0553H196.221V91.142H196.125C196.056 91.2668 195.957 91.4095 195.827 91.5699C195.7 91.7304 195.524 91.8706 195.3 91.9903C195.075 92.11 194.785 92.1699 194.428 92.1699ZM194.681 91.1955C195.009 91.1955 195.287 91.1088 195.514 90.9356C195.743 90.7598 195.916 90.5166 196.033 90.2058C196.153 89.895 196.213 89.5332 196.213 89.1205C196.213 88.7129 196.154 88.3563 196.037 88.0506C195.92 87.7448 195.748 87.5067 195.521 87.336C195.294 87.1653 195.014 87.0799 194.681 87.0799C194.337 87.0799 194.05 87.1691 193.821 87.3474C193.591 87.5258 193.418 87.7691 193.301 88.0773C193.186 88.3855 193.129 88.7333 193.129 89.1205C193.129 89.5128 193.188 89.8657 193.305 90.179C193.422 90.4923 193.595 90.7407 193.825 90.9242C194.056 91.105 194.342 91.1955 194.681 91.1955ZM198.967 92.0553V86.1858H200.11V92.0553H198.967ZM199.544 85.2801C199.345 85.2801 199.175 85.2139 199.032 85.0814C198.892 84.9464 198.822 84.7859 198.822 84.5999C198.822 84.4114 198.892 84.2509 199.032 84.1185C199.175 83.9834 199.345 83.9159 199.544 83.9159C199.743 83.9159 199.912 83.9834 200.052 84.1185C200.195 84.2509 200.266 84.4114 200.266 84.5999C200.266 84.7859 200.195 84.9464 200.052 85.0814C199.912 85.2139 199.743 85.2801 199.544 85.2801ZM202.789 88.5702V92.0553H201.647V86.1858H202.743V87.1411H202.816C202.951 86.8303 203.163 86.5806 203.45 86.3921C203.741 86.2036 204.106 86.1093 204.547 86.1093C204.947 86.1093 205.297 86.1934 205.598 86.3615C205.899 86.5271 206.132 86.7742 206.297 87.1029C206.463 87.4315 206.546 87.8378 206.546 88.3219V92.0553H205.403V88.4594C205.403 88.034 205.292 87.7015 205.071 87.4621C204.849 87.2201 204.545 87.0991 204.157 87.0991C203.892 87.0991 203.657 87.1564 203.45 87.271C203.247 87.3856 203.085 87.5538 202.965 87.7754C202.848 87.9945 202.789 88.2594 202.789 88.5702ZM210.539 94.3786C210.073 94.3786 209.671 94.3174 209.335 94.1952C209.001 94.0729 208.729 93.9111 208.517 93.7099C208.306 93.5086 208.148 93.2883 208.044 93.0488L209.026 92.6437C209.094 92.7558 209.186 92.8743 209.301 92.9991C209.418 93.1265 209.576 93.2348 209.775 93.3239C209.976 93.4131 210.234 93.4577 210.55 93.4577C210.983 93.4577 211.341 93.3519 211.624 93.1405C211.907 92.9316 212.048 92.5979 212.048 92.1393V90.9853H211.976C211.907 91.1101 211.808 91.249 211.678 91.4018C211.55 91.5547 211.374 91.6871 211.15 91.7992C210.926 91.9113 210.634 91.9674 210.275 91.9674C209.812 91.9674 209.394 91.8591 209.022 91.6426C208.652 91.4235 208.359 91.1012 208.143 90.6758C207.929 90.2478 207.822 89.7217 207.822 89.0976C207.822 88.4734 207.928 87.9385 208.139 87.4926C208.353 87.0468 208.646 86.7055 209.018 86.4685C209.39 86.2291 209.812 86.1093 210.283 86.1093C210.647 86.1093 210.941 86.1705 211.166 86.2928C211.39 86.4125 211.564 86.5526 211.689 86.7131C211.816 86.8736 211.915 87.015 211.983 87.1373H212.067V86.1858H213.187V92.1852C213.187 92.6896 213.07 93.1036 212.835 93.4271C212.601 93.7506 212.284 93.9901 211.884 94.1455C211.487 94.3009 211.038 94.3786 210.539 94.3786ZM210.527 91.0197C210.856 91.0197 211.134 90.9433 211.36 90.7904C211.59 90.635 211.763 90.4134 211.88 90.1255C212 89.8351 212.06 89.4874 212.06 89.0823C212.06 88.6874 212.001 88.3397 211.884 88.0391C211.767 87.7385 211.595 87.5041 211.368 87.336C211.141 87.1653 210.861 87.0799 210.527 87.0799C210.183 87.0799 209.897 87.1691 209.668 87.3474C209.438 87.5232 209.265 87.7627 209.148 88.0658C209.033 88.369 208.976 88.7078 208.976 89.0823C208.976 89.467 209.035 89.8045 209.152 90.0949C209.269 90.3854 209.442 90.6121 209.671 90.7751C209.903 90.9382 210.189 91.0197 210.527 91.0197ZM219.275 92.1852C218.903 92.1852 218.567 92.1164 218.266 91.9788C217.966 91.8387 217.728 91.6362 217.552 91.3712C217.379 91.1063 217.292 90.7815 217.292 90.3968C217.292 90.0656 217.356 89.7931 217.483 89.5791C217.61 89.3651 217.782 89.1957 217.999 89.0708C218.215 88.946 218.457 88.8517 218.725 88.7881C218.992 88.7244 219.265 88.676 219.543 88.6428C219.894 88.6021 220.18 88.569 220.399 88.5435C220.618 88.5155 220.777 88.4709 220.876 88.4098C220.976 88.3486 221.025 88.2493 221.025 88.1117V88.0849C221.025 87.7512 220.931 87.4926 220.743 87.3092C220.557 87.1258 220.279 87.0341 219.91 87.0341C219.525 87.0341 219.222 87.1194 219 87.2901C218.781 87.4583 218.629 87.6455 218.545 87.8518L217.472 87.6073C217.599 87.2506 217.785 86.9628 218.03 86.7437C218.277 86.522 218.561 86.3615 218.882 86.2622C219.203 86.1603 219.54 86.1093 219.894 86.1093C220.129 86.1093 220.377 86.1374 220.639 86.1934C220.904 86.2469 221.151 86.3463 221.381 86.4915C221.613 86.6367 221.802 86.8443 221.95 87.1143C222.098 87.3818 222.172 87.7296 222.172 88.1575V92.0553H221.056V91.2528H221.01C220.936 91.4005 220.825 91.5457 220.678 91.6884C220.53 91.8311 220.34 91.9495 220.108 92.0438C219.876 92.138 219.599 92.1852 219.275 92.1852ZM219.524 91.2681C219.84 91.2681 220.11 91.2057 220.334 91.0808C220.56 90.956 220.732 90.793 220.85 90.5917C220.969 90.3879 221.029 90.1701 221.029 89.9383V89.1816C220.988 89.2224 220.909 89.2606 220.792 89.2963C220.678 89.3294 220.546 89.3587 220.399 89.3842C220.251 89.4071 220.107 89.4288 219.967 89.4491C219.827 89.467 219.71 89.4823 219.615 89.495C219.394 89.523 219.191 89.5701 219.008 89.6364C218.827 89.7026 218.682 89.7981 218.572 89.923C218.465 90.0453 218.412 90.2083 218.412 90.4121C218.412 90.6949 218.516 90.9089 218.725 91.0541C218.934 91.1967 219.2 91.2681 219.524 91.2681ZM223.694 92.0553V86.1858H224.79V87.1411H224.863C224.985 86.8176 225.185 86.5653 225.463 86.3845C225.741 86.2011 226.073 86.1093 226.46 86.1093C226.853 86.1093 227.181 86.2011 227.446 86.3845C227.714 86.5679 227.911 86.8201 228.038 87.1411H228.1C228.24 86.8277 228.463 86.5781 228.768 86.3921C229.074 86.2036 229.438 86.1093 229.861 86.1093C230.394 86.1093 230.828 86.2762 231.164 86.6099C231.503 86.9437 231.672 87.4468 231.672 88.1193V92.0553H230.53V88.2263C230.53 87.8289 230.422 87.541 230.205 87.3627C229.989 87.1844 229.73 87.0952 229.429 87.0952C229.057 87.0952 228.768 87.2099 228.562 87.4391C228.356 87.6659 228.252 87.9576 228.252 88.3142V92.0553H227.114V88.1537C227.114 87.8353 227.014 87.5793 226.816 87.3856C226.617 87.192 226.358 87.0952 226.04 87.0952C225.823 87.0952 225.623 87.1526 225.44 87.2672C225.259 87.3793 225.113 87.536 225 87.7372C224.891 87.9385 224.836 88.1716 224.836 88.4365V92.0553H223.694ZM235.676 92.1737C235.126 92.1737 234.646 92.0476 234.236 91.7954C233.825 91.5432 233.507 91.1904 233.28 90.7369C233.054 90.2835 232.94 89.7536 232.94 89.1473C232.94 88.5384 233.054 88.006 233.28 87.55C233.507 87.094 233.825 86.7399 234.236 86.4876C234.646 86.2354 235.126 86.1093 235.676 86.1093C236.226 86.1093 236.707 86.2354 237.117 86.4876C237.527 86.7399 237.845 87.094 238.072 87.55C238.299 88.006 238.412 88.5384 238.412 89.1473C238.412 89.7536 238.299 90.2835 238.072 90.7369C237.845 91.1904 237.527 91.5432 237.117 91.7954C236.707 92.0476 236.226 92.1737 235.676 92.1737ZM235.68 91.2146C236.037 91.2146 236.332 91.1203 236.567 90.9318C236.801 90.7433 236.974 90.4923 237.086 90.179C237.201 89.8657 237.258 89.5205 237.258 89.1434C237.258 88.769 237.201 88.425 237.086 88.1117C236.974 87.7958 236.801 87.5423 236.567 87.3513C236.332 87.1602 236.037 87.0647 235.68 87.0647C235.321 87.0647 235.023 87.1602 234.786 87.3513C234.551 87.5423 234.377 87.7958 234.262 88.1117C234.15 88.425 234.094 88.769 234.094 89.1434C234.094 89.5205 234.15 89.8657 234.262 90.179C234.377 90.4923 234.551 90.7433 234.786 90.9318C235.023 91.1203 235.321 91.2146 235.68 91.2146ZM243.406 89.6211V86.1858H244.552V92.0553H243.429V91.0388H243.367C243.232 91.3521 243.016 91.6133 242.718 91.8222C242.422 92.0285 242.054 92.1317 241.613 92.1317C241.236 92.1317 240.903 92.0489 240.612 91.8833C240.324 91.7152 240.098 91.4668 239.932 91.1381C239.769 90.8095 239.688 90.4032 239.688 89.9192V86.1858H240.83V89.7816C240.83 90.1816 240.941 90.5 241.163 90.7369C241.384 90.9738 241.672 91.0923 242.026 91.0923C242.24 91.0923 242.453 91.0388 242.664 90.9318C242.878 90.8248 243.055 90.663 243.196 90.4465C243.338 90.23 243.408 89.9548 243.406 89.6211ZM247.23 88.5702V92.0553H246.087V86.1858H247.184V87.1411H247.257C247.392 86.8303 247.603 86.5806 247.891 86.3921C248.181 86.2036 248.547 86.1093 248.988 86.1093C249.388 86.1093 249.738 86.1934 250.038 86.3615C250.339 86.5271 250.572 86.7742 250.738 87.1029C250.903 87.4315 250.986 87.8378 250.986 88.3219V92.0553H249.844V88.4594C249.844 88.034 249.733 87.7015 249.511 87.4621C249.289 87.2201 248.985 87.0991 248.598 87.0991C248.333 87.0991 248.097 87.1564 247.891 87.271C247.687 87.3856 247.525 87.5538 247.406 87.7754C247.288 87.9945 247.23 88.2594 247.23 88.5702ZM255.258 86.1858V87.1029H252.052V86.1858H255.258ZM252.912 84.7795H254.055V90.3319C254.055 90.5535 254.088 90.7204 254.154 90.8324C254.22 90.942 254.306 91.0171 254.41 91.0579C254.517 91.0961 254.633 91.1152 254.758 91.1152C254.849 91.1152 254.93 91.1088 254.998 91.0961C255.067 91.0834 255.121 91.0732 255.159 91.0655L255.365 92.0094C255.299 92.0349 255.205 92.0603 255.083 92.0858C254.96 92.1138 254.807 92.1291 254.624 92.1317C254.323 92.1368 254.043 92.0833 253.783 91.9712C253.523 91.8591 253.313 91.6859 253.153 91.4515C252.992 91.2171 252.912 90.9229 252.912 90.5688V84.7795Z" fill="white"/>
<path d="M243.094 64.5995H248.859V64.1068H243.094V64.5995ZM245.979 70.1412C245.184 70.1412 244.438 69.99 243.74 69.6874C243.043 69.3849 242.431 68.9717 241.907 68.4477C241.383 67.9237 240.969 67.3132 240.666 66.6162C240.363 65.9192 240.212 65.1734 240.212 64.3787C240.212 63.5816 240.363 62.8321 240.666 62.1303C240.968 61.4286 241.381 60.8181 241.905 60.299C242.429 59.7799 243.04 59.3689 243.737 59.0661C244.434 58.7633 245.18 58.6119 245.974 58.6119C246.772 58.6119 247.521 58.7632 248.223 59.0657C248.925 59.3682 249.535 59.7788 250.054 60.2974C250.573 60.8161 250.984 61.4259 251.287 62.127C251.59 62.8281 251.741 63.5773 251.741 64.3744C251.741 65.1691 251.59 65.9153 251.287 66.6129C250.985 67.3106 250.574 67.9217 250.056 68.4461C249.537 68.9706 248.927 69.3842 248.226 69.687C247.525 69.9898 246.776 70.1412 245.979 70.1412ZM245.977 69.6485C247.443 69.6485 248.689 69.1359 249.713 68.1107C250.737 67.0854 251.249 65.8407 251.249 64.3766C251.249 62.9099 250.737 61.6646 249.713 60.6406C248.689 59.6166 247.443 59.1046 245.977 59.1046C244.512 59.1046 243.268 59.6166 242.242 60.6406C241.217 61.6646 240.705 62.9099 240.705 64.3766C240.705 65.8407 241.217 67.0854 242.242 68.1107C243.268 69.1359 244.512 69.6485 245.977 69.6485Z" fill="white"/>
<path d="M245.73 110.263H246.235V107.016L247.654 108.435L247.994 108.095L245.989 106.102L243.971 108.095L244.311 108.435L245.73 107.016V110.263ZM245.979 113.953C245.184 113.953 244.438 113.802 243.74 113.499C243.043 113.197 242.431 112.783 241.907 112.259C241.383 111.736 240.969 111.125 240.666 110.428C240.363 109.731 240.212 108.985 240.212 108.19C240.212 107.393 240.363 106.644 240.666 105.942C240.968 105.24 241.381 104.63 241.905 104.111C242.429 103.592 243.04 103.181 243.737 102.878C244.434 102.575 245.18 102.424 245.974 102.424C246.772 102.424 247.521 102.575 248.223 102.877C248.925 103.18 249.535 103.591 250.054 104.109C250.573 104.628 250.984 105.238 251.287 105.939C251.59 106.64 251.741 107.389 251.741 108.186C251.741 108.981 251.59 109.727 251.287 110.425C250.985 111.122 250.574 111.733 250.056 112.258C249.537 112.782 248.927 113.196 248.226 113.499C247.525 113.802 246.776 113.953 245.979 113.953ZM245.977 113.46C247.443 113.46 248.689 112.948 249.713 111.922C250.737 110.897 251.249 109.653 251.249 108.188C251.249 106.722 250.737 105.476 249.713 104.452C248.689 103.428 247.443 102.916 245.977 102.916C244.512 102.916 243.268 103.428 242.242 104.452C241.217 105.476 240.705 106.722 240.705 108.188C240.705 109.653 241.217 110.897 242.242 111.922C243.268 112.948 244.512 113.46 245.977 113.46Z" fill="white"/>
</g>
</g>
<defs>
<filter id="filter0_d_644_7657" x="0.786504" y="0.581287" width="283.622" height="149.881" filterUnits="userSpaceOnUse" color-interpolation-filters="sRGB">
<feFlood flood-opacity="0" result="BackgroundImageFix"/>
<feColorMatrix in="SourceAlpha" type="matrix" values="0 0 0 0 0 0 0 0 0 0 0 0 0 0 0 0 0 0 127 0" result="hardAlpha"/>
<feOffset dx="3.07449" dy="7.68623"/>
<feGaussianBlur stdDeviation="7.68623"/>
<feComposite in2="hardAlpha" operator="out"/>
<feColorMatrix type="matrix" values="0 0 0 0 0 0 0 0 0 0 0 0 0 0 0 0 0 0 0.1 0"/>
<feBlend mode="normal" in2="BackgroundImageFix" result="effect1_dropShadow_644_7657"/>
<feBlend mode="normal" in="SourceGraphic" in2="effect1_dropShadow_644_7657" result="shape"/>
</filter>
<linearGradient id="paint0_linear_644_7657" x1="139.523" y1="8.26752" x2="139.523" y2="127.404" gradientUnits="userSpaceOnUse">
<stop stop-color="#00274D"/>
<stop offset="1" stop-color="#001223"/>
</linearGradient>
<linearGradient id="paint1_linear_644_7657" x1="84.6622" y1="81.671" x2="84.6622" y2="92.0474" gradientUnits="userSpaceOnUse">
<stop stop-color="#EDF589"/>
<stop offset="1" stop-color="#E9C33B"/>
</linearGradient>
<linearGradient id="paint2_linear_644_7657" x1="140.957" y1="81.671" x2="140.957" y2="92.0475" gradientUnits="userSpaceOnUse">
<stop stop-color="#EDF589"/>
<stop offset="1" stop-color="#E9C33B"/>
</linearGradient>
<clipPath id="clip0_644_7657">
<rect x="13.0845" y="8.26752" width="252.877" height="119.137" rx="16.6561" fill="white"/>
</clipPath>
</defs>
</svg>
