<svg width="117" height="49" viewBox="0 0 117 49" fill="none" xmlns="http://www.w3.org/2000/svg">
<path fill-rule="evenodd" clip-rule="evenodd" d="M70.8059 48.1256C57.2798 48.1256 45.5136 44.9004 37.4512 39.8859C34.7469 42.1977 31.3252 44.3627 27.3535 46.1673C15.2805 51.653 0.325407 46.512 0.436109 44.9697C-0.393488 44.344 4.06056 32.3343 13.6801 25.8969C4.05543 19.8132 -0.91626 8.49836 0.139686 7.63395C0.0106809 6.48143 14.7063 0.365067 26.9881 5.36579C29.8025 6.51173 32.3438 7.87604 34.5587 9.37372C42.549 3.61898 55.5595 -2.68565e-06 70.8059 -2.01921e-06C96.2824 -9.05597e-07 118.354 21.3892 116.935 24.0628C118 26.068 96.2824 48.1256 70.8059 48.1256Z" fill="#00FFEB" fill-opacity="0.8"/>
</svg>
