<svg xmlns="http://www.w3.org/2000/svg" xmlns:xlink="http://www.w3.org/1999/xlink" width="36" height="36" viewBox="0 0 36 36">
    <defs>
        <path id="a" d="M49.422 35.069l-3.98-4.259a2.166 2.166 0 0 1-.476-2.131l1.78-5.603a2.17 2.17 0 0 0-.353-1.987 2.064 2.064 0 0 0-1.816-.794l-5.738.527a2.069 2.069 0 0 1-1.926-.949l-3.174-4.916A2.073 2.073 0 0 0 32 14c-.7 0-1.353.36-1.739.957l-3.173 4.916a2.069 2.069 0 0 1-1.926.949l-5.738-.528a2.064 2.064 0 0 0-1.816.794 2.17 2.17 0 0 0-.353 1.988l1.78 5.603a2.166 2.166 0 0 1-.476 2.131l-3.98 4.259a2.165 2.165 0 0 0-.526 1.947c.156.698.644 1.27 1.3 1.521l5.392 2.07c.718.277 1.23.933 1.333 1.71l.774 5.838c.094.71.53 1.323 1.16 1.634.632.31 1.373.277 1.974-.09l4.945-3.022a2.045 2.045 0 0 1 2.138 0l4.945 3.021a2.044 2.044 0 0 0 1.973.09 2.129 2.129 0 0 0 1.16-1.633l.775-5.838a2.123 2.123 0 0 1 1.335-1.71l5.393-2.07a2.117 2.117 0 0 0 1.299-1.521 2.165 2.165 0 0 0-.526-1.947zm-21.128-8.482c.877 0 1.588.727 1.588 1.624 0 .897-.71 1.625-1.588 1.625-.877 0-1.588-.728-1.588-1.625s.71-1.624 1.588-1.624zm8.47 12.994c-.876 0-1.587-.727-1.587-1.624 0-.897.71-1.624 1.588-1.624.877 0 1.588.727 1.588 1.624 0 .897-.711 1.624-1.588 1.624zm3.106-10.787L26.511 39.719a1.043 1.043 0 0 1-1.488-.17 1.1 1.1 0 0 1 .166-1.522l13.359-10.925a1.043 1.043 0 0 1 1.488.17 1.1 1.1 0 0 1-.166 1.522z"/>
    </defs>
    <g fill="none" fill-rule="evenodd" transform="translate(-14 -14)">
        <path fill="none" d="M0 0h64v64H0z"/>
        <use fill="#1F8226" fill-rule="nonzero" xlink:href="#a"/>
    </g>
</svg>
