<svg width="491" height="183" viewBox="0 0 491 183" fill="none" xmlns="http://www.w3.org/2000/svg">
<path d="M70.0791 107.659L70.012 108.064L69.6012 108.077C31.3281 109.251 0.751678 142.052 0.501556 182.5H490.498C490.238 141.485 457.993 108.073 417.481 107.451C408.506 107.455 399.616 109.242 391.301 112.715L390.916 112.876L390.689 112.526C374.494 87.5308 347.147 70.6648 315.917 70.6627C311.62 70.7615 307.333 71.1491 303.085 71.8231L302.716 71.8816L302.556 71.5446C292.397 50.2589 276.647 32.324 257.089 19.7689C237.531 7.21391 214.947 0.539549 191.892 0.5C130.989 0.500214 80.1102 47.0702 70.0791 107.659Z" stroke="#7D8FFF"/>
</svg>
