<svg width="284" height="204" viewBox="0 0 284 204" fill="none" xmlns="http://www.w3.org/2000/svg">
<g filter="url(#filter0_d_426_3097)">
<rect x="4" y="0.787598" width="276" height="195" rx="8" fill="#E993B7" fill-opacity="0.2"/>
<rect x="4" y="0.787598" width="276" height="195" rx="8" fill="white"/>
</g>
<path d="M92.0971 20.616C92.0971 21.7233 91.8841 22.649 91.4583 23.3932C91.0369 24.1329 90.4249 24.691 89.6225 25.0676C88.82 25.4397 87.8539 25.6257 86.7242 25.6257H83.9403V15.7946H87.0268C88.0579 15.7946 88.9523 15.9784 89.7099 16.346C90.4675 16.7091 91.0548 17.2493 91.4717 17.9666C91.8886 18.6794 92.0971 19.5625 92.0971 20.616ZM89.9318 20.6698C89.9318 19.9436 89.8242 19.3473 89.609 18.8811C89.3983 18.4104 89.0845 18.0629 88.6676 17.8388C88.2552 17.6146 87.7441 17.5026 87.1344 17.5026H86.0249V23.9043H86.9192C87.9369 23.9043 88.6923 23.633 89.1854 23.0906C89.683 22.5482 89.9318 21.7412 89.9318 20.6698ZM97.053 17.9531C98.0617 17.9531 98.835 18.1728 99.373 18.6121C99.9109 19.0514 100.18 19.7194 100.18 20.616V25.6257H98.7476L98.3508 24.6036H98.297C98.0819 24.8726 97.8622 25.0923 97.638 25.2626C97.4139 25.433 97.1561 25.5585 96.8647 25.6392C96.5733 25.7199 96.2192 25.7602 95.8023 25.7602C95.3584 25.7602 94.9595 25.675 94.6053 25.5047C94.2556 25.3343 93.9799 25.0743 93.7782 24.7247C93.5765 24.3705 93.4756 23.9222 93.4756 23.3798C93.4756 22.5818 93.7558 21.9945 94.3162 21.6179C94.8765 21.2369 95.7171 21.0262 96.8378 20.9858L98.1424 20.9455V20.616C98.1424 20.2215 98.0393 19.9323 97.8331 19.7485C97.6268 19.5647 97.3399 19.4728 96.9723 19.4728C96.6092 19.4728 96.2528 19.5244 95.9031 19.6275C95.5535 19.7306 95.2038 19.8606 94.8541 20.0175L94.1749 18.6323C94.5739 18.4216 95.02 18.2557 95.5131 18.1347C96.0107 18.0136 96.524 17.9531 97.053 17.9531ZM98.1424 22.1425L97.3489 22.1694C96.6854 22.1873 96.2237 22.3061 95.9636 22.5258C95.7081 22.7454 95.5804 23.0346 95.5804 23.3932C95.5804 23.707 95.6723 23.9312 95.8561 24.0657C96.0399 24.1957 96.2797 24.2607 96.5756 24.2607C97.0149 24.2607 97.3848 24.1307 97.6851 23.8706C97.99 23.6106 98.1424 23.2408 98.1424 22.7611V22.1425ZM105.465 24.1262C105.689 24.1262 105.907 24.1038 106.118 24.0589C106.333 24.0141 106.546 23.9581 106.756 23.8908V25.4173C106.537 25.5159 106.263 25.5966 105.936 25.6594C105.613 25.7266 105.259 25.7602 104.874 25.7602C104.425 25.7602 104.022 25.6885 103.663 25.545C103.309 25.3971 103.029 25.1438 102.823 24.7852C102.621 24.4221 102.52 23.9177 102.52 23.2722V19.6477H101.538V18.7802L102.668 18.0943L103.26 16.5073H104.571V18.1078H106.676V19.6477H104.571V23.2722C104.571 23.5591 104.652 23.7743 104.813 23.9177C104.979 24.0567 105.196 24.1262 105.465 24.1262ZM111.363 17.9531C112.371 17.9531 113.145 18.1728 113.683 18.6121C114.221 19.0514 114.49 19.7194 114.49 20.616V25.6257H113.057L112.661 24.6036H112.607C112.392 24.8726 112.172 25.0923 111.948 25.2626C111.724 25.433 111.466 25.5585 111.174 25.6392C110.883 25.7199 110.529 25.7602 110.112 25.7602C109.668 25.7602 109.269 25.675 108.915 25.5047C108.565 25.3343 108.29 25.0743 108.088 24.7247C107.886 24.3705 107.785 23.9222 107.785 23.3798C107.785 22.5818 108.065 21.9945 108.626 21.6179C109.186 21.2369 110.027 21.0262 111.148 20.9858L112.452 20.9455V20.616C112.452 20.2215 112.349 19.9323 112.143 19.7485C111.937 19.5647 111.65 19.4728 111.282 19.4728C110.919 19.4728 110.562 19.5244 110.213 19.6275C109.863 19.7306 109.513 19.8606 109.164 20.0175L108.485 18.6323C108.884 18.4216 109.33 18.2557 109.823 18.1347C110.32 18.0136 110.834 17.9531 111.363 17.9531ZM112.452 22.1425L111.659 22.1694C110.995 22.1873 110.533 22.3061 110.273 22.5258C110.018 22.7454 109.89 23.0346 109.89 23.3932C109.89 23.707 109.982 23.9312 110.166 24.0657C110.35 24.1957 110.589 24.2607 110.885 24.2607C111.325 24.2607 111.694 24.1307 111.995 23.8706C112.3 23.6106 112.452 23.2408 112.452 22.7611V22.1425ZM123.285 17.9666C123.98 17.9666 124.579 18.101 125.081 18.37C125.583 18.6345 125.97 19.0201 126.244 19.5266C126.517 20.0332 126.654 20.6519 126.654 21.3826V22.3778H121.806C121.828 22.9561 122.001 23.4111 122.324 23.7429C122.651 24.0701 123.104 24.2338 123.682 24.2338C124.162 24.2338 124.601 24.1845 125 24.0858C125.399 23.9872 125.809 23.8393 126.231 23.642V25.229C125.858 25.4128 125.468 25.5473 125.06 25.6325C124.657 25.7176 124.166 25.7602 123.588 25.7602C122.835 25.7602 122.167 25.6212 121.584 25.3433C121.006 25.0654 120.551 24.6417 120.219 24.0724C119.892 23.503 119.728 22.7858 119.728 21.9205C119.728 21.0419 119.876 20.3112 120.172 19.7284C120.472 19.1411 120.889 18.7018 121.423 18.4104C121.956 18.1145 122.577 17.9666 123.285 17.9666ZM123.299 19.4258C122.9 19.4258 122.568 19.5535 122.303 19.8091C122.043 20.0646 121.893 20.4658 121.853 21.0127H124.731C124.726 20.7079 124.67 20.4367 124.563 20.1991C124.46 19.9615 124.303 19.7732 124.092 19.6342C123.886 19.4953 123.621 19.4258 123.299 19.4258ZM132.592 17.9666C133.394 17.9666 134.04 18.1862 134.529 18.6256C135.017 19.0604 135.261 19.7597 135.261 20.7236V25.6257H133.211V21.2347C133.211 20.6967 133.112 20.291 132.915 20.0175C132.722 19.7441 132.417 19.6073 132 19.6073C131.372 19.6073 130.944 19.8203 130.716 20.2462C130.487 20.672 130.373 21.2862 130.373 22.0887V25.6257H128.322V18.1078H129.889L130.164 19.0694H130.279C130.44 18.8094 130.64 18.5987 130.877 18.4373C131.119 18.2759 131.386 18.1571 131.677 18.0809C131.973 18.0047 132.278 17.9666 132.592 17.9666ZM140.54 24.1262C140.764 24.1262 140.982 24.1038 141.192 24.0589C141.408 24.0141 141.621 23.9581 141.831 23.8908V25.4173C141.612 25.5159 141.338 25.5966 141.011 25.6594C140.688 25.7266 140.334 25.7602 139.948 25.7602C139.5 25.7602 139.097 25.6885 138.738 25.545C138.384 25.3971 138.104 25.1438 137.897 24.7852C137.696 24.4221 137.595 23.9177 137.595 23.2722V19.6477H136.613V18.7802L137.743 18.0943L138.335 16.5073H139.646V18.1078H141.751V19.6477H139.646V23.2722C139.646 23.5591 139.727 23.7743 139.888 23.9177C140.054 24.0567 140.271 24.1262 140.54 24.1262ZM147.554 17.9666C147.657 17.9666 147.776 17.9733 147.91 17.9867C148.049 17.9957 148.161 18.0091 148.246 18.0271L148.092 19.9503C148.025 19.9279 147.928 19.9122 147.803 19.9032C147.682 19.8898 147.576 19.883 147.487 19.883C147.222 19.883 146.964 19.9167 146.713 19.9839C146.467 20.0511 146.245 20.161 146.048 20.3134C145.85 20.4613 145.693 20.6586 145.577 20.9052C145.465 21.1472 145.409 21.4454 145.409 21.7995V25.6257H143.358V18.1078H144.911L145.214 19.372H145.315C145.462 19.1164 145.646 18.8833 145.866 18.6726C146.09 18.4574 146.343 18.2871 146.626 18.1616C146.913 18.0316 147.222 17.9666 147.554 17.9666ZM148.536 18.1078H150.782L152.2 22.3375C152.245 22.472 152.283 22.6087 152.315 22.7477C152.346 22.8866 152.373 23.0301 152.395 23.178C152.418 23.326 152.436 23.4806 152.449 23.642H152.49C152.516 23.3999 152.552 23.1735 152.597 22.9628C152.646 22.7521 152.707 22.5437 152.779 22.3375L154.171 18.1078H156.37L153.189 26.5873C152.996 27.1074 152.745 27.54 152.436 27.8852C152.126 28.2348 151.77 28.4971 151.367 28.6719C150.968 28.8468 150.528 28.9342 150.049 28.9342C149.815 28.9342 149.614 28.9207 149.443 28.8938C149.273 28.8714 149.127 28.8468 149.006 28.8199V27.1925C149.1 27.2149 149.219 27.2351 149.363 27.2531C149.506 27.271 149.656 27.28 149.813 27.28C150.1 27.28 150.347 27.2194 150.553 27.0984C150.759 26.9774 150.932 26.8137 151.071 26.6075C151.21 26.4058 151.32 26.1839 151.4 25.9418L151.521 25.5719L148.536 18.1078ZM163.081 18.1078V25.6257H161.03V18.1078H163.081ZM162.059 15.1625C162.363 15.1625 162.626 15.2342 162.845 15.3776C163.065 15.5166 163.175 15.7789 163.175 16.1644C163.175 16.5455 163.065 16.8099 162.845 16.9579C162.626 17.1013 162.363 17.1731 162.059 17.1731C161.749 17.1731 161.485 17.1013 161.265 16.9579C161.05 16.8099 160.942 16.5455 160.942 16.1644C160.942 15.7789 161.05 15.5166 161.265 15.3776C161.485 15.2342 161.749 15.1625 162.059 15.1625ZM170.484 23.3932C170.484 23.9043 170.363 24.3369 170.121 24.691C169.884 25.0407 169.527 25.3074 169.052 25.4912C168.577 25.6706 167.985 25.7602 167.277 25.7602C166.752 25.7602 166.302 25.7266 165.925 25.6594C165.553 25.5921 165.176 25.48 164.795 25.3231V23.6286C165.203 23.8124 165.64 23.9648 166.107 24.0858C166.577 24.2024 166.99 24.2607 167.344 24.2607C167.743 24.2607 168.028 24.2024 168.198 24.0858C168.373 23.9648 168.46 23.8079 168.46 23.6151C168.46 23.4896 168.424 23.3775 168.353 23.2789C168.285 23.1758 168.137 23.0615 167.909 22.9359C167.68 22.8059 167.322 22.6378 166.833 22.4316C166.362 22.2344 165.974 22.0349 165.67 21.8331C165.369 21.6314 165.145 21.3938 164.997 21.1203C164.854 20.8424 164.782 20.4905 164.782 20.0646C164.782 19.3697 165.051 18.8475 165.589 18.4978C166.131 18.1436 166.855 17.9666 167.761 17.9666C168.227 17.9666 168.671 18.0136 169.092 18.1078C169.518 18.2019 169.955 18.3521 170.404 18.5583L169.785 20.0377C169.413 19.8763 169.061 19.7441 168.729 19.641C168.402 19.5378 168.068 19.4863 167.727 19.4863C167.427 19.4863 167.2 19.5266 167.048 19.6073C166.896 19.688 166.819 19.8113 166.819 19.9772C166.819 20.0982 166.858 20.2058 166.934 20.2999C167.014 20.3941 167.167 20.4994 167.391 20.616C167.62 20.7281 167.954 20.8738 168.393 21.0531C168.819 21.2279 169.189 21.4117 169.502 21.6045C169.816 21.7928 170.058 22.0281 170.229 22.3106C170.399 22.5885 170.484 22.9494 170.484 23.3932ZM177.33 23.3932C177.33 23.9043 177.209 24.3369 176.967 24.691C176.729 25.0407 176.373 25.3074 175.897 25.4912C175.422 25.6706 174.831 25.7602 174.122 25.7602C173.598 25.7602 173.147 25.7266 172.771 25.6594C172.398 25.5921 172.022 25.48 171.641 25.3231V23.6286C172.049 23.8124 172.486 23.9648 172.952 24.0858C173.423 24.2024 173.835 24.2607 174.189 24.2607C174.588 24.2607 174.873 24.2024 175.043 24.0858C175.218 23.9648 175.306 23.8079 175.306 23.6151C175.306 23.4896 175.27 23.3775 175.198 23.2789C175.131 23.1758 174.983 23.0615 174.754 22.9359C174.526 22.8059 174.167 22.6378 173.678 22.4316C173.208 22.2344 172.82 22.0349 172.515 21.8331C172.215 21.6314 171.991 21.3938 171.843 21.1203C171.699 20.8424 171.627 20.4905 171.627 20.0646C171.627 19.3697 171.896 18.8475 172.434 18.4978C172.977 18.1436 173.701 17.9666 174.606 17.9666C175.073 17.9666 175.516 18.0136 175.938 18.1078C176.364 18.2019 176.801 18.3521 177.249 18.5583L176.63 20.0377C176.258 19.8763 175.906 19.7441 175.575 19.641C175.247 19.5378 174.913 19.4863 174.573 19.4863C174.272 19.4863 174.046 19.5266 173.894 19.6073C173.741 19.688 173.665 19.8113 173.665 19.9772C173.665 20.0982 173.703 20.2058 173.779 20.2999C173.86 20.3941 174.012 20.4994 174.237 20.616C174.465 20.7281 174.799 20.8738 175.238 21.0531C175.664 21.2279 176.034 21.4117 176.348 21.6045C176.662 21.7928 176.904 22.0281 177.074 22.3106C177.245 22.5885 177.33 22.9494 177.33 23.3932ZM185.83 18.1078V25.6257H184.256L183.98 24.6641H183.873C183.711 24.9197 183.51 25.1281 183.267 25.2895C183.025 25.4509 182.759 25.5697 182.467 25.6459C182.176 25.7221 181.873 25.7602 181.559 25.7602C181.022 25.7602 180.553 25.6661 180.154 25.4778C179.755 25.285 179.444 24.9869 179.219 24.5834C179 24.18 178.89 23.6555 178.89 23.0099V18.1078H180.941V22.4989C180.941 23.0368 181.037 23.4425 181.23 23.716C181.423 23.9894 181.73 24.1262 182.151 24.1262C182.568 24.1262 182.895 24.032 183.133 23.8437C183.371 23.651 183.536 23.3708 183.631 23.0032C183.729 22.6311 183.779 22.1783 183.779 21.6448V18.1078H185.83ZM191.081 17.9666C191.776 17.9666 192.375 18.101 192.877 18.37C193.379 18.6345 193.767 19.0201 194.04 19.5266C194.314 20.0332 194.45 20.6519 194.45 21.3826V22.3778H189.602C189.624 22.9561 189.797 23.4111 190.12 23.7429C190.447 24.0701 190.9 24.2338 191.478 24.2338C191.958 24.2338 192.397 24.1845 192.796 24.0858C193.195 23.9872 193.605 23.8393 194.027 23.642V25.229C193.655 25.4128 193.265 25.5473 192.857 25.6325C192.453 25.7176 191.962 25.7602 191.384 25.7602C190.631 25.7602 189.963 25.6212 189.38 25.3433C188.802 25.0654 188.347 24.6417 188.015 24.0724C187.688 23.503 187.524 22.7858 187.524 21.9205C187.524 21.0419 187.672 20.3112 187.968 19.7284C188.268 19.1411 188.685 18.7018 189.219 18.4104C189.752 18.1145 190.373 17.9666 191.081 17.9666ZM191.095 19.4258C190.696 19.4258 190.364 19.5535 190.1 19.8091C189.84 20.0646 189.689 20.4658 189.649 21.0127H192.527C192.523 20.7079 192.467 20.4367 192.359 20.1991C192.256 19.9615 192.099 19.7732 191.888 19.6342C191.682 19.4953 191.418 19.4258 191.095 19.4258ZM201.363 23.3932C201.363 23.9043 201.242 24.3369 201 24.691C200.762 25.0407 200.406 25.3074 199.931 25.4912C199.456 25.6706 198.864 25.7602 198.155 25.7602C197.631 25.7602 197.18 25.7266 196.804 25.6594C196.432 25.5921 196.055 25.48 195.674 25.3231V23.6286C196.082 23.8124 196.519 23.9648 196.985 24.0858C197.456 24.2024 197.869 24.2607 198.223 24.2607C198.622 24.2607 198.906 24.2024 199.077 24.0858C199.252 23.9648 199.339 23.8079 199.339 23.6151C199.339 23.4896 199.303 23.3775 199.231 23.2789C199.164 23.1758 199.016 23.0615 198.788 22.9359C198.559 22.8059 198.2 22.6378 197.712 22.4316C197.241 22.2344 196.853 22.0349 196.548 21.8331C196.248 21.6314 196.024 21.3938 195.876 21.1203C195.732 20.8424 195.661 20.4905 195.661 20.0646C195.661 19.3697 195.93 18.8475 196.468 18.4978C197.01 18.1436 197.734 17.9666 198.64 17.9666C199.106 17.9666 199.55 18.0136 199.971 18.1078C200.397 18.2019 200.834 18.3521 201.282 18.5583L200.664 20.0377C200.292 19.8763 199.94 19.7441 199.608 19.641C199.281 19.5378 198.947 19.4863 198.606 19.4863C198.306 19.4863 198.079 19.5266 197.927 19.6073C197.774 19.688 197.698 19.8113 197.698 19.9772C197.698 20.0982 197.736 20.2058 197.813 20.2999C197.893 20.3941 198.046 20.4994 198.27 20.616C198.498 20.7281 198.832 20.8738 199.272 21.0531C199.698 21.2279 200.067 21.4117 200.381 21.6045C200.695 21.7928 200.937 22.0281 201.108 22.3106C201.278 22.5885 201.363 22.9494 201.363 23.3932Z" fill="#4A4A4A"/>
<rect x="41.5752" y="63.6523" width="43.4649" height="43.4403" fill="#7D8FFF"/>
<rect x="107.979" y="73.3062" width="43.4649" height="43.4403" fill="#801060"/>
<rect x="129.712" y="134.848" width="43.4649" height="43.4403" fill="#E993B7"/>
<rect x="187.665" y="58.8245" width="43.4649" height="43.4403" fill="#4A4A4A"/>
<rect x="45.1968" y="68.481" width="18.0954" height="2.41136" rx="1.20568" fill="white"/>
<rect x="45.1968" y="82.9607" width="35.0134" height="2.41335" rx="1.20667" fill="white"/>
<rect x="191.287" y="74.5137" width="35.0134" height="2.41335" rx="1.20667" fill="white"/>
<rect x="134.542" y="145.708" width="19.3177" height="2.41335" rx="1.20667" fill="white"/>
<rect x="112.809" y="78.134" width="35.0134" height="2.41335" rx="1.20667" fill="white"/>
<rect x="45.1968" y="73.3062" width="32.5987" height="2.41335" rx="1.20667" fill="white"/>
<rect x="45.1968" y="87.7878" width="32.5987" height="2.41335" rx="1.20667" fill="white"/>
<rect x="191.287" y="79.3403" width="32.5987" height="2.41335" rx="1.20667" fill="white"/>
<rect x="134.542" y="150.534" width="18.0954" height="2.41136" rx="1.20568" fill="white"/>
<rect x="112.809" y="82.9607" width="32.5987" height="2.41335" rx="1.20667" fill="white"/>
<rect x="45.1968" y="78.134" width="24.1472" height="2.41335" rx="1.20667" fill="white"/>
<rect x="191.287" y="69.6873" width="24.1472" height="2.41335" rx="1.20667" fill="white"/>
<rect x="134.542" y="140.881" width="13.27" height="2.41136" rx="1.20568" fill="white"/>
<defs>
<filter id="filter0_d_426_3097" x="0" y="0.787598" width="284" height="203" filterUnits="userSpaceOnUse" color-interpolation-filters="sRGB">
<feFlood flood-opacity="0" result="BackgroundImageFix"/>
<feColorMatrix in="SourceAlpha" type="matrix" values="0 0 0 0 0 0 0 0 0 0 0 0 0 0 0 0 0 0 127 0" result="hardAlpha"/>
<feOffset dy="4"/>
<feGaussianBlur stdDeviation="2"/>
<feComposite in2="hardAlpha" operator="out"/>
<feColorMatrix type="matrix" values="0 0 0 0 0 0 0 0 0 0 0 0 0 0 0 0 0 0 0.07 0"/>
<feBlend mode="normal" in2="BackgroundImageFix" result="effect1_dropShadow_426_3097"/>
<feBlend mode="normal" in="SourceGraphic" in2="effect1_dropShadow_426_3097" result="shape"/>
</filter>
</defs>
</svg>
