<svg width="284" height="204" viewBox="0 0 284 204" fill="none" xmlns="http://www.w3.org/2000/svg">
<g filter="url(#filter0_d_426_3120)">
<rect x="4" y="0.787598" width="276" height="195" rx="8" fill="#E993B7" fill-opacity="0.2"/>
<rect x="4" y="0.787598" width="276" height="195" rx="8" fill="white"/>
</g>
<path d="M96.6349 22.9984C96.6349 23.5812 96.4936 24.0877 96.2112 24.5181C95.9288 24.9485 95.5163 25.2802 94.9739 25.5133C94.436 25.7464 93.7814 25.863 93.0104 25.863C92.6697 25.863 92.3357 25.8406 92.0084 25.7958C91.6856 25.7509 91.3741 25.6859 91.0737 25.6008C90.7778 25.5111 90.4954 25.4013 90.2264 25.2713V23.3346C90.6927 23.5408 91.1768 23.7269 91.6789 23.8927C92.181 24.0586 92.6786 24.1415 93.1717 24.1415C93.5125 24.1415 93.7859 24.0967 93.9921 24.0071C94.2028 23.9174 94.3553 23.7941 94.4494 23.6372C94.5435 23.4803 94.5906 23.301 94.5906 23.0992C94.5906 22.8527 94.5077 22.642 94.3418 22.4671C94.1759 22.2923 93.9473 22.1287 93.6559 21.9763C93.369 21.8238 93.044 21.6602 92.6809 21.4854C92.4522 21.3778 92.2034 21.2478 91.9344 21.0954C91.6655 20.9384 91.4099 20.7479 91.1679 20.5238C90.9258 20.2996 90.7263 20.0284 90.5694 19.7101C90.417 19.3873 90.3407 19.0018 90.3407 18.5535C90.3407 17.9662 90.4752 17.4641 90.7442 17.0472C91.0132 16.6303 91.3965 16.312 91.8941 16.0923C92.3962 15.8682 92.9879 15.7561 93.6694 15.7561C94.1804 15.7561 94.6668 15.8166 95.1286 15.9377C95.5948 16.0542 96.0812 16.2246 96.5878 16.4487L95.9153 18.0693C95.4626 17.8855 95.0568 17.7443 94.6982 17.6457C94.3396 17.5426 93.9742 17.491 93.6021 17.491C93.3421 17.491 93.1202 17.5336 92.9364 17.6188C92.7526 17.6995 92.6136 17.8161 92.5195 17.9685C92.4253 18.1164 92.3783 18.289 92.3783 18.4863C92.3783 18.7194 92.4455 18.9166 92.58 19.078C92.719 19.2349 92.9252 19.3873 93.1986 19.5353C93.4766 19.6832 93.8218 19.8558 94.2342 20.0531C94.7363 20.2907 95.1644 20.5395 95.5186 20.7995C95.8772 21.055 96.1529 21.3576 96.3457 21.7073C96.5385 22.0525 96.6349 22.4828 96.6349 22.9984ZM101.355 18.0693C102.05 18.0693 102.649 18.2038 103.151 18.4728C103.653 18.7373 104.041 19.1228 104.314 19.6294C104.588 20.136 104.724 20.7546 104.724 21.4854V22.4806H99.876C99.8985 23.0589 100.071 23.5139 100.394 23.8457C100.721 24.1729 101.174 24.3365 101.752 24.3365C102.232 24.3365 102.671 24.2872 103.07 24.1886C103.469 24.09 103.879 23.942 104.301 23.7448V25.3318C103.929 25.5156 103.539 25.6501 103.131 25.7352C102.727 25.8204 102.236 25.863 101.658 25.863C100.905 25.863 100.237 25.724 99.6541 25.4461C99.0758 25.1681 98.6208 24.7445 98.2891 24.1752C97.9618 23.6058 97.7982 22.8885 97.7982 22.0233C97.7982 21.1447 97.9461 20.4139 98.242 19.8312C98.5424 19.2439 98.9593 18.8045 99.4928 18.5132C100.026 18.2173 100.647 18.0693 101.355 18.0693ZM101.369 19.5286C100.97 19.5286 100.638 19.6563 100.374 19.9118C100.114 20.1674 99.9635 20.5686 99.9231 21.1155H102.801C102.797 20.8107 102.741 20.5395 102.633 20.3019C102.53 20.0643 102.373 19.876 102.162 19.737C101.956 19.598 101.692 19.5286 101.369 19.5286ZM108.443 25.7285H106.392V15.2652H108.443V25.7285ZM113.702 18.0693C114.396 18.0693 114.995 18.2038 115.497 18.4728C115.999 18.7373 116.387 19.1228 116.66 19.6294C116.934 20.136 117.071 20.7546 117.071 21.4854V22.4806H112.222C112.245 23.0589 112.417 23.5139 112.74 23.8457C113.067 24.1729 113.52 24.3365 114.098 24.3365C114.578 24.3365 115.017 24.2872 115.416 24.1886C115.815 24.09 116.225 23.942 116.647 23.7448V25.3318C116.275 25.5156 115.885 25.6501 115.477 25.7352C115.073 25.8204 114.582 25.863 114.004 25.863C113.251 25.863 112.583 25.724 112 25.4461C111.422 25.1681 110.967 24.7445 110.635 24.1752C110.308 23.6058 110.144 22.8885 110.144 22.0233C110.144 21.1447 110.292 20.4139 110.588 19.8312C110.888 19.2439 111.305 18.8045 111.839 18.5132C112.372 18.2173 112.993 18.0693 113.702 18.0693ZM113.715 19.5286C113.316 19.5286 112.984 19.6563 112.72 19.9118C112.46 20.1674 112.31 20.5686 112.269 21.1155H115.147C115.143 20.8107 115.087 20.5395 114.979 20.3019C114.876 20.0643 114.719 19.876 114.509 19.737C114.302 19.598 114.038 19.5286 113.715 19.5286ZM121.791 25.863C121.047 25.863 120.413 25.7285 119.888 25.4595C119.364 25.1861 118.965 24.7647 118.691 24.1953C118.418 23.626 118.281 22.8975 118.281 22.0099C118.281 21.0909 118.436 20.3422 118.745 19.7639C119.059 19.1811 119.491 18.753 120.043 18.4795C120.599 18.2061 121.242 18.0693 121.973 18.0693C122.493 18.0693 122.941 18.1209 123.318 18.224C123.699 18.3226 124.03 18.4414 124.313 18.5804L123.708 20.1674C123.385 20.0374 123.084 19.932 122.807 19.8513C122.529 19.7661 122.251 19.7236 121.973 19.7236C121.614 19.7236 121.316 19.8087 121.078 19.9791C120.841 20.145 120.664 20.396 120.547 20.7322C120.431 21.0685 120.372 21.4899 120.372 21.9964C120.372 22.494 120.435 22.9065 120.561 23.2337C120.686 23.561 120.868 23.8053 121.105 23.9667C121.343 24.1236 121.632 24.2021 121.973 24.2021C122.399 24.2021 122.777 24.146 123.109 24.0339C123.441 23.9174 123.764 23.756 124.077 23.5498V25.3049C123.764 25.5021 123.434 25.6433 123.089 25.7285C122.748 25.8182 122.316 25.863 121.791 25.863ZM128.993 24.229C129.217 24.229 129.435 24.2065 129.645 24.1617C129.86 24.1169 130.073 24.0608 130.284 23.9936V25.5201C130.064 25.6187 129.791 25.6994 129.464 25.7621C129.141 25.8294 128.787 25.863 128.401 25.863C127.953 25.863 127.55 25.7913 127.191 25.6478C126.837 25.4999 126.557 25.2466 126.35 24.888C126.149 24.5248 126.048 24.0205 126.048 23.3749V19.7505H125.066V18.883L126.196 18.1971L126.787 16.6101H128.099V18.2106H130.203V19.7505H128.099V23.3749C128.099 23.6619 128.179 23.877 128.341 24.0205C128.507 24.1595 128.724 24.229 128.993 24.229ZM133.862 18.2106V25.7285H131.811V18.2106H133.862ZM132.839 15.2652C133.144 15.2652 133.407 15.337 133.626 15.4804C133.846 15.6194 133.956 15.8816 133.956 16.2672C133.956 16.6482 133.846 16.9127 133.626 17.0607C133.407 17.2041 133.144 17.2759 132.839 17.2759C132.53 17.2759 132.266 17.2041 132.046 17.0607C131.831 16.9127 131.723 16.6482 131.723 16.2672C131.723 15.8816 131.831 15.6194 132.046 15.4804C132.266 15.337 132.53 15.2652 132.839 15.2652ZM142.852 21.9561C142.852 22.5837 142.767 23.1396 142.597 23.6238C142.431 24.1079 142.186 24.5181 141.864 24.8543C141.545 25.1861 141.16 25.4371 140.707 25.6075C140.259 25.7778 139.752 25.863 139.187 25.863C138.658 25.863 138.172 25.7778 137.728 25.6075C137.289 25.4371 136.905 25.1861 136.578 24.8543C136.255 24.5181 136.004 24.1079 135.825 23.6238C135.65 23.1396 135.563 22.5837 135.563 21.9561C135.563 21.1223 135.711 20.4162 136.007 19.8379C136.303 19.2596 136.724 18.8202 137.271 18.5199C137.818 18.2195 138.47 18.0693 139.228 18.0693C139.932 18.0693 140.555 18.2195 141.097 18.5199C141.644 18.8202 142.072 19.2596 142.381 19.8379C142.695 20.4162 142.852 21.1223 142.852 21.9561ZM137.654 21.9561C137.654 22.4492 137.708 22.8639 137.816 23.2001C137.923 23.5363 138.091 23.7896 138.32 23.96C138.549 24.1303 138.847 24.2155 139.214 24.2155C139.577 24.2155 139.871 24.1303 140.095 23.96C140.324 23.7896 140.49 23.5363 140.593 23.2001C140.7 22.8639 140.754 22.4492 140.754 21.9561C140.754 21.4585 140.7 21.046 140.593 20.7188C140.49 20.387 140.324 20.1382 140.095 19.9724C139.866 19.8065 139.568 19.7236 139.201 19.7236C138.658 19.7236 138.264 19.9096 138.017 20.2817C137.775 20.6538 137.654 21.2119 137.654 21.9561ZM148.817 18.0693C149.619 18.0693 150.265 18.289 150.753 18.7283C151.242 19.1632 151.486 19.8625 151.486 20.8264V25.7285H149.435V21.3374C149.435 20.7995 149.337 20.3938 149.14 20.1203C148.947 19.8468 148.642 19.7101 148.225 19.7101C147.597 19.7101 147.169 19.9231 146.941 20.3489C146.712 20.7748 146.598 21.389 146.598 22.1914V25.7285H144.547V18.2106H146.114L146.389 19.1722H146.504C146.665 18.9121 146.864 18.7014 147.102 18.5401C147.344 18.3787 147.611 18.2599 147.902 18.1837C148.198 18.1074 148.503 18.0693 148.817 18.0693ZM164.007 21.9561C164.007 22.5837 163.922 23.1396 163.752 23.6238C163.586 24.1079 163.342 24.5181 163.019 24.8543C162.701 25.1861 162.315 25.4371 161.862 25.6075C161.414 25.7778 160.907 25.863 160.343 25.863C159.814 25.863 159.327 25.7778 158.883 25.6075C158.444 25.4371 158.061 25.1861 157.733 24.8543C157.411 24.5181 157.16 24.1079 156.98 23.6238C156.805 23.1396 156.718 22.5837 156.718 21.9561C156.718 21.1223 156.866 20.4162 157.162 19.8379C157.458 19.2596 157.879 18.8202 158.426 18.5199C158.973 18.2195 159.625 18.0693 160.383 18.0693C161.087 18.0693 161.71 18.2195 162.252 18.5199C162.799 18.8202 163.227 19.2596 163.537 19.8379C163.85 20.4162 164.007 21.1223 164.007 21.9561ZM158.809 21.9561C158.809 22.4492 158.863 22.8639 158.971 23.2001C159.078 23.5363 159.246 23.7896 159.475 23.96C159.704 24.1303 160.002 24.2155 160.369 24.2155C160.733 24.2155 161.026 24.1303 161.25 23.96C161.479 23.7896 161.645 23.5363 161.748 23.2001C161.856 22.8639 161.909 22.4492 161.909 21.9561C161.909 21.4585 161.856 21.046 161.748 20.7188C161.645 20.387 161.479 20.1382 161.25 19.9724C161.022 19.8065 160.724 19.7236 160.356 19.7236C159.814 19.7236 159.419 19.9096 159.172 20.2817C158.93 20.6538 158.809 21.2119 158.809 21.9561ZM169.858 19.7505H168.082V25.7285H166.031V19.7505H164.902V18.762L166.031 18.2106V17.6591C166.031 17.0181 166.139 16.5205 166.354 16.1663C166.574 15.8077 166.881 15.5566 167.275 15.4132C167.674 15.2652 168.145 15.1913 168.688 15.1913C169.087 15.1913 169.45 15.2249 169.777 15.2921C170.104 15.3549 170.371 15.4266 170.577 15.5073L170.053 17.0136C169.896 16.9643 169.725 16.9195 169.542 16.8791C169.358 16.8388 169.147 16.8186 168.909 16.8186C168.623 16.8186 168.412 16.906 168.277 17.0808C168.147 17.2512 168.082 17.4709 168.082 17.7398V18.2106H169.858V19.7505ZM177.786 24.229C178.01 24.229 178.227 24.2065 178.438 24.1617C178.653 24.1169 178.866 24.0608 179.077 23.9936V25.5201C178.857 25.6187 178.584 25.6994 178.257 25.7621C177.934 25.8294 177.58 25.863 177.194 25.863C176.746 25.863 176.342 25.7913 175.984 25.6478C175.629 25.4999 175.349 25.2466 175.143 24.888C174.941 24.5248 174.84 24.0205 174.84 23.3749V19.7505H173.859V18.883L174.988 18.1971L175.58 16.6101H176.891V18.2106H178.996V19.7505H176.891V23.3749C176.891 23.6619 176.972 23.877 177.134 24.0205C177.299 24.1595 177.517 24.229 177.786 24.229ZM182.654 15.2652V17.3969C182.654 17.769 182.641 18.1231 182.614 18.4594C182.592 18.7956 182.574 19.0332 182.56 19.1722H182.668C182.829 18.9121 183.02 18.7014 183.239 18.5401C183.463 18.3787 183.71 18.2599 183.979 18.1837C184.248 18.1074 184.537 18.0693 184.846 18.0693C185.389 18.0693 185.862 18.1657 186.265 18.3585C186.669 18.5468 186.983 18.8449 187.207 19.2528C187.431 19.6563 187.543 20.1808 187.543 20.8264V25.7285H185.492V21.3374C185.492 20.7995 185.393 20.3938 185.196 20.1203C184.999 19.8468 184.694 19.7101 184.282 19.7101C183.869 19.7101 183.544 19.8065 183.307 19.9993C183.069 20.1875 182.901 20.4677 182.802 20.8398C182.704 21.2074 182.654 21.658 182.654 22.1914V25.7285H180.603V15.2652H182.654ZM192.754 18.0693C193.449 18.0693 194.048 18.2038 194.55 18.4728C195.052 18.7373 195.44 19.1228 195.713 19.6294C195.987 20.136 196.123 20.7546 196.123 21.4854V22.4806H191.275C191.298 23.0589 191.47 23.5139 191.793 23.8457C192.12 24.1729 192.573 24.3365 193.151 24.3365C193.631 24.3365 194.07 24.2872 194.469 24.1886C194.868 24.09 195.278 23.942 195.7 23.7448V25.3318C195.328 25.5156 194.938 25.6501 194.53 25.7352C194.126 25.8204 193.635 25.863 193.057 25.863C192.304 25.863 191.636 25.724 191.053 25.4461C190.475 25.1681 190.02 24.7445 189.688 24.1752C189.361 23.6058 189.197 22.8885 189.197 22.0233C189.197 21.1447 189.345 20.4139 189.641 19.8312C189.941 19.2439 190.358 18.8045 190.892 18.5132C191.425 18.2173 192.046 18.0693 192.754 18.0693ZM192.768 19.5286C192.369 19.5286 192.037 19.6563 191.773 19.9118C191.513 20.1674 191.363 20.5686 191.322 21.1155H194.2C194.196 20.8107 194.14 20.5395 194.032 20.3019C193.929 20.0643 193.772 19.876 193.561 19.737C193.355 19.598 193.091 19.5286 192.768 19.5286ZM112.276 37.2106V44.7285H110.225V37.2106H112.276ZM111.254 34.2652C111.559 34.2652 111.821 34.337 112.041 34.4804C112.26 34.6194 112.37 34.8816 112.37 35.2672C112.37 35.6482 112.26 35.9127 112.041 36.0607C111.821 36.2041 111.559 36.2759 111.254 36.2759C110.945 36.2759 110.68 36.2041 110.46 36.0607C110.245 35.9127 110.138 35.6482 110.138 35.2672C110.138 34.8816 110.245 34.6194 110.46 34.4804C110.68 34.337 110.945 34.2652 111.254 34.2652ZM118.705 37.0693C119.507 37.0693 120.153 37.289 120.641 37.7283C121.13 38.1632 121.374 38.8625 121.374 39.8264V44.7285H119.323V40.3374C119.323 39.7995 119.225 39.3938 119.027 39.1203C118.835 38.8468 118.53 38.7101 118.113 38.7101C117.485 38.7101 117.057 38.9231 116.828 39.3489C116.6 39.7748 116.485 40.389 116.485 41.1914V44.7285H114.435V37.2106H116.001L116.277 38.1722H116.391C116.553 37.9121 116.752 37.7014 116.99 37.5401C117.232 37.3787 117.499 37.2599 117.79 37.1837C118.086 37.1074 118.391 37.0693 118.705 37.0693ZM128.731 42.496C128.731 43.0071 128.61 43.4397 128.368 43.7938C128.13 44.1435 127.774 44.4102 127.298 44.594C126.823 44.7733 126.232 44.863 125.523 44.863C124.999 44.863 124.548 44.8294 124.172 44.7621C123.799 44.6949 123.423 44.5828 123.042 44.4259V42.7313C123.45 42.9151 123.887 43.0676 124.353 43.1886C124.824 43.3052 125.236 43.3634 125.59 43.3634C125.989 43.3634 126.274 43.3052 126.444 43.1886C126.619 43.0676 126.707 42.9107 126.707 42.7179C126.707 42.5924 126.671 42.4803 126.599 42.3817C126.532 42.2786 126.384 42.1642 126.155 42.0387C125.927 41.9087 125.568 41.7406 125.079 41.5344C124.609 41.3371 124.221 41.1376 123.916 40.9359C123.616 40.7342 123.392 40.4966 123.244 40.2231C123.1 39.9452 123.028 39.5933 123.028 39.1674C123.028 38.4725 123.297 37.9502 123.835 37.6006C124.378 37.2464 125.102 37.0693 126.007 37.0693C126.474 37.0693 126.917 37.1164 127.339 37.2106C127.765 37.3047 128.202 37.4549 128.65 37.6611L128.031 39.1405C127.659 38.9791 127.307 38.8468 126.976 38.7437C126.648 38.6406 126.314 38.5891 125.974 38.5891C125.673 38.5891 125.447 38.6294 125.295 38.7101C125.142 38.7908 125.066 38.9141 125.066 39.08C125.066 39.201 125.104 39.3086 125.18 39.4027C125.261 39.4969 125.413 39.6022 125.638 39.7188C125.866 39.8309 126.2 39.9766 126.639 40.1559C127.065 40.3307 127.435 40.5145 127.749 40.7073C128.063 40.8956 128.305 41.1309 128.475 41.4134C128.646 41.6913 128.731 42.0522 128.731 42.496ZM137.23 37.2106V44.7285H135.657L135.381 43.7669H135.274C135.112 44.0224 134.911 44.2309 134.668 44.3923C134.426 44.5537 134.16 44.6725 133.868 44.7487C133.577 44.8249 133.274 44.863 132.96 44.863C132.422 44.863 131.954 44.7689 131.555 44.5806C131.156 44.3878 130.844 44.0897 130.62 43.6862C130.401 43.2828 130.291 42.7582 130.291 42.1127V37.2106H132.342V41.6016C132.342 42.1396 132.438 42.5453 132.631 42.8188C132.824 43.0922 133.131 43.229 133.552 43.229C133.969 43.229 134.296 43.1348 134.534 42.9465C134.772 42.7538 134.937 42.4736 135.032 42.106C135.13 41.7339 135.18 41.2811 135.18 40.7476V37.2106H137.23ZM143.578 37.0693C143.682 37.0693 143.8 37.0761 143.935 37.0895C144.074 37.0985 144.186 37.1119 144.271 37.1299L144.116 39.0531C144.049 39.0306 143.953 39.015 143.827 39.006C143.706 38.9925 143.601 38.9858 143.511 38.9858C143.247 38.9858 142.989 39.0194 142.738 39.0867C142.491 39.1539 142.269 39.2638 142.072 39.4162C141.875 39.5641 141.718 39.7614 141.601 40.0079C141.489 40.25 141.433 40.5481 141.433 40.9023V44.7285H139.382V37.2106H140.936L141.238 38.4748H141.339C141.487 38.2192 141.671 37.9861 141.891 37.7754C142.115 37.5602 142.368 37.3899 142.65 37.2643C142.937 37.1343 143.247 37.0693 143.578 37.0693ZM148.716 37.0559C149.725 37.0559 150.498 37.2756 151.036 37.7149C151.574 38.1542 151.843 38.8222 151.843 39.7188V44.7285H150.41L150.014 43.7064H149.96C149.745 43.9754 149.525 44.195 149.301 44.3654C149.077 44.5357 148.819 44.6613 148.528 44.742C148.236 44.8227 147.882 44.863 147.465 44.863C147.021 44.863 146.622 44.7778 146.268 44.6075C145.919 44.4371 145.643 44.1771 145.441 43.8274C145.239 43.4733 145.138 43.025 145.138 42.4825C145.138 41.6846 145.419 41.0973 145.979 40.7207C146.539 40.3397 147.38 40.129 148.501 40.0886L149.805 40.0483V39.7188C149.805 39.3243 149.702 39.0351 149.496 38.8513C149.29 38.6675 149.003 38.5756 148.635 38.5756C148.272 38.5756 147.916 38.6272 147.566 38.7303C147.216 38.8334 146.867 38.9634 146.517 39.1203L145.838 37.7351C146.237 37.5244 146.683 37.3585 147.176 37.2375C147.674 37.1164 148.187 37.0559 148.716 37.0559ZM149.805 41.2452L149.012 41.2721C148.348 41.2901 147.887 41.4089 147.627 41.6285C147.371 41.8482 147.243 42.1374 147.243 42.496C147.243 42.8098 147.335 43.0339 147.519 43.1684C147.703 43.2984 147.943 43.3634 148.238 43.3634C148.678 43.3634 149.048 43.2334 149.348 42.9734C149.653 42.7134 149.805 42.3436 149.805 41.8639V41.2452ZM158.231 37.0693C159.033 37.0693 159.679 37.289 160.168 37.7283C160.656 38.1632 160.901 38.8625 160.901 39.8264V44.7285H158.85V40.3374C158.85 39.7995 158.751 39.3938 158.554 39.1203C158.361 38.8468 158.056 38.7101 157.639 38.7101C157.012 38.7101 156.584 38.9231 156.355 39.3489C156.126 39.7748 156.012 40.389 156.012 41.1914V44.7285H153.961V37.2106H155.528L155.803 38.1722H155.918C156.079 37.9121 156.279 37.7014 156.516 37.5401C156.758 37.3787 157.025 37.2599 157.316 37.1837C157.612 37.1074 157.917 37.0693 158.231 37.0693ZM166.065 44.863C165.321 44.863 164.687 44.7285 164.162 44.4595C163.638 44.1861 163.239 43.7647 162.965 43.1953C162.692 42.626 162.555 41.8975 162.555 41.0099C162.555 40.0909 162.71 39.3422 163.019 38.7639C163.333 38.1811 163.765 37.753 164.317 37.4795C164.873 37.2061 165.516 37.0693 166.247 37.0693C166.767 37.0693 167.215 37.1209 167.592 37.224C167.973 37.3226 168.304 37.4414 168.587 37.5804L167.982 39.1674C167.659 39.0374 167.358 38.932 167.08 38.8513C166.802 38.7661 166.525 38.7236 166.247 38.7236C165.888 38.7236 165.59 38.8087 165.352 38.9791C165.115 39.145 164.938 39.396 164.821 39.7322C164.704 40.0685 164.646 40.4899 164.646 40.9964C164.646 41.494 164.709 41.9065 164.834 42.2337C164.96 42.561 165.142 42.8053 165.379 42.9667C165.617 43.1236 165.906 43.2021 166.247 43.2021C166.672 43.2021 167.051 43.146 167.383 43.0339C167.715 42.9174 168.038 42.756 168.351 42.5498V44.3049C168.038 44.5021 167.708 44.6433 167.363 44.7285C167.022 44.8182 166.59 44.863 166.065 44.863ZM173.2 37.0693C173.895 37.0693 174.493 37.2038 174.995 37.4728C175.497 37.7373 175.885 38.1228 176.158 38.6294C176.432 39.136 176.569 39.7546 176.569 40.4854V41.4806H171.72C171.743 42.0589 171.915 42.5139 172.238 42.8457C172.565 43.1729 173.018 43.3365 173.596 43.3365C174.076 43.3365 174.515 43.2872 174.914 43.1886C175.313 43.09 175.724 42.942 176.145 42.7448V44.3318C175.773 44.5156 175.383 44.6501 174.975 44.7352C174.572 44.8204 174.081 44.863 173.502 44.863C172.749 44.863 172.081 44.724 171.498 44.4461C170.92 44.1681 170.465 43.7445 170.133 43.1752C169.806 42.6058 169.642 41.8885 169.642 41.0233C169.642 40.1447 169.79 39.4139 170.086 38.8312C170.387 38.2439 170.804 37.8045 171.337 37.5132C171.871 37.2173 172.491 37.0693 173.2 37.0693ZM173.213 38.5286C172.814 38.5286 172.482 38.6563 172.218 38.9118C171.958 39.1674 171.808 39.5686 171.767 40.1155H174.645C174.641 39.8107 174.585 39.5395 174.477 39.3019C174.374 39.0643 174.217 38.876 174.007 38.737C173.8 38.598 173.536 38.5286 173.213 38.5286Z" fill="#4A4A4A"/>
<rect x="109.115" y="115.526" width="42.8204" height="42.8204" fill="#E993B7"/>
<rect x="112.684" y="117.903" width="34.4942" height="2.37891" rx="1.18945" fill="white"/>
<rect x="112.684" y="122.662" width="20.2207" height="2.37891" rx="1.18945" fill="white"/>
<rect x="112.684" y="127.419" width="32.1153" height="2.37891" rx="1.18945" fill="white"/>
<rect x="77" y="85.7876" width="42.8204" height="42.8204" fill="#801060"/>
<rect x="80.5684" y="95.3044" width="34.4942" height="2.37891" rx="1.18945" fill="white"/>
<rect x="80.5684" y="90.5449" width="23.7891" height="2.37891" rx="1.18945" fill="white"/>
<rect x="80.5684" y="100.063" width="23.7891" height="2.37891" rx="1.18945" fill="white"/>
<rect x="80.5684" y="104.818" width="13.0732" height="2.37695" rx="1.18847" fill="white"/>
<rect x="80.5684" y="109.577" width="5.93456" height="2.37382" rx="1.18691" fill="white"/>
<defs>
<filter id="filter0_d_426_3120" x="0" y="0.787598" width="284" height="203" filterUnits="userSpaceOnUse" color-interpolation-filters="sRGB">
<feFlood flood-opacity="0" result="BackgroundImageFix"/>
<feColorMatrix in="SourceAlpha" type="matrix" values="0 0 0 0 0 0 0 0 0 0 0 0 0 0 0 0 0 0 127 0" result="hardAlpha"/>
<feOffset dy="4"/>
<feGaussianBlur stdDeviation="2"/>
<feComposite in2="hardAlpha" operator="out"/>
<feColorMatrix type="matrix" values="0 0 0 0 0 0 0 0 0 0 0 0 0 0 0 0 0 0 0.07 0"/>
<feBlend mode="normal" in2="BackgroundImageFix" result="effect1_dropShadow_426_3120"/>
<feBlend mode="normal" in="SourceGraphic" in2="effect1_dropShadow_426_3120" result="shape"/>
</filter>
</defs>
</svg>
