<svg width="223" height="104" viewBox="0 0 223 104" fill="none" xmlns="http://www.w3.org/2000/svg">
<path id="Vector" d="M44.1298 46.1105C44.1298 45.4328 44.1298 44.7551 44.1298 44.0774C44.1158 33.8308 47.7477 23.9095 54.3829 16.0696C61.0182 8.22973 70.2287 2.97673 80.3846 1.24023C90.5404 -0.496257 100.987 1.39582 109.874 6.58151C118.762 11.7672 125.518 19.9121 128.947 29.5749C137.923 23.3555 148.441 19.7015 159.358 19.0102C170.275 18.3189 181.175 20.6168 190.871 25.654C200.567 30.6912 208.688 38.2749 214.353 47.5807C220.018 56.8866 223.008 67.5585 223 78.4362V103.612H0C-0.00796509 90.5411 4.30807 77.83 12.2828 67.4388C20.2576 57.0476 31.4483 49.553 44.1298 46.1105Z" fill="#E993B7"/>
</svg>
