<svg width="276" height="195" viewBox="0 0 276 195" fill="none" xmlns="http://www.w3.org/2000/svg">
<rect width="276" height="195" rx="16.7228" fill="#F2F2F2"/>
<path d="M88.0971 19.8284C88.0971 20.9357 87.8841 21.8614 87.4583 22.6056C87.0369 23.3453 86.4249 23.9034 85.6225 24.28C84.82 24.6521 83.8539 24.8381 82.7242 24.8381H79.9403V15.007H83.0268C84.0579 15.007 84.9523 15.1908 85.7099 15.5584C86.4675 15.9215 87.0548 16.4617 87.4717 17.179C87.8886 17.8918 88.0971 18.7749 88.0971 19.8284ZM85.9318 19.8822C85.9318 19.156 85.8242 18.5597 85.609 18.0935C85.3983 17.6228 85.0845 17.2753 84.6676 17.0512C84.2552 16.827 83.7441 16.715 83.1344 16.715H82.0249V23.1167H82.9192C83.9369 23.1167 84.6923 22.8454 85.1854 22.303C85.683 21.7606 85.9318 20.9536 85.9318 19.8822ZM93.053 17.1655C94.0617 17.1655 94.835 17.3852 95.373 17.8245C95.9109 18.2638 96.1799 18.9318 96.1799 19.8284V24.8381H94.7476L94.3508 23.816H94.297C94.0819 24.085 93.8622 24.3047 93.638 24.475C93.4139 24.6454 93.1561 24.7709 92.8647 24.8516C92.5733 24.9323 92.2192 24.9726 91.8023 24.9726C91.3584 24.9726 90.9595 24.8874 90.6053 24.7171C90.2556 24.5467 89.9799 24.2867 89.7782 23.9371C89.5765 23.5829 89.4756 23.1346 89.4756 22.5922C89.4756 21.7942 89.7558 21.2069 90.3162 20.8303C90.8765 20.4493 91.7171 20.2386 92.8378 20.1982L94.1424 20.1579V19.8284C94.1424 19.4339 94.0393 19.1447 93.8331 18.9609C93.6268 18.7771 93.3399 18.6852 92.9723 18.6852C92.6092 18.6852 92.2528 18.7368 91.9031 18.8399C91.5535 18.943 91.2038 19.073 90.8541 19.2299L90.1749 17.8447C90.5739 17.634 91.02 17.4681 91.5131 17.3471C92.0107 17.226 92.524 17.1655 93.053 17.1655ZM94.1424 21.3549L93.3489 21.3818C92.6854 21.3997 92.2237 21.5185 91.9636 21.7382C91.7081 21.9578 91.5804 22.247 91.5804 22.6056C91.5804 22.9194 91.6723 23.1436 91.8561 23.2781C92.0399 23.4081 92.2797 23.4731 92.5756 23.4731C93.0149 23.4731 93.3848 23.3431 93.6851 23.083C93.99 22.823 94.1424 22.4532 94.1424 21.9735V21.3549ZM101.465 23.3386C101.689 23.3386 101.907 23.3162 102.118 23.2713C102.333 23.2265 102.546 23.1705 102.756 23.1032V24.6297C102.537 24.7283 102.263 24.809 101.936 24.8718C101.613 24.939 101.259 24.9726 100.874 24.9726C100.425 24.9726 100.022 24.9009 99.6632 24.7574C99.309 24.6095 99.0288 24.3562 98.8226 23.9976C98.6209 23.6345 98.52 23.1301 98.52 22.4846V18.8601H97.5382V17.9926L98.6679 17.3067L99.2597 15.7197H100.571V17.3202H102.676V18.8601H100.571V22.4846C100.571 22.7715 100.652 22.9867 100.813 23.1301C100.979 23.2691 101.196 23.3386 101.465 23.3386ZM107.363 17.1655C108.371 17.1655 109.145 17.3852 109.683 17.8245C110.221 18.2638 110.49 18.9318 110.49 19.8284V24.8381H109.057L108.661 23.816H108.607C108.392 24.085 108.172 24.3047 107.948 24.475C107.724 24.6454 107.466 24.7709 107.174 24.8516C106.883 24.9323 106.529 24.9726 106.112 24.9726C105.668 24.9726 105.269 24.8874 104.915 24.7171C104.565 24.5467 104.29 24.2867 104.088 23.9371C103.886 23.5829 103.785 23.1346 103.785 22.5922C103.785 21.7942 104.065 21.2069 104.626 20.8303C105.186 20.4493 106.027 20.2386 107.148 20.1982L108.452 20.1579V19.8284C108.452 19.4339 108.349 19.1447 108.143 18.9609C107.937 18.7771 107.65 18.6852 107.282 18.6852C106.919 18.6852 106.562 18.7368 106.213 18.8399C105.863 18.943 105.513 19.073 105.164 19.2299L104.485 17.8447C104.884 17.634 105.33 17.4681 105.823 17.3471C106.32 17.226 106.834 17.1655 107.363 17.1655ZM108.452 21.3549L107.659 21.3818C106.995 21.3997 106.533 21.5185 106.273 21.7382C106.018 21.9578 105.89 22.247 105.89 22.6056C105.89 22.9194 105.982 23.1436 106.166 23.2781C106.35 23.4081 106.589 23.4731 106.885 23.4731C107.325 23.4731 107.694 23.3431 107.995 23.083C108.3 22.823 108.452 22.4532 108.452 21.9735V21.3549ZM119.285 17.179C119.98 17.179 120.579 17.3134 121.081 17.5824C121.583 17.8469 121.97 18.2325 122.244 18.739C122.517 19.2456 122.654 19.8643 122.654 20.595V21.5902H117.806C117.828 22.1685 118.001 22.6235 118.324 22.9553C118.651 23.2825 119.104 23.4462 119.682 23.4462C120.162 23.4462 120.601 23.3969 121 23.2982C121.399 23.1996 121.809 23.0517 122.231 22.8544V24.4414C121.858 24.6252 121.468 24.7597 121.06 24.8449C120.657 24.93 120.166 24.9726 119.588 24.9726C118.835 24.9726 118.167 24.8337 117.584 24.5557C117.006 24.2778 116.551 23.8541 116.219 23.2848C115.892 22.7154 115.728 21.9982 115.728 21.1329C115.728 20.2543 115.876 19.5236 116.172 18.9408C116.472 18.3535 116.889 17.9142 117.423 17.6228C117.956 17.3269 118.577 17.179 119.285 17.179ZM119.299 18.6382C118.9 18.6382 118.568 18.7659 118.303 19.0215C118.043 19.277 117.893 19.6782 117.853 20.2251H120.731C120.726 19.9203 120.67 19.6491 120.563 19.4115C120.46 19.1739 120.303 18.9856 120.092 18.8466C119.886 18.7077 119.621 18.6382 119.299 18.6382ZM128.592 17.179C129.394 17.179 130.04 17.3986 130.529 17.838C131.017 18.2728 131.261 18.9722 131.261 19.936V24.8381H129.211V20.4471C129.211 19.9091 129.112 19.5034 128.915 19.2299C128.722 18.9565 128.417 18.8197 128 18.8197C127.372 18.8197 126.944 19.0327 126.716 19.4586C126.487 19.8844 126.373 20.4986 126.373 21.3011V24.8381H124.322V17.3202H125.889L126.164 18.2818H126.279C126.44 18.0218 126.64 17.8111 126.877 17.6497C127.119 17.4883 127.386 17.3695 127.677 17.2933C127.973 17.2171 128.278 17.179 128.592 17.179ZM136.54 23.3386C136.764 23.3386 136.982 23.3162 137.192 23.2713C137.408 23.2265 137.621 23.1705 137.831 23.1032V24.6297C137.612 24.7283 137.338 24.809 137.011 24.8718C136.688 24.939 136.334 24.9726 135.948 24.9726C135.5 24.9726 135.097 24.9009 134.738 24.7574C134.384 24.6095 134.104 24.3562 133.897 23.9976C133.696 23.6345 133.595 23.1301 133.595 22.4846V18.8601H132.613V17.9926L133.743 17.3067L134.335 15.7197H135.646V17.3202H137.751V18.8601H135.646V22.4846C135.646 22.7715 135.727 22.9867 135.888 23.1301C136.054 23.2691 136.271 23.3386 136.54 23.3386ZM143.554 17.179C143.657 17.179 143.776 17.1857 143.91 17.1991C144.049 17.2081 144.161 17.2215 144.246 17.2395L144.092 19.1627C144.025 19.1403 143.928 19.1246 143.803 19.1156C143.682 19.1022 143.576 19.0954 143.487 19.0954C143.222 19.0954 142.964 19.1291 142.713 19.1963C142.467 19.2635 142.245 19.3734 142.048 19.5258C141.85 19.6737 141.693 19.871 141.577 20.1176C141.465 20.3596 141.409 20.6578 141.409 21.0119V24.8381H139.358V17.3202H140.911L141.214 18.5844H141.315C141.462 18.3288 141.646 18.0957 141.866 17.885C142.09 17.6698 142.343 17.4995 142.626 17.374C142.913 17.244 143.222 17.179 143.554 17.179ZM144.536 17.3202H146.782L148.2 21.5499C148.245 21.6844 148.283 21.8211 148.315 21.9601C148.346 22.099 148.373 22.2425 148.395 22.3904C148.418 22.5384 148.436 22.693 148.449 22.8544H148.49C148.516 22.6123 148.552 22.3859 148.597 22.1752C148.646 21.9645 148.707 21.7561 148.779 21.5499L150.171 17.3202H152.37L149.189 25.7997C148.996 26.3198 148.745 26.7524 148.436 27.0976C148.126 27.4472 147.77 27.7095 147.367 27.8843C146.968 28.0592 146.528 28.1466 146.049 28.1466C145.815 28.1466 145.614 28.1331 145.443 28.1062C145.273 28.0838 145.127 28.0592 145.006 28.0323V26.4049C145.1 26.4274 145.219 26.4475 145.363 26.4655C145.506 26.4834 145.656 26.4924 145.813 26.4924C146.1 26.4924 146.347 26.4318 146.553 26.3108C146.759 26.1898 146.932 26.0261 147.071 25.8199C147.21 25.6182 147.32 25.3963 147.4 25.1542L147.521 24.7843L144.536 17.3202ZM159.081 17.3202V24.8381H157.03V17.3202H159.081ZM158.059 14.3749C158.363 14.3749 158.626 14.4466 158.845 14.59C159.065 14.729 159.175 14.9913 159.175 15.3768C159.175 15.7579 159.065 16.0223 158.845 16.1703C158.626 16.3137 158.363 16.3855 158.059 16.3855C157.749 16.3855 157.485 16.3137 157.265 16.1703C157.05 16.0223 156.942 15.7579 156.942 15.3768C156.942 14.9913 157.05 14.729 157.265 14.59C157.485 14.4466 157.749 14.3749 158.059 14.3749ZM166.484 22.6056C166.484 23.1167 166.363 23.5493 166.121 23.9034C165.884 24.2531 165.527 24.5198 165.052 24.7036C164.577 24.883 163.985 24.9726 163.277 24.9726C162.752 24.9726 162.302 24.939 161.925 24.8718C161.553 24.8045 161.176 24.6924 160.795 24.5355V22.841C161.203 23.0248 161.64 23.1772 162.107 23.2982C162.577 23.4148 162.99 23.4731 163.344 23.4731C163.743 23.4731 164.028 23.4148 164.198 23.2982C164.373 23.1772 164.46 23.0203 164.46 22.8275C164.46 22.702 164.424 22.5899 164.353 22.4913C164.285 22.3882 164.137 22.2739 163.909 22.1483C163.68 22.0183 163.322 21.8502 162.833 21.644C162.362 21.4468 161.974 21.2473 161.67 21.0455C161.369 20.8438 161.145 20.6062 160.997 20.3327C160.854 20.0548 160.782 19.7029 160.782 19.277C160.782 18.5821 161.051 18.0599 161.589 17.7102C162.131 17.356 162.855 17.179 163.761 17.179C164.227 17.179 164.671 17.226 165.092 17.3202C165.518 17.4143 165.955 17.5645 166.404 17.7707L165.785 19.2501C165.413 19.0887 165.061 18.9565 164.729 18.8534C164.402 18.7502 164.068 18.6987 163.727 18.6987C163.427 18.6987 163.2 18.739 163.048 18.8197C162.896 18.9004 162.819 19.0237 162.819 19.1896C162.819 19.3106 162.858 19.4182 162.934 19.5124C163.014 19.6065 163.167 19.7118 163.391 19.8284C163.62 19.9405 163.954 20.0862 164.393 20.2655C164.819 20.4403 165.189 20.6241 165.502 20.8169C165.816 21.0052 166.058 21.2405 166.229 21.523C166.399 21.8009 166.484 22.1618 166.484 22.6056ZM173.33 22.6056C173.33 23.1167 173.209 23.5493 172.967 23.9034C172.729 24.2531 172.373 24.5198 171.897 24.7036C171.422 24.883 170.831 24.9726 170.122 24.9726C169.598 24.9726 169.147 24.939 168.771 24.8718C168.398 24.8045 168.022 24.6924 167.641 24.5355V22.841C168.049 23.0248 168.486 23.1772 168.952 23.2982C169.423 23.4148 169.835 23.4731 170.189 23.4731C170.588 23.4731 170.873 23.4148 171.043 23.2982C171.218 23.1772 171.306 23.0203 171.306 22.8275C171.306 22.702 171.27 22.5899 171.198 22.4913C171.131 22.3882 170.983 22.2739 170.754 22.1483C170.526 22.0183 170.167 21.8502 169.678 21.644C169.208 21.4468 168.82 21.2473 168.515 21.0455C168.215 20.8438 167.991 20.6062 167.843 20.3327C167.699 20.0548 167.627 19.7029 167.627 19.277C167.627 18.5821 167.896 18.0599 168.434 17.7102C168.977 17.356 169.701 17.179 170.606 17.179C171.073 17.179 171.516 17.226 171.938 17.3202C172.364 17.4143 172.801 17.5645 173.249 17.7707L172.63 19.2501C172.258 19.0887 171.906 18.9565 171.575 18.8534C171.247 18.7502 170.913 18.6987 170.573 18.6987C170.272 18.6987 170.046 18.739 169.894 18.8197C169.741 18.9004 169.665 19.0237 169.665 19.1896C169.665 19.3106 169.703 19.4182 169.779 19.5124C169.86 19.6065 170.012 19.7118 170.237 19.8284C170.465 19.9405 170.799 20.0862 171.238 20.2655C171.664 20.4403 172.034 20.6241 172.348 20.8169C172.662 21.0052 172.904 21.2405 173.074 21.523C173.245 21.8009 173.33 22.1618 173.33 22.6056ZM181.83 17.3202V24.8381H180.256L179.98 23.8765H179.873C179.711 24.1321 179.51 24.3405 179.267 24.5019C179.025 24.6633 178.759 24.7821 178.467 24.8583C178.176 24.9345 177.873 24.9726 177.559 24.9726C177.022 24.9726 176.553 24.8785 176.154 24.6902C175.755 24.4974 175.444 24.1993 175.219 23.7958C175 23.3924 174.89 22.8679 174.89 22.2223V17.3202H176.941V21.7113C176.941 22.2492 177.037 22.6549 177.23 22.9284C177.423 23.2018 177.73 23.3386 178.151 23.3386C178.568 23.3386 178.895 23.2444 179.133 23.0561C179.371 22.8634 179.536 22.5832 179.631 22.2156C179.729 21.8435 179.779 21.3907 179.779 20.8572V17.3202H181.83ZM187.081 17.179C187.776 17.179 188.375 17.3134 188.877 17.5824C189.379 17.8469 189.767 18.2325 190.04 18.739C190.314 19.2456 190.45 19.8643 190.45 20.595V21.5902H185.602C185.624 22.1685 185.797 22.6235 186.12 22.9553C186.447 23.2825 186.9 23.4462 187.478 23.4462C187.958 23.4462 188.397 23.3969 188.796 23.2982C189.195 23.1996 189.605 23.0517 190.027 22.8544V24.4414C189.655 24.6252 189.265 24.7597 188.857 24.8449C188.453 24.93 187.962 24.9726 187.384 24.9726C186.631 24.9726 185.963 24.8337 185.38 24.5557C184.802 24.2778 184.347 23.8541 184.015 23.2848C183.688 22.7154 183.524 21.9982 183.524 21.1329C183.524 20.2543 183.672 19.5236 183.968 18.9408C184.268 18.3535 184.685 17.9142 185.219 17.6228C185.752 17.3269 186.373 17.179 187.081 17.179ZM187.095 18.6382C186.696 18.6382 186.364 18.7659 186.1 19.0215C185.84 19.277 185.689 19.6782 185.649 20.2251H188.527C188.523 19.9203 188.467 19.6491 188.359 19.4115C188.256 19.1739 188.099 18.9856 187.888 18.8466C187.682 18.7077 187.418 18.6382 187.095 18.6382ZM197.363 22.6056C197.363 23.1167 197.242 23.5493 197 23.9034C196.762 24.2531 196.406 24.5198 195.931 24.7036C195.456 24.883 194.864 24.9726 194.155 24.9726C193.631 24.9726 193.18 24.939 192.804 24.8718C192.432 24.8045 192.055 24.6924 191.674 24.5355V22.841C192.082 23.0248 192.519 23.1772 192.985 23.2982C193.456 23.4148 193.869 23.4731 194.223 23.4731C194.622 23.4731 194.906 23.4148 195.077 23.2982C195.252 23.1772 195.339 23.0203 195.339 22.8275C195.339 22.702 195.303 22.5899 195.231 22.4913C195.164 22.3882 195.016 22.2739 194.788 22.1483C194.559 22.0183 194.2 21.8502 193.712 21.644C193.241 21.4468 192.853 21.2473 192.548 21.0455C192.248 20.8438 192.024 20.6062 191.876 20.3327C191.732 20.0548 191.661 19.7029 191.661 19.277C191.661 18.5821 191.93 18.0599 192.468 17.7102C193.01 17.356 193.734 17.179 194.64 17.179C195.106 17.179 195.55 17.226 195.971 17.3202C196.397 17.4143 196.834 17.5645 197.282 17.7707L196.664 19.2501C196.292 19.0887 195.94 18.9565 195.608 18.8534C195.281 18.7502 194.947 18.6987 194.606 18.6987C194.306 18.6987 194.079 18.739 193.927 18.8197C193.774 18.9004 193.698 19.0237 193.698 19.1896C193.698 19.3106 193.736 19.4182 193.813 19.5124C193.893 19.6065 194.046 19.7118 194.27 19.8284C194.498 19.9405 194.832 20.0862 195.272 20.2655C195.698 20.4403 196.067 20.6241 196.381 20.8169C196.695 21.0052 196.937 21.2405 197.108 21.523C197.278 21.8009 197.363 22.1618 197.363 22.6056Z" fill="#030620"/>
<rect x="37.575" y="62.8647" width="43.4649" height="43.4403" fill="#7D8FFF"/>
<rect x="103.979" y="72.5186" width="43.4649" height="43.4403" fill="#801060"/>
<rect x="125.712" y="134.061" width="43.4649" height="43.4403" fill="#E993B7"/>
<rect x="183.665" y="58.0369" width="43.4649" height="43.4403" fill="#030620"/>
<rect x="41.1968" y="67.6934" width="18.0954" height="2.41136" rx="1.20568" fill="white"/>
<rect x="41.1968" y="82.1731" width="35.0134" height="2.41335" rx="1.20667" fill="white"/>
<rect x="187.287" y="73.7261" width="35.0134" height="2.41335" rx="1.20667" fill="white"/>
<rect x="130.542" y="144.92" width="19.3177" height="2.41335" rx="1.20667" fill="white"/>
<rect x="108.809" y="77.3464" width="35.0134" height="2.41335" rx="1.20667" fill="white"/>
<rect x="41.1968" y="72.5186" width="32.5987" height="2.41335" rx="1.20667" fill="white"/>
<rect x="41.1968" y="87.0002" width="32.5987" height="2.41335" rx="1.20667" fill="white"/>
<rect x="187.287" y="78.5527" width="32.5987" height="2.41335" rx="1.20667" fill="white"/>
<rect x="130.542" y="149.747" width="18.0954" height="2.41136" rx="1.20568" fill="white"/>
<rect x="108.809" y="82.1731" width="32.5987" height="2.41335" rx="1.20667" fill="white"/>
<rect x="41.1968" y="77.3464" width="24.1472" height="2.41335" rx="1.20667" fill="white"/>
<rect x="187.287" y="68.8997" width="24.1472" height="2.41335" rx="1.20667" fill="white"/>
<rect x="130.542" y="140.093" width="13.27" height="2.41136" rx="1.20568" fill="white"/>
</svg>
