<svg width="276" height="195" viewBox="0 0 276 195" fill="none" xmlns="http://www.w3.org/2000/svg">
<rect width="276" height="195" rx="16.7228" fill="#F2F2F2"/>
<path d="M92.6349 22.2108C92.6349 22.7936 92.4936 23.3001 92.2112 23.7305C91.9288 24.1609 91.5163 24.4926 90.9739 24.7257C90.436 24.9588 89.7814 25.0754 89.0104 25.0754C88.6697 25.0754 88.3357 25.053 88.0084 25.0082C87.6856 24.9633 87.3741 24.8983 87.0737 24.8132C86.7778 24.7235 86.4954 24.6137 86.2264 24.4837V22.547C86.6927 22.7532 87.1768 22.9393 87.6789 23.1051C88.181 23.271 88.6786 23.3539 89.1717 23.3539C89.5125 23.3539 89.7859 23.3091 89.9921 23.2195C90.2028 23.1298 90.3553 23.0065 90.4494 22.8496C90.5435 22.6927 90.5906 22.5134 90.5906 22.3116C90.5906 22.0651 90.5077 21.8544 90.3418 21.6795C90.1759 21.5047 89.9473 21.3411 89.6559 21.1887C89.369 21.0362 89.044 20.8726 88.6809 20.6978C88.4522 20.5902 88.2034 20.4602 87.9344 20.3078C87.6655 20.1509 87.4099 19.9603 87.1679 19.7362C86.9258 19.512 86.7263 19.2408 86.5694 18.9225C86.417 18.5997 86.3407 18.2142 86.3407 17.7659C86.3407 17.1786 86.4752 16.6765 86.7442 16.2596C87.0132 15.8427 87.3965 15.5244 87.8941 15.3047C88.3962 15.0806 88.9879 14.9685 89.6694 14.9685C90.1804 14.9685 90.6668 15.029 91.1286 15.1501C91.5948 15.2666 92.0812 15.437 92.5878 15.6611L91.9153 17.2817C91.4626 17.0979 91.0568 16.9567 90.6982 16.8581C90.3396 16.755 89.9742 16.7034 89.6021 16.7034C89.3421 16.7034 89.1202 16.746 88.9364 16.8312C88.7526 16.9119 88.6136 17.0285 88.5195 17.1809C88.4253 17.3288 88.3783 17.5014 88.3783 17.6987C88.3783 17.9318 88.4455 18.129 88.58 18.2904C88.719 18.4473 88.9252 18.5997 89.1986 18.7477C89.4766 18.8956 89.8218 19.0682 90.2342 19.2655C90.7363 19.5031 91.1644 19.7519 91.5186 20.0119C91.8772 20.2674 92.1529 20.57 92.3457 20.9197C92.5385 21.2649 92.6349 21.6952 92.6349 22.2108ZM97.3554 17.2817C98.0503 17.2817 98.6488 17.4162 99.1509 17.6852C99.653 17.9497 100.041 18.3352 100.314 18.8418C100.588 19.3484 100.724 19.967 100.724 20.6978V21.693H95.876C95.8985 22.2713 96.0711 22.7263 96.3938 23.0581C96.7211 23.3853 97.1739 23.549 97.7522 23.549C98.2319 23.549 98.6712 23.4996 99.0702 23.401C99.4692 23.3024 99.8794 23.1544 100.301 22.9572V24.5442C99.9287 24.728 99.5386 24.8625 99.1307 24.9476C98.7272 25.0328 98.2363 25.0754 97.658 25.0754C96.9049 25.0754 96.2369 24.9364 95.6541 24.6585C95.0758 24.3805 94.6208 23.9569 94.2891 23.3876C93.9618 22.8182 93.7982 22.1009 93.7982 21.2357C93.7982 20.3571 93.9461 19.6263 94.242 19.0436C94.5424 18.4563 94.9593 18.017 95.4928 17.7256C96.0262 17.4297 96.6471 17.2817 97.3554 17.2817ZM97.3689 18.741C96.9699 18.741 96.6382 18.8687 96.3737 19.1242C96.1136 19.3798 95.9635 19.781 95.9231 20.3279H98.8012C98.7967 20.0231 98.7407 19.7519 98.6331 19.5143C98.53 19.2767 98.3731 19.0884 98.1624 18.9494C97.9562 18.8104 97.6917 18.741 97.3689 18.741ZM104.443 24.9409H102.392V14.4776H104.443V24.9409ZM109.702 17.2817C110.396 17.2817 110.995 17.4162 111.497 17.6852C111.999 17.9497 112.387 18.3352 112.66 18.8418C112.934 19.3484 113.071 19.967 113.071 20.6978V21.693H108.222C108.245 22.2713 108.417 22.7263 108.74 23.0581C109.067 23.3853 109.52 23.549 110.098 23.549C110.578 23.549 111.017 23.4996 111.416 23.401C111.815 23.3024 112.225 23.1544 112.647 22.9572V24.5442C112.275 24.728 111.885 24.8625 111.477 24.9476C111.073 25.0328 110.582 25.0754 110.004 25.0754C109.251 25.0754 108.583 24.9364 108 24.6585C107.422 24.3805 106.967 23.9569 106.635 23.3876C106.308 22.8182 106.144 22.1009 106.144 21.2357C106.144 20.3571 106.292 19.6263 106.588 19.0436C106.888 18.4563 107.305 18.017 107.839 17.7256C108.372 17.4297 108.993 17.2817 109.702 17.2817ZM109.715 18.741C109.316 18.741 108.984 18.8687 108.72 19.1242C108.46 19.3798 108.31 19.781 108.269 20.3279H111.147C111.143 20.0231 111.087 19.7519 110.979 19.5143C110.876 19.2767 110.719 19.0884 110.509 18.9494C110.302 18.8104 110.038 18.741 109.715 18.741ZM117.791 25.0754C117.047 25.0754 116.413 24.9409 115.888 24.6719C115.364 24.3985 114.965 23.9771 114.691 23.4077C114.418 22.8384 114.281 22.1099 114.281 21.2223C114.281 20.3033 114.436 19.5546 114.745 18.9763C115.059 18.3935 115.491 17.9654 116.043 17.6919C116.599 17.4185 117.242 17.2817 117.973 17.2817C118.493 17.2817 118.941 17.3333 119.318 17.4364C119.699 17.535 120.03 17.6538 120.313 17.7928L119.708 19.3798C119.385 19.2498 119.084 19.1444 118.807 19.0637C118.529 18.9786 118.251 18.936 117.973 18.936C117.614 18.936 117.316 19.0211 117.078 19.1915C116.841 19.3574 116.664 19.6084 116.547 19.9446C116.431 20.2809 116.372 20.7023 116.372 21.2088C116.372 21.7064 116.435 22.1189 116.561 22.4461C116.686 22.7734 116.868 23.0177 117.105 23.1791C117.343 23.336 117.632 23.4145 117.973 23.4145C118.399 23.4145 118.777 23.3584 119.109 23.2464C119.441 23.1298 119.764 22.9684 120.077 22.7622V24.5173C119.764 24.7145 119.434 24.8557 119.089 24.9409C118.748 25.0306 118.316 25.0754 117.791 25.0754ZM124.993 23.4414C125.217 23.4414 125.435 23.4189 125.645 23.3741C125.86 23.3293 126.073 23.2732 126.284 23.206V24.7325C126.064 24.8311 125.791 24.9118 125.464 24.9745C125.141 25.0418 124.787 25.0754 124.401 25.0754C123.953 25.0754 123.55 25.0037 123.191 24.8602C122.837 24.7123 122.557 24.459 122.35 24.1004C122.149 23.7372 122.048 23.2329 122.048 22.5874V18.9629H121.066V18.0954L122.196 17.4095L122.787 15.8225H124.099V17.423H126.203V18.9629H124.099V22.5874C124.099 22.8743 124.179 23.0894 124.341 23.2329C124.507 23.3719 124.724 23.4414 124.993 23.4414ZM129.862 17.423V24.9409H127.811V17.423H129.862ZM128.839 14.4776C129.144 14.4776 129.407 14.5494 129.626 14.6928C129.846 14.8318 129.956 15.094 129.956 15.4796C129.956 15.8606 129.846 16.1251 129.626 16.2731C129.407 16.4165 129.144 16.4883 128.839 16.4883C128.53 16.4883 128.266 16.4165 128.046 16.2731C127.831 16.1251 127.723 15.8606 127.723 15.4796C127.723 15.094 127.831 14.8318 128.046 14.6928C128.266 14.5494 128.53 14.4776 128.839 14.4776ZM138.852 21.1685C138.852 21.7961 138.767 22.352 138.597 22.8362C138.431 23.3203 138.186 23.7305 137.864 24.0667C137.545 24.3985 137.16 24.6495 136.707 24.8199C136.259 24.9902 135.752 25.0754 135.187 25.0754C134.658 25.0754 134.172 24.9902 133.728 24.8199C133.289 24.6495 132.905 24.3985 132.578 24.0667C132.255 23.7305 132.004 23.3203 131.825 22.8362C131.65 22.352 131.563 21.7961 131.563 21.1685C131.563 20.3347 131.711 19.6286 132.007 19.0503C132.303 18.472 132.724 18.0326 133.271 17.7323C133.818 17.4319 134.47 17.2817 135.228 17.2817C135.932 17.2817 136.555 17.4319 137.097 17.7323C137.644 18.0326 138.072 18.472 138.381 19.0503C138.695 19.6286 138.852 20.3347 138.852 21.1685ZM133.654 21.1685C133.654 21.6616 133.708 22.0763 133.816 22.4125C133.923 22.7487 134.091 23.002 134.32 23.1724C134.549 23.3427 134.847 23.4279 135.214 23.4279C135.577 23.4279 135.871 23.3427 136.095 23.1724C136.324 23.002 136.49 22.7487 136.593 22.4125C136.7 22.0763 136.754 21.6616 136.754 21.1685C136.754 20.6709 136.7 20.2584 136.593 19.9312C136.49 19.5994 136.324 19.3506 136.095 19.1848C135.866 19.0189 135.568 18.936 135.201 18.936C134.658 18.936 134.264 19.122 134.017 19.4941C133.775 19.8662 133.654 20.4243 133.654 21.1685ZM144.817 17.2817C145.619 17.2817 146.265 17.5014 146.753 17.9407C147.242 18.3756 147.486 19.0749 147.486 20.0388V24.9409H145.435V20.5498C145.435 20.0119 145.337 19.6062 145.14 19.3327C144.947 19.0592 144.642 18.9225 144.225 18.9225C143.597 18.9225 143.169 19.1355 142.941 19.5613C142.712 19.9872 142.598 20.6014 142.598 21.4038V24.9409H140.547V17.423H142.114L142.389 18.3846H142.504C142.665 18.1245 142.864 17.9138 143.102 17.7525C143.344 17.5911 143.611 17.4723 143.902 17.3961C144.198 17.3198 144.503 17.2817 144.817 17.2817ZM160.007 21.1685C160.007 21.7961 159.922 22.352 159.752 22.8362C159.586 23.3203 159.342 23.7305 159.019 24.0667C158.701 24.3985 158.315 24.6495 157.862 24.8199C157.414 24.9902 156.907 25.0754 156.343 25.0754C155.814 25.0754 155.327 24.9902 154.883 24.8199C154.444 24.6495 154.061 24.3985 153.733 24.0667C153.411 23.7305 153.16 23.3203 152.98 22.8362C152.805 22.352 152.718 21.7961 152.718 21.1685C152.718 20.3347 152.866 19.6286 153.162 19.0503C153.458 18.472 153.879 18.0326 154.426 17.7323C154.973 17.4319 155.625 17.2817 156.383 17.2817C157.087 17.2817 157.71 17.4319 158.252 17.7323C158.799 18.0326 159.227 18.472 159.537 19.0503C159.85 19.6286 160.007 20.3347 160.007 21.1685ZM154.809 21.1685C154.809 21.6616 154.863 22.0763 154.971 22.4125C155.078 22.7487 155.246 23.002 155.475 23.1724C155.704 23.3427 156.002 23.4279 156.369 23.4279C156.733 23.4279 157.026 23.3427 157.25 23.1724C157.479 23.002 157.645 22.7487 157.748 22.4125C157.856 22.0763 157.909 21.6616 157.909 21.1685C157.909 20.6709 157.856 20.2584 157.748 19.9312C157.645 19.5994 157.479 19.3506 157.25 19.1848C157.022 19.0189 156.724 18.936 156.356 18.936C155.814 18.936 155.419 19.122 155.172 19.4941C154.93 19.8662 154.809 20.4243 154.809 21.1685ZM165.858 18.9629H164.082V24.9409H162.031V18.9629H160.902V17.9744L162.031 17.423V16.8715C162.031 16.2305 162.139 15.7329 162.354 15.3787C162.574 15.0201 162.881 14.769 163.275 14.6256C163.674 14.4776 164.145 14.4037 164.688 14.4037C165.087 14.4037 165.45 14.4373 165.777 14.5045C166.104 14.5673 166.371 14.639 166.577 14.7197L166.053 16.226C165.896 16.1767 165.725 16.1319 165.542 16.0915C165.358 16.0512 165.147 16.031 164.909 16.031C164.623 16.031 164.412 16.1184 164.277 16.2932C164.147 16.4636 164.082 16.6833 164.082 16.9522V17.423H165.858V18.9629ZM173.786 23.4414C174.01 23.4414 174.227 23.4189 174.438 23.3741C174.653 23.3293 174.866 23.2732 175.077 23.206V24.7325C174.857 24.8311 174.584 24.9118 174.257 24.9745C173.934 25.0418 173.58 25.0754 173.194 25.0754C172.746 25.0754 172.342 25.0037 171.984 24.8602C171.629 24.7123 171.349 24.459 171.143 24.1004C170.941 23.7372 170.84 23.2329 170.84 22.5874V18.9629H169.859V18.0954L170.988 17.4095L171.58 15.8225H172.891V17.423H174.996V18.9629H172.891V22.5874C172.891 22.8743 172.972 23.0894 173.134 23.2329C173.299 23.3719 173.517 23.4414 173.786 23.4414ZM178.654 14.4776V16.6093C178.654 16.9814 178.641 17.3355 178.614 17.6718C178.592 18.008 178.574 18.2456 178.56 18.3846H178.668C178.829 18.1245 179.02 17.9138 179.239 17.7525C179.463 17.5911 179.71 17.4723 179.979 17.3961C180.248 17.3198 180.537 17.2817 180.846 17.2817C181.389 17.2817 181.862 17.3781 182.265 17.5709C182.669 17.7592 182.983 18.0573 183.207 18.4652C183.431 18.8687 183.543 19.3932 183.543 20.0388V24.9409H181.492V20.5498C181.492 20.0119 181.393 19.6062 181.196 19.3327C180.999 19.0592 180.694 18.9225 180.282 18.9225C179.869 18.9225 179.544 19.0189 179.307 19.2117C179.069 19.4 178.901 19.6801 178.802 20.0522C178.704 20.4198 178.654 20.8704 178.654 21.4038V24.9409H176.603V14.4776H178.654ZM188.754 17.2817C189.449 17.2817 190.048 17.4162 190.55 17.6852C191.052 17.9497 191.44 18.3352 191.713 18.8418C191.987 19.3484 192.123 19.967 192.123 20.6978V21.693H187.275C187.298 22.2713 187.47 22.7263 187.793 23.0581C188.12 23.3853 188.573 23.549 189.151 23.549C189.631 23.549 190.07 23.4996 190.469 23.401C190.868 23.3024 191.278 23.1544 191.7 22.9572V24.5442C191.328 24.728 190.938 24.8625 190.53 24.9476C190.126 25.0328 189.635 25.0754 189.057 25.0754C188.304 25.0754 187.636 24.9364 187.053 24.6585C186.475 24.3805 186.02 23.9569 185.688 23.3876C185.361 22.8182 185.197 22.1009 185.197 21.2357C185.197 20.3571 185.345 19.6263 185.641 19.0436C185.941 18.4563 186.358 18.017 186.892 17.7256C187.425 17.4297 188.046 17.2817 188.754 17.2817ZM188.768 18.741C188.369 18.741 188.037 18.8687 187.773 19.1242C187.513 19.3798 187.363 19.781 187.322 20.3279H190.2C190.196 20.0231 190.14 19.7519 190.032 19.5143C189.929 19.2767 189.772 19.0884 189.561 18.9494C189.355 18.8104 189.091 18.741 188.768 18.741ZM108.276 36.423V43.9409H106.225V36.423H108.276ZM107.254 33.4776C107.559 33.4776 107.821 33.5494 108.041 33.6928C108.26 33.8318 108.37 34.094 108.37 34.4796C108.37 34.8606 108.26 35.1251 108.041 35.2731C107.821 35.4165 107.559 35.4883 107.254 35.4883C106.945 35.4883 106.68 35.4165 106.46 35.2731C106.245 35.1251 106.138 34.8606 106.138 34.4796C106.138 34.094 106.245 33.8318 106.46 33.6928C106.68 33.5494 106.945 33.4776 107.254 33.4776ZM114.705 36.2817C115.507 36.2817 116.153 36.5014 116.641 36.9407C117.13 37.3756 117.374 38.0749 117.374 39.0388V43.9409H115.323V39.5498C115.323 39.0119 115.225 38.6062 115.027 38.3327C114.835 38.0592 114.53 37.9225 114.113 37.9225C113.485 37.9225 113.057 38.1355 112.828 38.5613C112.6 38.9872 112.485 39.6014 112.485 40.4038V43.9409H110.435V36.423H112.001L112.277 37.3846H112.391C112.553 37.1245 112.752 36.9138 112.99 36.7525C113.232 36.5911 113.499 36.4723 113.79 36.3961C114.086 36.3198 114.391 36.2817 114.705 36.2817ZM124.731 41.7084C124.731 42.2195 124.61 42.6521 124.368 43.0062C124.13 43.3559 123.774 43.6226 123.298 43.8064C122.823 43.9857 122.232 44.0754 121.523 44.0754C120.999 44.0754 120.548 44.0418 120.172 43.9745C119.799 43.9073 119.423 43.7952 119.042 43.6383V41.9437C119.45 42.1276 119.887 42.28 120.353 42.401C120.824 42.5176 121.236 42.5758 121.59 42.5758C121.989 42.5758 122.274 42.5176 122.444 42.401C122.619 42.28 122.707 42.1231 122.707 41.9303C122.707 41.8048 122.671 41.6927 122.599 41.5941C122.532 41.491 122.384 41.3767 122.155 41.2511C121.927 41.1211 121.568 40.953 121.079 40.7468C120.609 40.5495 120.221 40.35 119.916 40.1483C119.616 39.9466 119.392 39.709 119.244 39.4355C119.1 39.1576 119.028 38.8057 119.028 38.3798C119.028 37.6849 119.297 37.1626 119.835 36.813C120.378 36.4588 121.102 36.2817 122.007 36.2817C122.474 36.2817 122.917 36.3288 123.339 36.423C123.765 36.5171 124.202 36.6673 124.65 36.8735L124.031 38.3529C123.659 38.1915 123.307 38.0592 122.976 37.9561C122.648 37.853 122.314 37.8015 121.974 37.8015C121.673 37.8015 121.447 37.8418 121.295 37.9225C121.142 38.0032 121.066 38.1265 121.066 38.2924C121.066 38.4134 121.104 38.521 121.18 38.6151C121.261 38.7093 121.413 38.8146 121.638 38.9312C121.866 39.0433 122.2 39.189 122.639 39.3683C123.065 39.5431 123.435 39.7269 123.749 39.9197C124.063 40.108 124.305 40.3433 124.475 40.6258C124.646 40.9037 124.731 41.2646 124.731 41.7084ZM133.23 36.423V43.9409H131.657L131.381 42.9793H131.274C131.112 43.2348 130.911 43.4433 130.668 43.6047C130.426 43.7661 130.16 43.8849 129.868 43.9611C129.577 44.0373 129.274 44.0754 128.96 44.0754C128.422 44.0754 127.954 43.9813 127.555 43.793C127.156 43.6002 126.844 43.3021 126.62 42.8986C126.401 42.4952 126.291 41.9706 126.291 41.3251V36.423H128.342V40.814C128.342 41.352 128.438 41.7577 128.631 42.0312C128.824 42.3046 129.131 42.4414 129.552 42.4414C129.969 42.4414 130.296 42.3472 130.534 42.1589C130.772 41.9662 130.937 41.686 131.032 41.3184C131.13 40.9463 131.18 40.4935 131.18 39.96V36.423H133.23ZM139.578 36.2817C139.682 36.2817 139.8 36.2885 139.935 36.3019C140.074 36.3109 140.186 36.3243 140.271 36.3423L140.116 38.2655C140.049 38.243 139.953 38.2274 139.827 38.2184C139.706 38.2049 139.601 38.1982 139.511 38.1982C139.247 38.1982 138.989 38.2318 138.738 38.2991C138.491 38.3663 138.269 38.4762 138.072 38.6286C137.875 38.7765 137.718 38.9738 137.601 39.2203C137.489 39.4624 137.433 39.7605 137.433 40.1147V43.9409H135.382V36.423H136.936L137.238 37.6872H137.339C137.487 37.4316 137.671 37.1985 137.891 36.9878C138.115 36.7726 138.368 36.6023 138.65 36.4768C138.937 36.3467 139.247 36.2817 139.578 36.2817ZM144.716 36.2683C145.725 36.2683 146.498 36.488 147.036 36.9273C147.574 37.3666 147.843 38.0346 147.843 38.9312V43.9409H146.41L146.014 42.9188H145.96C145.745 43.1878 145.525 43.4074 145.301 43.5778C145.077 43.7481 144.819 43.8737 144.528 43.9544C144.236 44.0351 143.882 44.0754 143.465 44.0754C143.021 44.0754 142.622 43.9902 142.268 43.8199C141.919 43.6495 141.643 43.3895 141.441 43.0398C141.239 42.6857 141.138 42.2374 141.138 41.6949C141.138 40.897 141.419 40.3097 141.979 39.9331C142.539 39.5521 143.38 39.3414 144.501 39.301L145.805 39.2607V38.9312C145.805 38.5367 145.702 38.2475 145.496 38.0637C145.29 37.8799 145.003 37.788 144.635 37.788C144.272 37.788 143.916 37.8396 143.566 37.9427C143.216 38.0458 142.867 38.1758 142.517 38.3327L141.838 36.9475C142.237 36.7368 142.683 36.5709 143.176 36.4499C143.674 36.3288 144.187 36.2683 144.716 36.2683ZM145.805 40.4576L145.012 40.4845C144.348 40.5025 143.887 40.6213 143.627 40.8409C143.371 41.0606 143.243 41.3498 143.243 41.7084C143.243 42.0222 143.335 42.2464 143.519 42.3808C143.703 42.5108 143.943 42.5758 144.238 42.5758C144.678 42.5758 145.048 42.4458 145.348 42.1858C145.653 41.9258 145.805 41.556 145.805 41.0763V40.4576ZM154.231 36.2817C155.033 36.2817 155.679 36.5014 156.168 36.9407C156.656 37.3756 156.901 38.0749 156.901 39.0388V43.9409H154.85V39.5498C154.85 39.0119 154.751 38.6062 154.554 38.3327C154.361 38.0592 154.056 37.9225 153.639 37.9225C153.012 37.9225 152.584 38.1355 152.355 38.5613C152.126 38.9872 152.012 39.6014 152.012 40.4038V43.9409H149.961V36.423H151.528L151.803 37.3846H151.918C152.079 37.1245 152.279 36.9138 152.516 36.7525C152.758 36.5911 153.025 36.4723 153.316 36.3961C153.612 36.3198 153.917 36.2817 154.231 36.2817ZM162.065 44.0754C161.321 44.0754 160.687 43.9409 160.162 43.6719C159.638 43.3985 159.239 42.9771 158.965 42.4077C158.692 41.8384 158.555 41.1099 158.555 40.2223C158.555 39.3033 158.71 38.5546 159.019 37.9763C159.333 37.3935 159.765 36.9654 160.317 36.6919C160.873 36.4185 161.516 36.2817 162.247 36.2817C162.767 36.2817 163.215 36.3333 163.592 36.4364C163.973 36.535 164.304 36.6538 164.587 36.7928L163.982 38.3798C163.659 38.2498 163.358 38.1444 163.08 38.0637C162.802 37.9786 162.525 37.936 162.247 37.936C161.888 37.936 161.59 38.0211 161.352 38.1915C161.115 38.3574 160.938 38.6084 160.821 38.9446C160.704 39.2809 160.646 39.7023 160.646 40.2088C160.646 40.7064 160.709 41.1189 160.834 41.4461C160.96 41.7734 161.142 42.0177 161.379 42.1791C161.617 42.336 161.906 42.4145 162.247 42.4145C162.672 42.4145 163.051 42.3584 163.383 42.2464C163.715 42.1298 164.038 41.9684 164.351 41.7622V43.5173C164.038 43.7145 163.708 43.8557 163.363 43.9409C163.022 44.0306 162.59 44.0754 162.065 44.0754ZM169.2 36.2817C169.895 36.2817 170.493 36.4162 170.995 36.6852C171.497 36.9497 171.885 37.3352 172.158 37.8418C172.432 38.3484 172.569 38.967 172.569 39.6978V40.693H167.72C167.743 41.2713 167.915 41.7263 168.238 42.0581C168.565 42.3853 169.018 42.549 169.596 42.549C170.076 42.549 170.515 42.4996 170.914 42.401C171.313 42.3024 171.724 42.1544 172.145 41.9572V43.5442C171.773 43.728 171.383 43.8625 170.975 43.9476C170.572 44.0328 170.081 44.0754 169.502 44.0754C168.749 44.0754 168.081 43.9364 167.498 43.6585C166.92 43.3805 166.465 42.9569 166.133 42.3876C165.806 41.8182 165.642 41.1009 165.642 40.2357C165.642 39.3571 165.79 38.6263 166.086 38.0436C166.387 37.4563 166.804 37.017 167.337 36.7256C167.871 36.4297 168.491 36.2817 169.2 36.2817ZM169.213 37.741C168.814 37.741 168.482 37.8687 168.218 38.1242C167.958 38.3798 167.808 38.781 167.767 39.3279H170.645C170.641 39.0231 170.585 38.7519 170.477 38.5143C170.374 38.2767 170.217 38.0884 170.007 37.9494C169.8 37.8104 169.536 37.741 169.213 37.741Z" fill="#030620"/>
<rect x="105.115" y="114.738" width="42.8204" height="42.8204" fill="#E993B7"/>
<rect x="108.684" y="117.115" width="34.4942" height="2.37891" rx="1.18945" fill="white"/>
<rect x="108.684" y="121.874" width="20.2207" height="2.37891" rx="1.18945" fill="white"/>
<rect x="108.684" y="126.632" width="32.1153" height="2.37891" rx="1.18945" fill="white"/>
<rect x="73" y="85" width="42.8204" height="42.8204" fill="#801060"/>
<rect x="76.5684" y="94.5168" width="34.4942" height="2.37891" rx="1.18945" fill="white"/>
<rect x="76.5684" y="89.7573" width="23.7891" height="2.37891" rx="1.18945" fill="white"/>
<rect x="76.5684" y="99.2754" width="23.7891" height="2.37891" rx="1.18945" fill="white"/>
<rect x="76.5684" y="104.031" width="13.0732" height="2.37695" rx="1.18847" fill="white"/>
<rect x="76.5684" y="108.789" width="5.93456" height="2.37382" rx="1.18691" fill="white"/>
</svg>
