<svg width="224" height="104" viewBox="0 0 224 104" fill="none" xmlns="http://www.w3.org/2000/svg">
<path id="Vector" d="M44.7335 45.9796V46.3622L44.3642 46.4622C31.758 49.8763 20.6345 57.3087 12.708 67.6128C4.88354 77.7844 0.603027 90.1969 0.501877 102.981H223.024L223.024 78.3054L223.024 78.305C223.032 67.5195 220.06 56.9378 214.43 47.7103C208.8 38.4828 200.727 30.9624 191.089 25.9671C181.451 20.9717 170.617 18.6928 159.764 19.3784C148.911 20.0639 138.456 23.6877 129.535 29.8553L128.998 30.2264L128.779 29.6116C125.382 20.0608 118.688 12.0093 109.881 6.88278C101.074 1.75616 90.7219 -0.114567 80.6575 1.60226C70.5932 3.31907 61.4664 8.51243 54.892 16.2622C48.3177 24.0119 44.7196 33.8184 44.7335 43.9459V43.9465V43.9505V43.9545V43.9585V43.9624V43.9664V43.9704V43.9743V43.9783V43.9823V43.9862V43.9902V43.9942V43.9982V44.0021V44.0061V44.0101V44.014V44.018V44.022V44.026V44.0299V44.0339V44.0379V44.0418V44.0458V44.0498V44.0537V44.0577V44.0617V44.0657V44.0696V44.0736V44.0776V44.0815V44.0855V44.0895V44.0935V44.0974V44.1014V44.1054V44.1093V44.1133V44.1173V44.1213V44.1252V44.1292V44.1332V44.1371V44.1411V44.1451V44.1491V44.153V44.157V44.161V44.1649V44.1689V44.1729V44.1768V44.1808V44.1848V44.1888V44.1927V44.1967V44.2007V44.2046V44.2086V44.2126V44.2166V44.2205V44.2245V44.2285V44.2324V44.2364V44.2404V44.2444V44.2483V44.2523V44.2563V44.2602V44.2642V44.2682V44.2721V44.2761V44.2801V44.2841V44.288V44.292V44.296V44.2999V44.3039V44.3079V44.3119V44.3158V44.3198V44.3238V44.3277V44.3317V44.3357V44.3397V44.3436V44.3476V44.3516V44.3555V44.3595V44.3635V44.3674V44.3714V44.3754V44.3794V44.3833V44.3873V44.3913V44.3952V44.3992V44.4032V44.4072V44.4111V44.4151V44.4191V44.423V44.427V44.431V44.435V44.4389V44.4429V44.4469V44.4508V44.4548V44.4588V44.4627V44.4667V44.4707V44.4747V44.4786V44.4826V44.4866V44.4905V44.4945V44.4985V44.5025V44.5064V44.5104V44.5144V44.5183V44.5223V44.5263V44.5303V44.5342V44.5382V44.5422V44.5461V44.5501V44.5541V44.558V44.562V44.566V44.57V44.5739V44.5779V44.5819V44.5858V44.5898V44.5938V44.5978V44.6017V44.6057V44.6097V44.6136V44.6176V44.6216V44.6256V44.6295V44.6335V44.6375V44.6414V44.6454V44.6494V44.6534V44.6573V44.6613V44.6653V44.6692V44.6732V44.6772V44.6811V44.6851V44.6891V44.6931V44.697V44.701V44.705V44.7089V44.7129V44.7169V44.7209V44.7248V44.7288V44.7328V44.7367V44.7407V44.7447V44.7487V44.7526V44.7566V44.7606V44.7645V44.7685V44.7725V44.7764V44.7804V44.7844V44.7884V44.7923V44.7963V44.8003V44.8042V44.8082V44.8122V44.8162V44.8201V44.8241V44.8281V44.832V44.836V44.84V44.844V44.8479V44.8519V44.8559V44.8598V44.8638V44.8678V44.8717V44.8757V44.8797V44.8837V44.8876V44.8916V44.8956V44.8995V44.9035V44.9075V44.9115V44.9154V44.9194V44.9234V44.9273V44.9313V44.9353V44.9393V44.9432V44.9472V44.9512V44.9551V44.9591V44.9631V44.967V44.971V44.975V44.979V44.9829V44.9869V44.9909V44.9948V44.9988V45.0028V45.0068V45.0107V45.0147V45.0187V45.0226V45.0266V45.0306V45.0346V45.0385V45.0425V45.0465V45.0504V45.0544V45.0584V45.0624V45.0663V45.0703V45.0743V45.0782V45.0822V45.0862V45.0901V45.0941V45.0981V45.1021V45.106V45.11V45.114V45.1179V45.1219V45.1259V45.1299V45.1338V45.1378V45.1418V45.1457V45.1497V45.1537V45.1577V45.1616V45.1656V45.1696V45.1735V45.1775V45.1815V45.1854V45.1894V45.1934V45.1974V45.2013V45.2053V45.2093V45.2132V45.2172V45.2212V45.2252V45.2291V45.2331V45.2371V45.241V45.245V45.249V45.253V45.2569V45.2609V45.2649V45.2688V45.2728V45.2768V45.2808V45.2847V45.2887V45.2927V45.2966V45.3006V45.3046V45.3085V45.3125V45.3165V45.3205V45.3244V45.3284V45.3324V45.3363V45.3403V45.3443V45.3483V45.3522V45.3562V45.3602V45.3641V45.3681V45.3721V45.3761V45.38V45.384V45.388V45.3919V45.3959V45.3999V45.4038V45.4078V45.4118V45.4158V45.4197V45.4237V45.4277V45.4316V45.4356V45.4396V45.4436V45.4475V45.4515V45.4555V45.4594V45.4634V45.4674V45.4714V45.4753V45.4793V45.4833V45.4872V45.4912V45.4952V45.4991V45.5031V45.5071V45.5111V45.515V45.519V45.523V45.5269V45.5309V45.5349V45.5389V45.5428V45.5468V45.5508V45.5547V45.5587V45.5627V45.5667V45.5706V45.5746V45.5786V45.5825V45.5865V45.5905V45.5944V45.5984V45.6024V45.6064V45.6103V45.6143V45.6183V45.6222V45.6262V45.6302V45.6342V45.6381V45.6421V45.6461V45.65V45.654V45.658V45.662V45.6659V45.6699V45.6739V45.6778V45.6818V45.6858V45.6898V45.6937V45.6977V45.7017V45.7056V45.7096V45.7136V45.7175V45.7215V45.7255V45.7295V45.7334V45.7374V45.7414V45.7453V45.7493V45.7533V45.7573V45.7612V45.7652V45.7692V45.7731V45.7771V45.7811V45.785V45.789V45.793V45.797V45.8009V45.8049V45.8089V45.8128V45.8168V45.8208V45.8248V45.8287V45.8327V45.8367V45.8406V45.8446V45.8486V45.8526V45.8565V45.8605V45.8645V45.8684V45.8724V45.8764V45.8804V45.8843V45.8883V45.8923V45.8962V45.9002V45.9042V45.9081V45.9121V45.9161V45.9201V45.924V45.928V45.932V45.9359V45.9399V45.9439V45.9479V45.9518V45.9558V45.9598V45.9637V45.9677V45.9717V45.9757V45.9796Z" stroke="#E993B7"/>
</svg>
