<svg width="427" height="113" viewBox="0 0 427 113" fill="none" xmlns="http://www.w3.org/2000/svg">
<path d="M0.5 3.60043C0.5 1.61196 2.11197 0 4.10043 0H139.144V23.8528H4.10043C2.11197 23.8528 0.5 22.2409 0.5 20.2524V3.60043Z" fill="#6A88FE" fill-opacity="0.2"/>
<rect x="0.725027" y="0.225027" width="425.55" height="23.4028" rx="3.3754" stroke="#E6E6E6" stroke-width="0.450054"/>
<path d="M10.3775 7.4576C11.0092 7.4576 11.5304 7.53657 11.941 7.69449C12.3551 7.84891 12.6639 8.08579 12.8675 8.40515C13.071 8.72451 13.1728 9.13161 13.1728 9.62644C13.1728 10.0335 13.0991 10.3739 12.9517 10.6477C12.8043 10.9179 12.6113 11.1373 12.3727 11.3057C12.134 11.4742 11.8796 11.604 11.6094 11.6953L13.7203 15.1538H12.678L10.7934 11.9427H9.1931V15.1538H8.29819V7.4576H10.3775ZM10.3249 8.23144H9.1931V11.1846H10.4144C11.0426 11.1846 11.5041 11.0565 11.7989 10.8003C12.0972 10.5442 12.2463 10.1669 12.2463 9.66855C12.2463 9.14564 12.0884 8.7754 11.7725 8.55781C11.4602 8.34023 10.9777 8.23144 10.3249 8.23144ZM20.7743 7.4576V12.4375C20.7743 12.9815 20.6637 13.4658 20.4426 13.8904C20.225 14.3151 19.8951 14.6502 19.453 14.8959C19.0108 15.138 18.4563 15.2591 17.7895 15.2591C16.8384 15.2591 16.1137 15.0011 15.6154 14.4853C15.1205 13.9694 14.8731 13.2798 14.8731 12.4164V7.4576H15.7733V12.4428C15.7733 13.0955 15.9453 13.5991 16.2892 13.9536C16.6366 14.308 17.1543 14.4853 17.8421 14.4853C18.3124 14.4853 18.6967 14.401 18.995 14.2326C19.2968 14.0606 19.5196 13.822 19.6635 13.5167C19.8109 13.2078 19.8846 12.8516 19.8846 12.448V7.4576H20.7743ZM25.1804 15.1538H24.2802V8.24723H21.8587V7.4576H27.5913V8.24723H25.1804V15.1538Z" fill="#4F4F4F"/>
<path d="M356.055 10.218C356.055 10.5725 355.981 10.8796 355.833 11.1393C355.686 11.399 355.486 11.6113 355.233 11.7762C354.984 11.9412 354.703 12.0623 354.391 12.1395V12.1711C355.009 12.2483 355.477 12.4378 355.797 12.7396C356.119 13.0414 356.281 13.445 356.281 13.9503C356.281 14.3995 356.17 14.8014 355.949 15.1558C355.732 15.5103 355.395 15.7893 354.939 15.9928C354.482 16.1964 353.894 16.2982 353.175 16.2982C352.75 16.2982 352.354 16.2631 351.985 16.1929C351.62 16.1262 351.276 16.0227 350.954 15.8823V14.4978C351.283 14.6663 351.629 14.7944 351.991 14.8821C352.352 14.9663 352.689 15.0084 353.001 15.0084C353.584 15.0084 353.991 14.9084 354.223 14.7084C354.458 14.5048 354.575 14.2206 354.575 13.8556C354.575 13.6415 354.521 13.4608 354.412 13.3134C354.303 13.166 354.114 13.0537 353.844 12.9765C353.577 12.8993 353.203 12.8607 352.722 12.8607H352.138V11.6131H352.733C353.207 11.6131 353.566 11.5692 353.812 11.4814C354.061 11.3902 354.23 11.2674 354.317 11.113C354.409 10.955 354.454 10.776 354.454 10.576C354.454 10.3023 354.37 10.0882 354.202 9.93378C354.033 9.77937 353.752 9.70216 353.359 9.70216C353.114 9.70216 352.889 9.73374 352.685 9.79691C352.485 9.85657 352.305 9.93027 352.143 10.018C351.982 10.1022 351.84 10.1847 351.717 10.2654L350.964 9.14416C351.266 8.92657 351.619 8.74584 352.022 8.60195C352.429 8.45806 352.914 8.38612 353.475 8.38612C354.268 8.38612 354.896 8.5458 355.36 8.86516C355.823 9.18452 356.055 9.63548 356.055 10.218ZM362.524 16.1929H357.144V15.0611L359.076 13.1081C359.466 12.708 359.778 12.3746 360.013 12.1079C360.252 11.8377 360.424 11.592 360.529 11.3709C360.638 11.1498 360.692 10.9129 360.692 10.6602C360.692 10.3549 360.606 10.1268 360.434 9.9759C360.266 9.82148 360.04 9.74427 359.755 9.74427C359.457 9.74427 359.167 9.81271 358.887 9.94957C358.606 10.0864 358.313 10.2812 358.008 10.5339L357.123 9.48633C357.344 9.29682 357.578 9.11784 357.823 8.94938C358.072 8.78093 358.36 8.64582 358.687 8.54404C359.017 8.43876 359.411 8.38612 359.871 8.38612C360.376 8.38612 360.81 8.47736 361.171 8.65986C361.536 8.84235 361.817 9.09152 362.014 9.40737C362.21 9.71971 362.308 10.0742 362.308 10.4707C362.308 10.8954 362.224 11.2832 362.056 11.6341C361.887 11.9851 361.642 12.3325 361.319 12.6764C360.999 13.0203 360.613 13.4011 360.161 13.8187L359.171 14.7505V14.8242H362.524V16.1929ZM365.03 8.38612C365.634 8.38612 366.092 8.59669 366.404 9.01782C366.716 9.43895 366.872 10.0303 366.872 10.7918C366.872 11.5534 366.725 12.1482 366.43 12.5764C366.135 13.0045 365.669 13.2186 365.03 13.2186C364.437 13.2186 363.986 13.0045 363.677 12.5764C363.368 12.1482 363.214 11.5534 363.214 10.7918C363.214 10.0303 363.358 9.43895 363.645 9.01782C363.937 8.59669 364.398 8.38612 365.03 8.38612ZM365.04 9.48633C364.869 9.48633 364.742 9.59512 364.661 9.81271C364.581 10.0303 364.54 10.3602 364.54 10.8024C364.54 11.2446 364.581 11.5762 364.661 11.7973C364.742 12.0184 364.869 12.1289 365.04 12.1289C365.212 12.1289 365.339 12.0201 365.419 11.8026C365.504 11.5815 365.546 11.2481 365.546 10.8024C365.546 10.3602 365.504 10.0303 365.419 9.81271C365.339 9.59512 365.212 9.48633 365.04 9.48633ZM370.494 8.49667L366.225 16.1929H364.962L369.231 8.49667H370.494ZM370.42 11.4604C371.024 11.4604 371.482 11.671 371.794 12.0921C372.107 12.5132 372.263 13.1046 372.263 13.8661C372.263 14.6242 372.116 15.2172 371.821 15.6454C371.526 16.0736 371.059 16.2876 370.42 16.2876C369.827 16.2876 369.376 16.0736 369.068 15.6454C368.759 15.2172 368.604 14.6242 368.604 13.8661C368.604 13.1046 368.748 12.5132 369.036 12.0921C369.327 11.671 369.789 11.4604 370.42 11.4604ZM370.431 12.5606C370.259 12.5606 370.133 12.6694 370.052 12.887C369.971 13.1046 369.931 13.4345 369.931 13.8766C369.931 14.3188 369.971 14.6505 370.052 14.8716C370.133 15.0927 370.259 15.2032 370.431 15.2032C370.603 15.2032 370.729 15.0944 370.81 14.8768C370.894 14.6557 370.936 14.3223 370.936 13.8766C370.936 13.4345 370.894 13.1046 370.81 12.887C370.729 12.6694 370.603 12.5606 370.431 12.5606Z" fill="#4168FF"/>
<path d="M401.748 15.8516H401.036V11.2983C401.036 11.1254 401.036 10.9774 401.036 10.8544C401.039 10.7284 401.042 10.6141 401.045 10.5116C401.051 10.4061 401.058 10.2991 401.067 10.1907C400.976 10.2845 400.891 10.3651 400.812 10.4325C400.733 10.4969 400.635 10.5775 400.518 10.6742L399.784 11.2631L399.401 10.7665L401.142 9.42599H401.748V15.8516ZM408.394 15.8516H404.183V15.2407L405.902 13.4958C406.221 13.1735 406.489 12.8864 406.706 12.6344C406.926 12.3824 407.093 12.1348 407.207 11.8916C407.321 11.6455 407.378 11.3759 407.378 11.0829C407.378 10.7196 407.27 10.4427 407.053 10.2523C406.839 10.0589 406.557 9.96219 406.205 9.96219C405.897 9.96219 405.625 10.0149 405.388 10.1204C405.15 10.2259 404.907 10.3753 404.658 10.5687L404.267 10.0765C404.437 9.93289 404.621 9.80543 404.821 9.69409C405.023 9.58275 405.238 9.49485 405.467 9.43039C405.698 9.36593 405.944 9.3337 406.205 9.3337C406.601 9.3337 406.942 9.40255 407.229 9.54027C407.516 9.67798 407.737 9.87429 407.893 10.1292C408.051 10.3841 408.13 10.6874 408.13 11.039C408.13 11.3789 408.063 11.6953 407.928 11.9883C407.793 12.2784 407.604 12.567 407.361 12.8541C407.118 13.1383 406.833 13.4401 406.508 13.7595L405.111 15.1527V15.1835H408.394V15.8516Z" fill="#666666"/>
<path d="M386.945 12.6429C386.945 12.6429 388.691 13.9586 390.371 12.5908C390.371 12.5908 392.716 12.695 393.094 16.4207L386.502 16.3556L385.056 16.3816L384.613 16.1993C384.613 16.1993 384.288 13.2682 386.945 12.6429Z" fill="#4168FF"/>
<path opacity="0.2" d="M390.97 9.28159C390.97 10.5582 389.928 11.6004 388.652 11.6004C387.987 11.6004 387.388 11.3268 386.971 10.8709C387.61 11.0142 389.029 11.2096 389.759 10.3628C390.488 9.5291 390.515 8.36971 390.475 7.84863C390.788 8.25247 390.97 8.74749 390.97 9.28159Z" fill="#4168FF"/>
<path d="M390.189 11.8872C391.218 11.288 391.791 10.1286 391.661 8.93009C391.504 7.54923 390.384 6.42892 389.003 6.2726C388.143 6.18141 387.284 6.45497 386.645 7.02816C386.007 7.60134 385.629 8.42204 385.629 9.28181C385.629 10.35 386.202 11.3401 387.114 11.8872C386.867 11.9654 386.619 12.0696 386.398 12.1998C386.372 12.2129 386.333 12.2389 386.307 12.265C385.343 12.8121 383.779 14.1018 383.936 16.5378L383.962 16.8374H384.548C384.835 16.8374 385.069 16.6029 385.069 16.3163V16.1861H384.613C384.613 14.5577 385.512 13.5937 386.307 13.0596L386.411 12.9945C387.075 12.5646 387.857 12.3301 388.651 12.3301C390.814 12.3301 392.599 13.9845 392.768 16.1209H386.502V16.2512C386.502 16.5639 386.763 16.8244 387.075 16.8244H393.497V16.4727C393.484 14.3884 392.143 12.5385 390.189 11.8872ZM386.333 9.28181C386.333 8.00518 387.375 6.96302 388.651 6.96302C389.394 6.96302 390.058 7.31475 390.475 7.86188C390.788 8.25269 390.97 8.74771 390.97 9.29484C390.97 10.5715 389.928 11.6136 388.651 11.6136C387.987 11.6136 387.388 11.3401 386.971 10.8841C386.567 10.4673 386.333 9.9071 386.333 9.28181Z" fill="#121A67"/>
<path d="M0.500244 33.305C0.500244 31.3166 2.11221 29.7046 4.10067 29.7046H255.368V53.5574H4.10067C2.11221 53.5574 0.500244 51.9455 0.500244 49.957V33.305Z" fill="#6A88FE" fill-opacity="0.2"/>
<rect x="0.725271" y="29.9296" width="425.55" height="23.4028" rx="3.3754" stroke="#E6E6E6" stroke-width="0.450054"/>
<path d="M8.29819 45.0088V37.3126H9.1931V44.2086H12.6095V45.0088H8.29819ZM14.6731 39.2393V45.0088H13.7992V39.2393H14.6731ZM14.2467 37.081C14.3906 37.081 14.5134 37.1283 14.6152 37.2231C14.7205 37.3143 14.7731 37.4582 14.7731 37.6548C14.7731 37.8478 14.7205 37.9917 14.6152 38.0864C14.5134 38.1812 14.3906 38.2285 14.2467 38.2285C14.0958 38.2285 13.9695 38.1812 13.8677 38.0864C13.7694 37.9917 13.7203 37.8478 13.7203 37.6548C13.7203 37.4582 13.7694 37.3143 13.8677 37.2231C13.9695 37.1283 14.0958 37.081 14.2467 37.081ZM18.837 45.1141C18.3176 45.1141 17.8597 45.007 17.4631 44.793C17.0665 44.5789 16.7577 44.2525 16.5366 43.8138C16.3155 43.3751 16.205 42.8224 16.205 42.1556C16.205 41.4572 16.3208 40.887 16.5524 40.4448C16.7875 39.9991 17.1104 39.6692 17.521 39.4551C17.9316 39.241 18.3984 39.134 18.9213 39.134C19.209 39.134 19.4863 39.1638 19.753 39.2235C20.0232 39.2796 20.2443 39.3516 20.4163 39.4393L20.1531 40.171C19.9776 40.1008 19.7741 40.0377 19.5424 39.9815C19.3143 39.9254 19.1003 39.8973 18.9002 39.8973C18.5001 39.8973 18.1667 39.9833 17.9 40.1552C17.6368 40.3272 17.4385 40.5799 17.3052 40.9133C17.1753 41.2467 17.1104 41.6573 17.1104 42.1451C17.1104 42.6118 17.1736 43.0102 17.2999 43.34C17.4298 43.6699 17.621 43.9226 17.8737 44.0981C18.1299 44.2701 18.4493 44.356 18.8318 44.356C19.1371 44.356 19.4126 44.3244 19.6583 44.2613C19.9039 44.1946 20.1268 44.1174 20.3268 44.0297V44.8088C20.1338 44.907 19.918 44.9825 19.6793 45.0351C19.4442 45.0878 19.1634 45.1141 18.837 45.1141ZM23.917 39.134C24.4083 39.134 24.8294 39.2428 25.1804 39.4604C25.5313 39.6779 25.7998 39.9833 25.9858 40.3763C26.1718 40.7659 26.2648 41.2221 26.2648 41.745V42.2872H22.2798C22.2903 42.9645 22.4588 43.4804 22.7852 43.8349C23.1115 44.1893 23.5713 44.3666 24.1644 44.3666C24.5294 44.3666 24.8522 44.3332 25.133 44.2665C25.4137 44.1999 25.705 44.1016 26.0068 43.9717V44.7403C25.7156 44.8702 25.426 44.9649 25.1382 45.0246C24.854 45.0842 24.5171 45.1141 24.1275 45.1141C23.573 45.1141 23.0887 45.0018 22.6746 44.7772C22.264 44.5491 21.9447 44.2157 21.7165 43.777C21.4884 43.3383 21.3744 42.8014 21.3744 42.1661C21.3744 41.545 21.4779 41.008 21.685 40.5553C21.8955 40.0991 22.1903 39.7481 22.5693 39.5025C22.9519 39.2568 23.4011 39.134 23.917 39.134ZM23.9064 39.8499C23.4397 39.8499 23.0677 40.0026 22.7904 40.3079C22.5132 40.6132 22.3482 41.0396 22.2956 41.5871H25.3488C25.3453 41.2432 25.2909 40.9413 25.1856 40.6816C25.0839 40.4184 24.9277 40.2149 24.7171 40.071C24.5065 39.9236 24.2363 39.8499 23.9064 39.8499ZM30.4814 39.134C31.1657 39.134 31.6834 39.3024 32.0343 39.6393C32.3852 39.9727 32.5607 40.5097 32.5607 41.2502V45.0088H31.6974V41.3081C31.6974 40.8273 31.5868 40.4676 31.3658 40.2289C31.1482 39.9903 30.813 39.871 30.3603 39.871C29.7216 39.871 29.2724 40.0517 29.0127 40.4132C28.753 40.7746 28.6231 41.2993 28.6231 41.9872V45.0088H27.7493V39.2393H28.4547L28.5863 40.071H28.6337C28.7565 39.8675 28.9127 39.6972 29.1022 39.5604C29.2917 39.42 29.504 39.3147 29.7391 39.2445C29.9743 39.1708 30.2217 39.134 30.4814 39.134ZM38.0934 43.4295C38.0934 43.798 38.0004 44.1086 37.8144 44.3613C37.6319 44.6105 37.3687 44.7982 37.0247 44.9246C36.6843 45.0509 36.2772 45.1141 35.8034 45.1141C35.3999 45.1141 35.0507 45.0825 34.7559 45.0193C34.4611 44.9561 34.2031 44.8667 33.982 44.7508V43.9454C34.2172 44.0612 34.4979 44.1665 34.8243 44.2613C35.1507 44.356 35.4841 44.4034 35.8245 44.4034C36.3228 44.4034 36.6843 44.3227 36.9089 44.1613C37.1335 43.9998 37.2458 43.7805 37.2458 43.5032C37.2458 43.3453 37.2002 43.2067 37.109 43.0874C37.0212 42.9645 36.8721 42.847 36.6615 42.7347C36.4509 42.6189 36.1596 42.4925 35.7876 42.3557C35.4192 42.2153 35.0998 42.0767 34.8296 41.9398C34.5629 41.7994 34.3558 41.6292 34.2084 41.4292C34.0645 41.2291 33.9926 40.9694 33.9926 40.6501C33.9926 40.1623 34.1891 39.7885 34.5822 39.5288C34.9787 39.2656 35.4981 39.134 36.1403 39.134C36.4878 39.134 36.8124 39.1691 37.1142 39.2393C37.4195 39.3059 37.7038 39.3972 37.967 39.513L37.6722 40.2131C37.4336 40.1114 37.1791 40.0254 36.9089 39.9552C36.6387 39.885 36.3632 39.8499 36.0824 39.8499C35.6789 39.8499 35.3683 39.9166 35.1507 40.0499C34.9366 40.1833 34.8296 40.3658 34.8296 40.5974C34.8296 40.7764 34.8787 40.9238 34.977 41.0396C35.0787 41.1554 35.2402 41.2642 35.4613 41.366C35.6824 41.4678 35.9736 41.5871 36.3351 41.724C36.6966 41.8573 37.0089 41.9959 37.2721 42.1398C37.5354 42.2802 37.7371 42.4522 37.8775 42.6557C38.0214 42.8557 38.0934 43.1137 38.0934 43.4295ZM41.7204 39.134C42.2117 39.134 42.6328 39.2428 42.9838 39.4604C43.3347 39.6779 43.6032 39.9833 43.7892 40.3763C43.9752 40.7659 44.0682 41.2221 44.0682 41.745V42.2872H40.0832C40.0937 42.9645 40.2622 43.4804 40.5886 43.8349C40.9149 44.1893 41.3747 44.3666 41.9678 44.3666C42.3328 44.3666 42.6556 44.3332 42.9364 44.2665C43.2171 44.1999 43.5084 44.1016 43.8102 43.9717V44.7403C43.5189 44.8702 43.2294 44.9649 42.9416 45.0246C42.6574 45.0842 42.3205 45.1141 41.9309 45.1141C41.3764 45.1141 40.8921 45.0018 40.478 44.7772C40.0674 44.5491 39.7481 44.2157 39.5199 43.777C39.2918 43.3383 39.1778 42.8014 39.1778 42.1661C39.1778 41.545 39.2813 41.008 39.4884 40.5553C39.6989 40.0991 39.9937 39.7481 40.3727 39.5025C40.7553 39.2568 41.2045 39.134 41.7204 39.134ZM41.7098 39.8499C41.2431 39.8499 40.8711 40.0026 40.5938 40.3079C40.3166 40.6132 40.1516 41.0396 40.099 41.5871H43.1522C43.1487 41.2432 43.0943 40.9413 42.989 40.6816C42.8872 40.4184 42.7311 40.2149 42.5205 40.071C42.3099 39.9236 42.0397 39.8499 41.7098 39.8499ZM51.0642 39.134C51.7837 39.134 52.3575 39.3814 52.7856 39.8762C53.2138 40.3711 53.4279 41.1151 53.4279 42.1082C53.4279 42.7645 53.3296 43.3155 53.1331 43.7612C52.9365 44.2069 52.6593 44.5438 52.3013 44.7719C51.9469 45 51.5275 45.1141 51.0432 45.1141C50.7379 45.1141 50.4694 45.0737 50.2378 44.993C50.0062 44.9123 49.8079 44.8035 49.6429 44.6666C49.478 44.5298 49.3411 44.3806 49.2323 44.2192H49.1691C49.1797 44.356 49.192 44.521 49.206 44.714C49.2235 44.907 49.2323 45.0755 49.2323 45.2194V47.5882H48.3532V39.2393H49.0744L49.1902 40.0921H49.2323C49.3446 39.9166 49.4815 39.7569 49.6429 39.613C49.8044 39.4656 50.0009 39.3498 50.2325 39.2656C50.4676 39.1779 50.7449 39.134 51.0642 39.134ZM50.9116 39.871C50.5115 39.871 50.1886 39.9482 49.943 40.1026C49.7008 40.257 49.5236 40.4886 49.4113 40.7975C49.299 41.1028 49.2393 41.4871 49.2323 41.9503V42.1188C49.2323 42.6066 49.285 43.0189 49.3902 43.3558C49.499 43.6927 49.6763 43.9489 49.9219 44.1244C50.1711 44.2999 50.5045 44.3876 50.9221 44.3876C51.2801 44.3876 51.5784 44.2911 51.817 44.0981C52.0557 43.9051 52.2329 43.6366 52.3487 43.2927C52.468 42.9452 52.5277 42.5469 52.5277 42.0977C52.5277 41.4169 52.3943 40.8764 52.1276 40.4763C51.8644 40.0728 51.4591 39.871 50.9116 39.871ZM55.8336 45.0088H54.9545V36.8178H55.8336V45.0088ZM59.8396 39.1445C60.5275 39.1445 61.0381 39.2989 61.3715 39.6078C61.7049 39.9166 61.8716 40.4097 61.8716 41.087V45.0088H61.2346L61.0662 44.156H61.024C60.8626 44.3666 60.6942 44.5438 60.5187 44.6877C60.3432 44.8281 60.1397 44.9351 59.908 45.0088C59.6799 45.079 59.3992 45.1141 59.0658 45.1141C58.7148 45.1141 58.4025 45.0527 58.1288 44.9298C57.8585 44.807 57.6445 44.621 57.4865 44.3718C57.3321 44.1227 57.2549 43.8068 57.2549 43.4243C57.2549 42.8487 57.483 42.4065 57.9392 42.0977C58.3955 41.7889 59.0903 41.6204 60.0239 41.5923L61.0188 41.5502V41.1975C61.0188 40.6992 60.9117 40.35 60.6977 40.15C60.4836 39.9499 60.1818 39.8499 59.7922 39.8499C59.4904 39.8499 59.2026 39.8938 58.9289 39.9815C58.6552 40.0693 58.3955 40.1728 58.1498 40.2921L57.8813 39.6288C58.141 39.4955 58.4393 39.3814 58.7762 39.2866C59.1132 39.1919 59.4676 39.1445 59.8396 39.1445ZM61.0082 42.1661L60.1291 42.203C59.4097 42.2311 58.9026 42.3486 58.6078 42.5557C58.313 42.7627 58.1656 43.0558 58.1656 43.4348C58.1656 43.7647 58.2656 44.0086 58.4657 44.1665C58.6657 44.3244 58.9307 44.4034 59.2605 44.4034C59.7729 44.4034 60.1923 44.2613 60.5187 43.977C60.8451 43.6927 61.0082 43.2664 61.0082 42.6978V42.1661ZM65.5354 44.3981C65.6793 44.3981 65.8267 44.3859 65.9776 44.3613C66.1285 44.3367 66.2514 44.3069 66.3461 44.2718V44.9509C66.2443 44.9965 66.1022 45.0351 65.9197 45.0667C65.7407 45.0983 65.5653 45.1141 65.3933 45.1141C65.088 45.1141 64.8107 45.0614 64.5616 44.9561C64.3124 44.8474 64.1123 44.6649 63.9614 44.4087C63.814 44.1525 63.7403 43.798 63.7403 43.3453V39.9236H62.9191V39.4972L63.7456 39.155L64.093 37.9022H64.6195V39.2393H66.3093V39.9236H64.6195V43.319C64.6195 43.6805 64.7019 43.9507 64.8669 44.1297C65.0353 44.3087 65.2582 44.3981 65.5354 44.3981ZM69.7362 39.134C70.2276 39.134 70.6487 39.2428 70.9996 39.4604C71.3506 39.6779 71.619 39.9833 71.805 40.3763C71.991 40.7659 72.084 41.2221 72.084 41.745V42.2872H68.0991C68.1096 42.9645 68.2781 43.4804 68.6044 43.8349C68.9308 44.1893 69.3905 44.3666 69.9836 44.3666C70.3486 44.3666 70.6715 44.3332 70.9523 44.2665C71.233 44.1999 71.5243 44.1016 71.8261 43.9717V44.7403C71.5348 44.8702 71.2453 44.9649 70.9575 45.0246C70.6733 45.0842 70.3363 45.1141 69.9468 45.1141C69.3923 45.1141 68.908 45.0018 68.4939 44.7772C68.0833 44.5491 67.7639 44.2157 67.5358 43.777C67.3077 43.3383 67.1936 42.8014 67.1936 42.1661C67.1936 41.545 67.2972 41.008 67.5042 40.5553C67.7148 40.0991 68.0096 39.7481 68.3886 39.5025C68.7711 39.2568 69.2203 39.134 69.7362 39.134ZM69.7257 39.8499C69.2589 39.8499 68.8869 40.0026 68.6097 40.3079C68.3325 40.6132 68.1675 41.0396 68.1149 41.5871H71.1681C71.1646 41.2432 71.1102 40.9413 71.0049 40.6816C70.9031 40.4184 70.7469 40.2149 70.5364 40.071C70.3258 39.9236 70.0556 39.8499 69.7257 39.8499Z" fill="#4F4F4F"/>
<path d="M403.243 45.5562H399.032V44.9452L400.751 43.2004C401.07 42.8781 401.338 42.591 401.555 42.339C401.775 42.087 401.942 41.8394 402.056 41.5962C402.17 41.3501 402.227 41.0805 402.227 40.7875C402.227 40.4242 402.119 40.1473 401.902 39.9569C401.688 39.7635 401.406 39.6668 401.054 39.6668C400.746 39.6668 400.474 39.7195 400.237 39.825C399.999 39.9305 399.756 40.0799 399.507 40.2733L399.116 39.7811C399.286 39.6375 399.47 39.51 399.67 39.3987C399.872 39.2873 400.087 39.1994 400.316 39.135C400.547 39.0705 400.793 39.0383 401.054 39.0383C401.45 39.0383 401.791 39.1071 402.078 39.2449C402.365 39.3826 402.586 39.5789 402.742 39.8338C402.9 40.0887 402.979 40.392 402.979 40.7436C402.979 41.0835 402.912 41.3999 402.777 41.6929C402.642 41.983 402.453 42.2716 402.21 42.5587C401.967 42.8429 401.682 43.1447 401.357 43.4641L399.96 44.8573V44.8881H403.243V45.5562ZM408.394 45.5562H404.183V44.9452L405.902 43.2004C406.221 42.8781 406.489 42.591 406.706 42.339C406.926 42.087 407.093 41.8394 407.207 41.5962C407.321 41.3501 407.378 41.0805 407.378 40.7875C407.378 40.4242 407.27 40.1473 407.053 39.9569C406.839 39.7635 406.557 39.6668 406.205 39.6668C405.897 39.6668 405.625 39.7195 405.388 39.825C405.15 39.9305 404.907 40.0799 404.658 40.2733L404.267 39.7811C404.437 39.6375 404.621 39.51 404.821 39.3987C405.023 39.2873 405.238 39.1994 405.467 39.135C405.698 39.0705 405.944 39.0383 406.205 39.0383C406.601 39.0383 406.942 39.1071 407.229 39.2449C407.516 39.3826 407.737 39.5789 407.893 39.8338C408.051 40.0887 408.13 40.392 408.13 40.7436C408.13 41.0835 408.063 41.3999 407.928 41.6929C407.793 41.983 407.604 42.2716 407.361 42.5587C407.118 42.8429 406.833 43.1447 406.508 43.4641L405.111 44.8573V44.8881H408.394V45.5562Z" fill="#666666"/>
<path d="M353.775 40.9807C354.245 40.9807 354.663 41.0702 355.028 41.2492C355.397 41.4282 355.686 41.6914 355.897 42.0388C356.107 42.3863 356.212 42.8144 356.212 43.3233C356.212 43.8778 356.097 44.3568 355.865 44.7604C355.637 45.1605 355.295 45.4676 354.839 45.6816C354.386 45.8957 353.821 46.0027 353.143 46.0027C352.74 46.0027 352.359 45.9676 352.001 45.8975C351.647 45.8308 351.336 45.7273 351.069 45.5869V44.1813C351.336 44.3217 351.655 44.441 352.027 44.5393C352.403 44.6341 352.756 44.6814 353.086 44.6814C353.408 44.6814 353.68 44.6393 353.902 44.5551C354.123 44.4674 354.289 44.334 354.402 44.155C354.517 43.9725 354.575 43.7409 354.575 43.4602C354.575 43.0846 354.449 42.7969 354.196 42.5968C353.944 42.3968 353.556 42.2968 353.033 42.2968C352.833 42.2968 352.624 42.3161 352.406 42.3547C352.192 42.3933 352.013 42.4319 351.87 42.4705L351.222 42.1231L351.512 38.2013H355.686V39.5805H352.938L352.796 41.0913C352.915 41.0667 353.045 41.0421 353.186 41.0176C353.326 40.993 353.522 40.9807 353.775 40.9807ZM362.493 41.4861C362.493 41.9283 362.459 42.367 362.393 42.8021C362.329 43.2373 362.217 43.6479 362.056 44.0339C361.894 44.4165 361.668 44.7569 361.377 45.0552C361.085 45.35 360.715 45.5816 360.266 45.7501C359.817 45.9185 359.273 46.0027 358.634 46.0027C358.483 46.0027 358.306 45.9957 358.102 45.9817C357.899 45.9712 357.73 45.9536 357.597 45.929V44.6235C357.737 44.6586 357.886 44.6867 358.044 44.7078C358.202 44.7253 358.362 44.7341 358.523 44.7341C359.166 44.7341 359.66 44.6323 360.008 44.4288C360.359 44.2252 360.605 43.9427 360.745 43.5812C360.889 43.2198 360.971 42.8021 360.992 42.3284H360.929C360.827 42.4968 360.706 42.6495 360.566 42.7863C360.429 42.9197 360.254 43.0267 360.04 43.1075C359.825 43.1847 359.553 43.2233 359.224 43.2233C358.785 43.2233 358.402 43.1285 358.076 42.939C357.753 42.746 357.502 42.4687 357.323 42.1073C357.148 41.7423 357.06 41.3018 357.06 40.786C357.06 40.228 357.165 39.7507 357.376 39.3541C357.59 38.954 357.893 38.647 358.287 38.4329C358.68 38.2188 359.143 38.1118 359.676 38.1118C360.069 38.1118 360.436 38.1802 360.776 38.3171C361.117 38.4504 361.415 38.6557 361.671 38.933C361.931 39.2102 362.133 39.5612 362.277 39.9858C362.421 40.4104 362.493 40.9105 362.493 41.4861ZM359.708 39.4173C359.392 39.4173 359.134 39.5261 358.934 39.7437C358.734 39.9612 358.634 40.3017 358.634 40.7649C358.634 41.1369 358.72 41.4317 358.892 41.6493C359.064 41.8669 359.325 41.9757 359.676 41.9757C359.918 41.9757 360.129 41.923 360.308 41.8177C360.487 41.7089 360.626 41.5738 360.724 41.4124C360.826 41.2475 360.877 41.079 360.877 40.907C360.877 40.7281 360.852 40.5508 360.803 40.3754C360.754 40.1999 360.68 40.0402 360.582 39.8963C360.483 39.7524 360.361 39.6366 360.213 39.5489C360.069 39.4611 359.901 39.4173 359.708 39.4173ZM365.03 38.0907C365.634 38.0907 366.092 38.3013 366.404 38.7224C366.716 39.1435 366.872 39.7349 366.872 40.4964C366.872 41.258 366.725 41.8528 366.43 42.281C366.135 42.7091 365.669 42.9232 365.03 42.9232C364.437 42.9232 363.986 42.7091 363.677 42.281C363.368 41.8528 363.214 41.258 363.214 40.4964C363.214 39.7349 363.358 39.1435 363.645 38.7224C363.937 38.3013 364.398 38.0907 365.03 38.0907ZM365.04 39.1909C364.869 39.1909 364.742 39.2997 364.661 39.5173C364.581 39.7349 364.54 40.0648 364.54 40.507C364.54 40.9491 364.581 41.2808 364.661 41.5019C364.742 41.723 364.869 41.8335 365.04 41.8335C365.212 41.8335 365.339 41.7247 365.419 41.5071C365.504 41.2861 365.546 40.9527 365.546 40.507C365.546 40.0648 365.504 39.7349 365.419 39.5173C365.339 39.2997 365.212 39.1909 365.04 39.1909ZM370.494 38.2013L366.225 45.8975H364.962L369.231 38.2013H370.494ZM370.42 41.165C371.024 41.165 371.482 41.3755 371.794 41.7967C372.107 42.2178 372.263 42.8092 372.263 43.5707C372.263 44.3287 372.116 44.9218 371.821 45.35C371.526 45.7781 371.059 45.9922 370.42 45.9922C369.827 45.9922 369.376 45.7781 369.068 45.35C368.759 44.9218 368.604 44.3287 368.604 43.5707C368.604 42.8092 368.748 42.2178 369.036 41.7967C369.327 41.3755 369.789 41.165 370.42 41.165ZM370.431 42.2652C370.259 42.2652 370.133 42.374 370.052 42.5916C369.971 42.8092 369.931 43.139 369.931 43.5812C369.931 44.0234 369.971 44.3551 370.052 44.5762C370.133 44.7973 370.259 44.9078 370.431 44.9078C370.603 44.9078 370.729 44.799 370.81 44.5814C370.894 44.3603 370.936 44.0269 370.936 43.5812C370.936 43.139 370.894 42.8092 370.81 42.5916C370.729 42.374 370.603 42.2652 370.431 42.2652Z" fill="#4168FF"/>
<path d="M386.945 42.348C386.945 42.348 388.691 43.6637 390.371 42.2959C390.371 42.2959 392.716 42.4001 393.094 46.1258L386.502 46.0607L385.056 46.0867L384.613 45.9044C384.613 45.9044 384.288 42.9733 386.945 42.348Z" fill="#4168FF"/>
<path opacity="0.2" d="M390.97 38.9867C390.97 40.2633 389.928 41.3055 388.652 41.3055C387.987 41.3055 387.388 41.0319 386.971 40.576C387.61 40.7192 389.029 40.9147 389.759 40.0679C390.488 39.2342 390.515 38.0748 390.475 37.5537C390.788 37.9575 390.97 38.4526 390.97 38.9867Z" fill="#4168FF"/>
<path d="M390.189 41.5923C391.218 40.993 391.791 39.8336 391.661 38.6352C391.504 37.2543 390.384 36.134 389.003 35.9777C388.143 35.8865 387.284 36.1601 386.645 36.7332C386.007 37.3064 385.629 38.1271 385.629 38.9869C385.629 40.0551 386.202 41.0451 387.114 41.5923C386.867 41.6704 386.619 41.7746 386.398 41.9049C386.372 41.9179 386.333 41.944 386.307 41.9701C385.343 42.5172 383.779 43.8068 383.936 46.2429L383.962 46.5425H384.548C384.835 46.5425 385.069 46.308 385.069 46.0214V45.8911H384.613C384.613 44.2628 385.512 43.2988 386.307 42.7647L386.411 42.6996C387.075 42.2697 387.857 42.0352 388.651 42.0352C390.814 42.0352 392.599 43.6896 392.768 45.826H386.502V45.9563C386.502 46.2689 386.763 46.5295 387.075 46.5295H393.497V46.1777C393.484 44.0934 392.143 42.2436 390.189 41.5923ZM386.333 38.9869C386.333 37.7103 387.375 36.6681 388.651 36.6681C389.394 36.6681 390.058 37.0198 390.475 37.567C390.788 37.9578 390.97 38.4528 390.97 38.9999C390.97 40.2766 389.928 41.3187 388.651 41.3187C387.987 41.3187 387.388 41.0451 386.971 40.5892C386.567 40.1723 386.333 39.6122 386.333 38.9869Z" fill="#121A67"/>
<path d="M0.5 63.0091C0.5 61.0207 2.11197 59.4087 4.10043 59.4087H35.7331V83.2615H4.10043C2.11197 83.2615 0.5 81.6496 0.5 79.6611V63.0091Z" fill="#6A88FE" fill-opacity="0.2"/>
<rect x="0.725027" y="59.6337" width="425.55" height="23.4028" rx="3.3754" stroke="#E6E6E6" stroke-width="0.450054"/>
<path d="M8.29819 74.8638V67.1676H9.1931V74.8638H8.29819ZM16.0312 74.9691C15.3013 74.9691 14.7222 74.7199 14.2941 74.2215C13.8694 73.7232 13.6571 72.9827 13.6571 72.0001C13.6571 71.0069 13.8747 70.2576 14.3099 69.7523C14.745 69.2434 15.3241 68.989 16.047 68.989C16.3524 68.989 16.6191 69.0293 16.8472 69.11C17.0753 69.1908 17.2718 69.2996 17.4368 69.4364C17.6017 69.5698 17.7403 69.7224 17.8526 69.8944H17.9158C17.9018 69.7856 17.8877 69.6365 17.8737 69.4469C17.8597 69.2574 17.8526 69.103 17.8526 68.9837V66.6727H18.7265V74.8638H18.0211L17.8895 74.0426H17.8526C17.7439 74.2145 17.6052 74.3707 17.4368 74.5111C17.2718 74.6514 17.0736 74.7638 16.8419 74.848C16.6138 74.9287 16.3436 74.9691 16.0312 74.9691ZM16.1681 74.2426C16.7858 74.2426 17.2227 74.0671 17.4789 73.7162C17.7351 73.3652 17.8632 72.8441 17.8632 72.1527V71.9948C17.8632 71.2613 17.7403 70.6981 17.4947 70.305C17.2525 69.9119 16.8103 69.7154 16.1681 69.7154C15.6312 69.7154 15.2293 69.9225 14.9626 70.3366C14.6959 70.7472 14.5625 71.3087 14.5625 72.0211C14.5625 72.73 14.6942 73.2775 14.9574 73.6635C15.2241 74.0496 15.6277 74.2426 16.1681 74.2426ZM25.5541 71.9685C25.5541 72.4423 25.4927 72.8651 25.3699 73.2371C25.247 73.6091 25.0698 73.9232 24.8382 74.1794C24.6066 74.4356 24.3258 74.6321 23.9959 74.769C23.6695 74.9024 23.2993 74.9691 22.8852 74.9691C22.4991 74.9691 22.1447 74.9024 21.8218 74.769C21.5025 74.6321 21.2252 74.4356 20.9901 74.1794C20.7585 73.9232 20.5777 73.6091 20.4479 73.2371C20.3215 72.8651 20.2584 72.4423 20.2584 71.9685C20.2584 71.3368 20.3654 70.7998 20.5795 70.3576C20.7936 69.9119 21.0989 69.5733 21.4954 69.3417C21.8955 69.1065 22.3711 68.989 22.922 68.989C23.4485 68.989 23.9082 69.1065 24.3012 69.3417C24.6978 69.5768 25.0049 69.9172 25.2225 70.3629C25.4436 70.8051 25.5541 71.3403 25.5541 71.9685ZM21.1638 71.9685C21.1638 72.4317 21.2252 72.8336 21.3481 73.174C21.4709 73.5144 21.6604 73.7776 21.9166 73.9636C22.1728 74.1496 22.5027 74.2426 22.9062 74.2426C23.3063 74.2426 23.6345 74.1496 23.8906 73.9636C24.1503 73.7776 24.3416 73.5144 24.4644 73.174C24.5873 72.8336 24.6487 72.4317 24.6487 71.9685C24.6487 71.5087 24.5873 71.1122 24.4644 70.7788C24.3416 70.4419 24.1521 70.1822 23.8959 69.9997C23.6397 69.8172 23.3081 69.7259 22.901 69.7259C22.3009 69.7259 21.8604 69.9242 21.5797 70.3208C21.3024 70.7174 21.1638 71.2666 21.1638 71.9685ZM29.797 68.989C30.4814 68.989 30.999 69.1574 31.35 69.4943C31.7009 69.8277 31.8764 70.3647 31.8764 71.1052V74.8638H31.0131V71.1631C31.0131 70.6823 30.9025 70.3226 30.6814 70.0839C30.4638 69.8453 30.1287 69.7259 29.676 69.7259C29.0372 69.7259 28.588 69.9067 28.3283 70.2682C28.0686 70.6296 27.9388 71.1543 27.9388 71.8421V74.8638H27.0649V69.0942H27.7703L27.9019 69.926H27.9493C28.0721 69.7224 28.2283 69.5522 28.4178 69.4154C28.6073 69.275 28.8197 69.1697 29.0548 69.0995C29.2899 69.0258 29.5373 68.989 29.797 68.989ZM34.4137 67.1676L34.2137 69.947H33.6609L33.4662 67.1676H34.4137ZM37.9091 74.2531C38.053 74.2531 38.2004 74.2408 38.3513 74.2163C38.5022 74.1917 38.625 74.1619 38.7198 74.1268V74.8059C38.618 74.8515 38.4759 74.8901 38.2934 74.9217C38.1144 74.9533 37.9389 74.9691 37.767 74.9691C37.4617 74.9691 37.1844 74.9164 36.9352 74.8111C36.6861 74.7023 36.486 74.5198 36.3351 74.2637C36.1877 74.0075 36.114 73.653 36.114 73.2003V69.7786H35.2928V69.3522L36.1193 69.01L36.4667 67.7572H36.9931V69.0942H38.6829V69.7786H36.9931V73.174C36.9931 73.5354 37.0756 73.8057 37.2406 73.9847C37.409 74.1636 37.6319 74.2531 37.9091 74.2531ZM44.9999 74.9691C44.4805 74.9691 44.0226 74.862 43.626 74.6479C43.2294 74.4339 42.9206 74.1075 42.6995 73.6688C42.4784 73.2301 42.3679 72.6774 42.3679 72.0106C42.3679 71.3122 42.4837 70.7419 42.7153 70.2997C42.9504 69.854 43.2733 69.5242 43.6839 69.3101C44.0945 69.096 44.5613 68.989 45.0842 68.989C45.3719 68.989 45.6492 69.0188 45.9159 69.0785C46.1861 69.1346 46.4072 69.2066 46.5792 69.2943L46.316 70.026C46.1405 69.9558 45.937 69.8926 45.7053 69.8365C45.4772 69.7803 45.2631 69.7523 45.0631 69.7523C44.663 69.7523 44.3296 69.8382 44.0629 70.0102C43.7997 70.1822 43.6014 70.4349 43.4681 70.7683C43.3382 71.1016 43.2733 71.5123 43.2733 72.0001C43.2733 72.4668 43.3365 72.8651 43.4628 73.195C43.5926 73.5249 43.7839 73.7776 44.0366 73.9531C44.2928 74.125 44.6121 74.211 44.9947 74.211C45.3 74.211 45.5755 74.1794 45.8211 74.1163C46.0668 74.0496 46.2897 73.9724 46.4897 73.8846V74.6637C46.2967 74.762 46.0808 74.8374 45.8422 74.8901C45.6071 74.9427 45.3263 74.9691 44.9999 74.9691ZM50.0167 68.9995C50.7045 68.9995 51.2152 69.1539 51.5486 69.4627C51.8819 69.7716 52.0486 70.2646 52.0486 70.942V74.8638H51.4117L51.2432 74.011H51.2011C51.0397 74.2215 50.8712 74.3988 50.6958 74.5427C50.5203 74.683 50.3167 74.7901 50.0851 74.8638C49.857 74.934 49.5762 74.9691 49.2428 74.9691C48.8919 74.9691 48.5796 74.9076 48.3058 74.7848C48.0356 74.662 47.8215 74.476 47.6636 74.2268C47.5092 73.9776 47.432 73.6618 47.432 73.2793C47.432 72.7037 47.6601 72.2615 48.1163 71.9527C48.5725 71.6439 49.2674 71.4754 50.2009 71.4473L51.1959 71.4052V71.0525C51.1959 70.5542 51.0888 70.205 50.8747 70.0049C50.6607 69.8049 50.3589 69.7049 49.9693 69.7049C49.6675 69.7049 49.3797 69.7488 49.106 69.8365C48.8322 69.9242 48.5725 70.0278 48.3269 70.1471L48.0584 69.4838C48.3181 69.3504 48.6164 69.2364 48.9533 69.1416C49.2902 69.0469 49.6447 68.9995 50.0167 68.9995ZM51.1853 72.0211L50.3062 72.058C49.5868 72.086 49.0797 72.2036 48.7849 72.4107C48.4901 72.6177 48.3427 72.9108 48.3427 73.2898C48.3427 73.6197 48.4427 73.8636 48.6427 74.0215C48.8428 74.1794 49.1077 74.2584 49.4376 74.2584C49.95 74.2584 50.3694 74.1163 50.6958 73.832C51.0221 73.5477 51.1853 73.1213 51.1853 72.5528V72.0211ZM56.4705 68.989C56.5864 68.989 56.7074 68.996 56.8338 69.01C56.9601 69.0205 57.0724 69.0363 57.1707 69.0574L57.0601 69.8681C56.9654 69.8435 56.8601 69.8242 56.7443 69.8102C56.6285 69.7961 56.5197 69.7891 56.4179 69.7891C56.1863 69.7891 55.9669 69.8365 55.7599 69.9312C55.5563 70.0225 55.3774 70.1559 55.2229 70.3313C55.0685 70.5033 54.9474 70.7121 54.8597 70.9578C54.772 71.1999 54.7281 71.4701 54.7281 71.7684V74.8638H53.849V69.0942H54.5754L54.6702 70.1576H54.707C54.8264 69.9435 54.9703 69.7488 55.1387 69.5733C55.3072 69.3943 55.5019 69.2522 55.723 69.1469C55.9476 69.0416 56.1968 68.989 56.4705 68.989ZM60.4818 68.989C60.9732 68.989 61.3943 69.0978 61.7452 69.3153C62.0962 69.5329 62.3646 69.8382 62.5506 70.2313C62.7366 70.6209 62.8296 71.0771 62.8296 71.6V72.1422H58.8447C58.8552 72.8195 59.0237 73.3354 59.35 73.6899C59.6764 74.0443 60.1362 74.2215 60.7292 74.2215C61.0942 74.2215 61.4171 74.1882 61.6979 74.1215C61.9786 74.0548 62.2699 73.9566 62.5717 73.8267V74.5953C62.2804 74.7251 61.9909 74.8199 61.7031 74.8796C61.4189 74.9392 61.0819 74.9691 60.6924 74.9691C60.1379 74.9691 59.6536 74.8568 59.2395 74.6321C58.8289 74.404 58.5095 74.0706 58.2814 73.632C58.0533 73.1933 57.9392 72.6563 57.9392 72.0211C57.9392 71.4 58.0428 70.863 58.2498 70.4103C58.4604 69.9541 58.7552 69.6031 59.1342 69.3575C59.5167 69.1118 59.9659 68.989 60.4818 68.989ZM60.4713 69.7049C60.0045 69.7049 59.6325 69.8576 59.3553 70.1629C59.0781 70.4682 58.9131 70.8946 58.8605 71.4421H61.9137C61.9102 71.0981 61.8558 70.7963 61.7505 70.5366C61.6487 70.2734 61.4926 70.0699 61.282 69.926C61.0714 69.7786 60.8012 69.7049 60.4713 69.7049ZM67.9885 69.0942V74.8638H67.1147V69.0942H67.9885ZM67.5621 66.9359C67.706 66.9359 67.8288 66.9833 67.9306 67.0781C68.0359 67.1693 68.0885 67.3132 68.0885 67.5097C68.0885 67.7028 68.0359 67.8466 67.9306 67.9414C67.8288 68.0362 67.706 68.0835 67.5621 68.0835C67.4112 68.0835 67.2849 68.0362 67.1831 67.9414C67.0848 67.8466 67.0357 67.7028 67.0357 67.5097C67.0357 67.3132 67.0848 67.1693 67.1831 67.0781C67.2849 66.9833 67.4112 66.9359 67.5621 66.9359ZM72.4104 69.7786H70.9733V74.8638H70.0995V69.7786H69.0782V69.3575L70.0995 69.0679V68.6836C70.0995 68.1993 70.1714 67.8063 70.3153 67.5045C70.4592 67.1991 70.668 66.9745 70.9417 66.8307C71.2155 66.6868 71.5489 66.6148 71.9419 66.6148C72.163 66.6148 72.3648 66.6341 72.5473 66.6727C72.7333 66.7113 72.8965 66.7552 73.0369 66.8043L72.8105 67.4939C72.6912 67.4553 72.5561 67.4202 72.4052 67.3887C72.2578 67.3536 72.1069 67.336 71.9524 67.336C71.619 67.336 71.3716 67.4448 71.2102 67.6624C71.0523 67.8765 70.9733 68.2134 70.9733 68.6731V69.0942H72.4104V69.7786ZM77.1482 69.0942V74.8638H76.2743V69.0942H77.1482ZM76.7218 66.9359C76.8657 66.9359 76.9885 66.9833 77.0903 67.0781C77.1955 67.1693 77.2482 67.3132 77.2482 67.5097C77.2482 67.7028 77.1955 67.8466 77.0903 67.9414C76.9885 68.0362 76.8657 68.0835 76.7218 68.0835C76.5709 68.0835 76.4445 68.0362 76.3428 67.9414C76.2445 67.8466 76.1954 67.7028 76.1954 67.5097C76.1954 67.3132 76.2445 67.1693 76.3428 67.0781C76.4445 66.9833 76.5709 66.9359 76.7218 66.9359ZM80.8647 74.2531C81.0086 74.2531 81.156 74.2408 81.3069 74.2163C81.4578 74.1917 81.5806 74.1619 81.6753 74.1268V74.8059C81.5736 74.8515 81.4314 74.8901 81.249 74.9217C81.07 74.9533 80.8945 74.9691 80.7225 74.9691C80.4172 74.9691 80.14 74.9164 79.8908 74.8111C79.6416 74.7023 79.4416 74.5198 79.2907 74.2637C79.1433 74.0075 79.0696 73.653 79.0696 73.2003V69.7786H78.2484V69.3522L79.0749 69.01L79.4223 67.7572H79.9487V69.0942H81.6385V69.7786H79.9487V73.174C79.9487 73.5354 80.0312 73.8057 80.1961 73.9847C80.3646 74.1636 80.5874 74.2531 80.8647 74.2531ZM83.581 67.1676L83.3809 69.947H82.8282L82.6334 67.1676H83.581ZM88.9452 73.2845C88.9452 73.653 88.8522 73.9636 88.6662 74.2163C88.4837 74.4654 88.2205 74.6532 87.8765 74.7795C87.5361 74.9059 87.129 74.9691 86.6553 74.9691C86.2517 74.9691 85.9025 74.9375 85.6077 74.8743C85.3129 74.8111 85.0549 74.7216 84.8338 74.6058V73.8004C85.069 73.9162 85.3497 74.0215 85.6761 74.1163C86.0025 74.211 86.3359 74.2584 86.6763 74.2584C87.1746 74.2584 87.5361 74.1777 87.7607 74.0162C87.9853 73.8548 88.0976 73.6355 88.0976 73.3582C88.0976 73.2003 88.052 73.0617 87.9608 72.9424C87.873 72.8195 87.7239 72.702 87.5133 72.5897C87.3027 72.4738 87.0115 72.3475 86.6395 72.2106C86.271 72.0703 85.9516 71.9316 85.6814 71.7948C85.4147 71.6544 85.2076 71.4842 85.0602 71.2841C84.9163 71.0841 84.8444 70.8244 84.8444 70.505C84.8444 70.0172 85.0409 69.6435 85.434 69.3838C85.8305 69.1206 86.3499 68.989 86.9922 68.989C87.3396 68.989 87.6642 69.0241 87.966 69.0942C88.2713 69.1609 88.5556 69.2522 88.8188 69.368L88.524 70.0681C88.2854 69.9663 88.031 69.8804 87.7607 69.8102C87.4905 69.74 87.215 69.7049 86.9343 69.7049C86.5307 69.7049 86.2201 69.7716 86.0025 69.9049C85.7884 70.0383 85.6814 70.2208 85.6814 70.4524C85.6814 70.6314 85.7305 70.7788 85.8288 70.8946C85.9306 71.0104 86.092 71.1192 86.3131 71.221C86.5342 71.3227 86.8255 71.4421 87.1869 71.5789C87.5484 71.7123 87.8607 71.8509 88.124 71.9948C88.3872 72.1352 88.589 72.3071 88.7293 72.5107C88.8732 72.7107 88.9452 72.9687 88.9452 73.2845ZM94.0251 66.6727V68.7205C94.0251 68.9556 94.0181 69.1837 94.004 69.4048C93.9935 69.6259 93.9847 69.7979 93.9777 69.9207H94.0251C94.183 69.661 94.4111 69.4417 94.7094 69.2627C95.0077 69.0837 95.3885 68.9942 95.8517 68.9942C96.5747 68.9942 97.1502 69.2452 97.5784 69.747C98.01 70.2453 98.2259 70.9876 98.2259 71.9737C98.2259 72.623 98.1276 73.1705 97.9311 73.6162C97.7346 74.0619 97.4573 74.3988 97.0993 74.6269C96.7414 74.855 96.3185 74.9691 95.8307 74.9691C95.3745 74.9691 94.9989 74.8848 94.7042 74.7164C94.4129 74.5444 94.1883 74.3356 94.0303 74.0899H93.9619L93.7829 74.8638H93.1512V66.6727H94.0251ZM95.7096 69.7259C95.292 69.7259 94.9603 69.8084 94.7147 69.9734C94.469 70.1348 94.2918 70.3805 94.183 70.7103C94.0777 71.0367 94.0251 71.4508 94.0251 71.9527V72.0001C94.0251 72.7265 94.1462 73.2828 94.3883 73.6688C94.6305 74.0513 95.0709 74.2426 95.7096 74.2426C96.2466 74.2426 96.6484 74.0461 96.9151 73.653C97.1853 73.26 97.3204 72.6984 97.3204 71.9685C97.3204 71.2245 97.1871 70.6647 96.9204 70.2892C96.6572 69.9137 96.2536 69.7259 95.7096 69.7259ZM98.8418 69.0942H99.7788L101.053 72.4423C101.126 72.6388 101.195 72.8283 101.258 73.0108C101.321 73.1898 101.377 73.3617 101.426 73.5267C101.476 73.6916 101.514 73.8513 101.542 74.0057H101.579C101.628 73.8302 101.698 73.6004 101.79 73.3161C101.881 73.0283 101.979 72.7353 102.085 72.437L103.29 69.0942H104.232L101.721 75.7113C101.588 76.0658 101.432 76.3746 101.253 76.6378C101.077 76.901 100.863 77.1028 100.611 77.2432C100.358 77.3871 100.053 77.459 99.6946 77.459C99.5296 77.459 99.384 77.4485 99.2577 77.4274C99.1313 77.4099 99.0225 77.3888 98.9313 77.3642V76.6641C99.0085 76.6817 99.1015 76.6975 99.2103 76.7115C99.3226 76.7255 99.4384 76.7325 99.5577 76.7325C99.7753 76.7325 99.963 76.6904 100.121 76.6062C100.282 76.5255 100.421 76.4062 100.537 76.2482C100.653 76.0903 100.753 75.9026 100.837 75.685L101.153 74.8743L98.8418 69.0942ZM110.165 67.1676C110.797 67.1676 111.318 67.2465 111.728 67.4045C112.143 67.5589 112.451 67.7958 112.655 68.1151C112.858 68.4345 112.96 68.8416 112.96 69.3364C112.96 69.7435 112.887 70.0839 112.739 70.3576C112.592 70.6279 112.399 70.8472 112.16 71.0157C111.921 71.1841 111.667 71.314 111.397 71.4052L113.508 74.8638H112.465L110.581 71.6526H108.981V74.8638H108.086V67.1676H110.165ZM110.112 67.9414H108.981V70.8946H110.202C110.83 70.8946 111.292 70.7665 111.586 70.5103C111.885 70.2541 112.034 69.8769 112.034 69.3785C112.034 68.8556 111.876 68.4854 111.56 68.2678C111.248 68.0502 110.765 67.9414 110.112 67.9414ZM120.562 67.1676V72.1475C120.562 72.6914 120.451 73.1757 120.23 73.6004C120.012 74.025 119.683 74.3602 119.24 74.6058C118.798 74.848 118.244 74.9691 117.577 74.9691C116.626 74.9691 115.901 74.7111 115.403 74.1952C114.908 73.6793 114.661 72.9897 114.661 72.1264V67.1676H115.561V72.1527C115.561 72.8055 115.733 73.3091 116.077 73.6635C116.424 74.018 116.942 74.1952 117.63 74.1952C118.1 74.1952 118.484 74.111 118.782 73.9425C119.084 73.7706 119.307 73.5319 119.451 73.2266C119.598 72.9178 119.672 72.5616 119.672 72.158V67.1676H120.562ZM124.968 74.8638H124.068V67.9572H121.646V67.1676H127.379V67.9572H124.968V74.8638ZM136.186 71.9685C136.186 72.4423 136.124 72.8651 136.002 73.2371C135.879 73.6091 135.701 73.9232 135.47 74.1794C135.238 74.4356 134.957 74.6321 134.628 74.769C134.301 74.9024 133.931 74.9691 133.517 74.9691C133.131 74.9691 132.776 74.9024 132.453 74.769C132.134 74.6321 131.857 74.4356 131.622 74.1794C131.39 73.9232 131.209 73.6091 131.08 73.2371C130.953 72.8651 130.89 72.4423 130.89 71.9685C130.89 71.3368 130.997 70.7998 131.211 70.3576C131.425 69.9119 131.731 69.5733 132.127 69.3417C132.527 69.1065 133.003 68.989 133.554 68.989C134.08 68.989 134.54 69.1065 134.933 69.3417C135.329 69.5768 135.637 69.9172 135.854 70.3629C136.075 70.8051 136.186 71.3403 136.186 71.9685ZM131.795 71.9685C131.795 72.4317 131.857 72.8336 131.98 73.174C132.103 73.5144 132.292 73.7776 132.548 73.9636C132.804 74.1496 133.134 74.2426 133.538 74.2426C133.938 74.2426 134.266 74.1496 134.522 73.9636C134.782 73.7776 134.973 73.5144 135.096 73.174C135.219 72.8336 135.28 72.4317 135.28 71.9685C135.28 71.5087 135.219 71.1122 135.096 70.7788C134.973 70.4419 134.784 70.1822 134.528 69.9997C134.271 69.8172 133.94 69.7259 133.533 69.7259C132.932 69.7259 132.492 69.9242 132.211 70.3208C131.934 70.7174 131.795 71.2666 131.795 71.9685ZM140.318 68.989C140.434 68.989 140.555 68.996 140.681 69.01C140.808 69.0205 140.92 69.0363 141.018 69.0574L140.908 69.8681C140.813 69.8435 140.708 69.8242 140.592 69.8102C140.476 69.7961 140.367 69.7891 140.265 69.7891C140.034 69.7891 139.815 69.8365 139.607 69.9312C139.404 70.0225 139.225 70.1559 139.071 70.3313C138.916 70.5033 138.795 70.7121 138.707 70.9578C138.62 71.1999 138.576 71.4701 138.576 71.7684V74.8638H137.697V69.0942H138.423L138.518 70.1576H138.555C138.674 69.9435 138.818 69.7488 138.986 69.5733C139.155 69.3943 139.35 69.2522 139.571 69.1469C139.795 69.0416 140.044 68.989 140.318 68.989ZM145.04 74.8638V67.1676H145.935V74.0636H149.351V74.8638H145.04ZM151.415 69.0942V74.8638H150.541V69.0942H151.415ZM150.989 66.9359C151.132 66.9359 151.255 66.9833 151.357 67.0781C151.462 67.1693 151.515 67.3132 151.515 67.5097C151.515 67.7028 151.462 67.8466 151.357 67.9414C151.255 68.0362 151.132 68.0835 150.989 68.0835C150.838 68.0835 150.711 68.0362 150.61 67.9414C150.511 67.8466 150.462 67.7028 150.462 67.5097C150.462 67.3132 150.511 67.1693 150.61 67.0781C150.711 66.9833 150.838 66.9359 150.989 66.9359ZM155.579 74.9691C155.06 74.9691 154.602 74.862 154.205 74.6479C153.808 74.4339 153.5 74.1075 153.278 73.6688C153.057 73.2301 152.947 72.6774 152.947 72.0106C152.947 71.3122 153.063 70.7419 153.294 70.2997C153.529 69.854 153.852 69.5242 154.263 69.3101C154.673 69.096 155.14 68.989 155.663 68.989C155.951 68.989 156.228 69.0188 156.495 69.0785C156.765 69.1346 156.986 69.2066 157.158 69.2943L156.895 70.026C156.719 69.9558 156.516 69.8926 156.284 69.8365C156.056 69.7803 155.842 69.7523 155.642 69.7523C155.242 69.7523 154.909 69.8382 154.642 70.0102C154.379 70.1822 154.18 70.4349 154.047 70.7683C153.917 71.1016 153.852 71.5123 153.852 72.0001C153.852 72.4668 153.915 72.8651 154.042 73.195C154.172 73.5249 154.363 73.7776 154.616 73.9531C154.872 74.125 155.191 74.211 155.574 74.211C155.879 74.211 156.154 74.1794 156.4 74.1163C156.646 74.0496 156.869 73.9724 157.069 73.8846V74.6637C156.876 74.762 156.66 74.8374 156.421 74.8901C156.186 74.9427 155.905 74.9691 155.579 74.9691ZM160.659 68.989C161.15 68.989 161.571 69.0978 161.922 69.3153C162.273 69.5329 162.542 69.8382 162.728 70.2313C162.914 70.6209 163.007 71.0771 163.007 71.6V72.1422H159.022C159.032 72.8195 159.201 73.3354 159.527 73.6899C159.853 74.0443 160.313 74.2215 160.906 74.2215C161.271 74.2215 161.594 74.1882 161.875 74.1215C162.156 74.0548 162.447 73.9566 162.749 73.8267V74.5953C162.457 74.7251 162.168 74.8199 161.88 74.8796C161.596 74.9392 161.259 74.9691 160.869 74.9691C160.315 74.9691 159.831 74.8568 159.416 74.6321C159.006 74.404 158.687 74.0706 158.458 73.632C158.23 73.1933 158.116 72.6563 158.116 72.0211C158.116 71.4 158.22 70.863 158.427 70.4103C158.637 69.9541 158.932 69.6031 159.311 69.3575C159.694 69.1118 160.143 68.989 160.659 68.989ZM160.648 69.7049C160.182 69.7049 159.81 69.8576 159.532 70.1629C159.255 70.4682 159.09 70.8946 159.037 71.4421H162.091C162.087 71.0981 162.033 70.7963 161.927 70.5366C161.826 70.2734 161.67 70.0699 161.459 69.926C161.248 69.7786 160.978 69.7049 160.648 69.7049ZM167.223 68.989C167.908 68.989 168.425 69.1574 168.776 69.4943C169.127 69.8277 169.303 70.3647 169.303 71.1052V74.8638H168.439V71.1631C168.439 70.6823 168.329 70.3226 168.108 70.0839C167.89 69.8453 167.555 69.7259 167.102 69.7259C166.463 69.7259 166.014 69.9067 165.755 70.2682C165.495 70.6296 165.365 71.1543 165.365 71.8421V74.8638H164.491V69.0942H165.197L165.328 69.926H165.376C165.498 69.7224 165.655 69.5522 165.844 69.4154C166.034 69.275 166.246 69.1697 166.481 69.0995C166.716 69.0258 166.964 68.989 167.223 68.989ZM174.835 73.2845C174.835 73.653 174.742 73.9636 174.556 74.2163C174.374 74.4654 174.111 74.6532 173.767 74.7795C173.426 74.9059 173.019 74.9691 172.545 74.9691C172.142 74.9691 171.793 74.9375 171.498 74.8743C171.203 74.8111 170.945 74.7216 170.724 74.6058V73.8004C170.959 73.9162 171.24 74.0215 171.566 74.1163C171.893 74.211 172.226 74.2584 172.566 74.2584C173.065 74.2584 173.426 74.1777 173.651 74.0162C173.875 73.8548 173.988 73.6355 173.988 73.3582C173.988 73.2003 173.942 73.0617 173.851 72.9424C173.763 72.8195 173.614 72.702 173.403 72.5897C173.193 72.4738 172.902 72.3475 172.53 72.2106C172.161 72.0703 171.842 71.9316 171.571 71.7948C171.305 71.6544 171.098 71.4842 170.95 71.2841C170.806 71.0841 170.734 70.8244 170.734 70.505C170.734 70.0172 170.931 69.6435 171.324 69.3838C171.721 69.1206 172.24 68.989 172.882 68.989C173.23 68.989 173.554 69.0241 173.856 69.0942C174.161 69.1609 174.446 69.2522 174.709 69.368L174.414 70.0681C174.175 69.9663 173.921 69.8804 173.651 69.8102C173.381 69.74 173.105 69.7049 172.824 69.7049C172.421 69.7049 172.11 69.7716 171.893 69.9049C171.678 70.0383 171.571 70.2208 171.571 70.4524C171.571 70.6314 171.621 70.7788 171.719 70.8946C171.821 71.0104 171.982 71.1192 172.203 71.221C172.424 71.3227 172.716 71.4421 173.077 71.5789C173.438 71.7123 173.751 71.8509 174.014 71.9948C174.277 72.1352 174.479 72.3071 174.619 72.5107C174.763 72.7107 174.835 72.9687 174.835 73.2845ZM178.462 68.989C178.954 68.989 179.375 69.0978 179.726 69.3153C180.077 69.5329 180.345 69.8382 180.531 70.2313C180.717 70.6209 180.81 71.0771 180.81 71.6V72.1422H176.825C176.836 72.8195 177.004 73.3354 177.33 73.6899C177.657 74.0443 178.117 74.2215 178.71 74.2215C179.075 74.2215 179.398 74.1882 179.678 74.1215C179.959 74.0548 180.25 73.9566 180.552 73.8267V74.5953C180.261 74.7251 179.971 74.8199 179.684 74.8796C179.399 74.9392 179.062 74.9691 178.673 74.9691C178.118 74.9691 177.634 74.8568 177.22 74.6321C176.809 74.404 176.49 74.0706 176.262 73.632C176.034 73.1933 175.92 72.6563 175.92 72.0211C175.92 71.4 176.023 70.863 176.23 70.4103C176.441 69.9541 176.736 69.6031 177.115 69.3575C177.497 69.1118 177.946 68.989 178.462 68.989ZM178.452 69.7049C177.985 69.7049 177.613 69.8576 177.336 70.1629C177.058 70.4682 176.894 70.8946 176.841 71.4421H179.894C179.891 71.0981 179.836 70.7963 179.731 70.5366C179.629 70.2734 179.473 70.0699 179.262 69.926C179.052 69.7786 178.782 69.7049 178.452 69.7049ZM187.806 68.989C188.526 68.989 189.099 69.2364 189.527 69.7312C189.956 70.226 190.17 70.97 190.17 71.9632C190.17 72.6195 190.071 73.1705 189.875 73.6162C189.678 74.0619 189.401 74.3988 189.043 74.6269C188.689 74.855 188.269 74.9691 187.785 74.9691C187.48 74.9691 187.211 74.9287 186.98 74.848C186.748 74.7673 186.55 74.6585 186.385 74.5216C186.22 74.3847 186.083 74.2356 185.974 74.0741H185.911C185.922 74.211 185.934 74.376 185.948 74.569C185.965 74.762 185.974 74.9304 185.974 75.0743V77.4432H185.095V69.0942H185.816L185.932 69.947H185.974C186.086 69.7716 186.223 69.6119 186.385 69.468C186.546 69.3206 186.743 69.2048 186.974 69.1206C187.21 69.0328 187.487 68.989 187.806 68.989ZM187.653 69.7259C187.253 69.7259 186.931 69.8032 186.685 69.9576C186.443 70.112 186.265 70.3436 186.153 70.6524C186.041 70.9578 185.981 71.342 185.974 71.8053V71.9737C185.974 72.4616 186.027 72.8739 186.132 73.2108C186.241 73.5477 186.418 73.8039 186.664 73.9794C186.913 74.1549 187.246 74.2426 187.664 74.2426C188.022 74.2426 188.32 74.1461 188.559 73.9531C188.798 73.7601 188.975 73.4916 189.091 73.1477C189.21 72.8002 189.27 72.4019 189.27 71.9527C189.27 71.2719 189.136 70.7314 188.869 70.3313C188.606 69.9277 188.201 69.7259 187.653 69.7259ZM192.575 74.8638H191.696V66.6727H192.575V74.8638ZM196.581 68.9995C197.269 68.9995 197.78 69.1539 198.113 69.4627C198.447 69.7716 198.613 70.2646 198.613 70.942V74.8638H197.976L197.808 74.011H197.766C197.604 74.2215 197.436 74.3988 197.261 74.5427C197.085 74.683 196.882 74.7901 196.65 74.8638C196.422 74.934 196.141 74.9691 195.808 74.9691C195.457 74.9691 195.144 74.9076 194.871 74.7848C194.6 74.662 194.386 74.476 194.228 74.2268C194.074 73.9776 193.997 73.6618 193.997 73.2793C193.997 72.7037 194.225 72.2615 194.681 71.9527C195.137 71.6439 195.832 71.4754 196.766 71.4473L197.761 71.4052V71.0525C197.761 70.5542 197.654 70.205 197.44 70.0049C197.225 69.8049 196.924 69.7049 196.534 69.7049C196.232 69.7049 195.945 69.7488 195.671 69.8365C195.397 69.9242 195.137 70.0278 194.892 70.1471L194.623 69.4838C194.883 69.3504 195.181 69.2364 195.518 69.1416C195.855 69.0469 196.209 68.9995 196.581 68.9995ZM197.75 72.0211L196.871 72.058C196.152 72.086 195.644 72.2036 195.35 72.4107C195.055 72.6177 194.907 72.9108 194.907 73.2898C194.907 73.6197 195.007 73.8636 195.208 74.0215C195.408 74.1794 195.673 74.2584 196.002 74.2584C196.515 74.2584 196.934 74.1163 197.261 73.832C197.587 73.5477 197.75 73.1213 197.75 72.5528V72.0211ZM202.277 74.2531C202.421 74.2531 202.569 74.2408 202.719 74.2163C202.87 74.1917 202.993 74.1619 203.088 74.1268V74.8059C202.986 74.8515 202.844 74.8901 202.662 74.9217C202.483 74.9533 202.307 74.9691 202.135 74.9691C201.83 74.9691 201.553 74.9164 201.303 74.8111C201.054 74.7023 200.854 74.5198 200.703 74.2637C200.556 74.0075 200.482 73.653 200.482 73.2003V69.7786H199.661V69.3522L200.487 69.01L200.835 67.7572H201.361V69.0942H203.051V69.7786H201.361V73.174C201.361 73.5354 201.444 73.8057 201.609 73.9847C201.777 74.1636 202 74.2531 202.277 74.2531ZM206.478 68.989C206.969 68.989 207.391 69.0978 207.742 69.3153C208.092 69.5329 208.361 69.8382 208.547 70.2313C208.733 70.6209 208.826 71.0771 208.826 71.6V72.1422H204.841C204.851 72.8195 205.02 73.3354 205.346 73.6899C205.673 74.0443 206.132 74.2215 206.726 74.2215C207.091 74.2215 207.413 74.1882 207.694 74.1215C207.975 74.0548 208.266 73.9566 208.568 73.8267V74.5953C208.277 74.7251 207.987 74.8199 207.699 74.8796C207.415 74.9392 207.078 74.9691 206.689 74.9691C206.134 74.9691 205.65 74.8568 205.236 74.6321C204.825 74.404 204.506 74.0706 204.278 73.632C204.05 73.1933 203.936 72.6563 203.936 72.0211C203.936 71.4 204.039 70.863 204.246 70.4103C204.457 69.9541 204.751 69.6031 205.13 69.3575C205.513 69.1118 205.962 68.989 206.478 68.989ZM206.468 69.7049C206.001 69.7049 205.629 69.8576 205.352 70.1629C205.074 70.4682 204.909 70.8946 204.857 71.4421H207.91C207.906 71.0981 207.852 70.7963 207.747 70.5366C207.645 70.2734 207.489 70.0699 207.278 69.926C207.068 69.7786 206.797 69.7049 206.468 69.7049Z" fill="#4F4F4F"/>
<path d="M403.005 70.3329C403.005 70.6201 402.95 70.8691 402.838 71.0801C402.727 71.291 402.572 71.4639 402.373 71.5987C402.173 71.7305 401.939 71.8228 401.669 71.8756V71.9107C402.179 71.9752 402.562 72.1393 402.816 72.403C403.074 72.6667 403.203 73.0124 403.203 73.4402C403.203 73.8123 403.115 74.142 402.939 74.4291C402.767 74.7162 402.5 74.9419 402.14 75.1059C401.782 75.2671 401.324 75.3477 400.764 75.3477C400.424 75.3477 400.109 75.3198 399.819 75.2642C399.532 75.2114 399.256 75.1221 398.993 74.9961V74.3104C399.259 74.4423 399.549 74.5463 399.863 74.6225C400.176 74.6957 400.48 74.7324 400.773 74.7324C401.359 74.7324 401.782 74.6166 402.043 74.3852C402.304 74.1507 402.434 73.8314 402.434 73.427C402.434 73.1487 402.361 72.9245 402.214 72.7546C402.071 72.5817 401.863 72.4557 401.59 72.3766C401.321 72.2946 400.995 72.2535 400.614 72.2535H399.973V71.6295H400.619C400.968 71.6295 401.264 71.5782 401.507 71.4756C401.75 71.3731 401.934 71.2295 402.06 71.0449C402.189 70.8574 402.254 70.6362 402.254 70.3813C402.254 70.056 402.145 69.8055 401.929 69.6297C401.712 69.451 401.417 69.3616 401.045 69.3616C400.817 69.3616 400.609 69.385 400.421 69.4319C400.234 69.4788 400.058 69.5433 399.894 69.6253C399.73 69.7073 399.566 69.8026 399.401 69.911L399.032 69.4099C399.267 69.2283 399.552 69.0715 399.889 68.9397C400.226 68.8078 400.609 68.7419 401.036 68.7419C401.693 68.7419 402.185 68.8913 402.513 69.1902C402.841 69.4891 403.005 69.87 403.005 70.3329Z" fill="#666666"/>
<path d="M353.628 67.8049C354.07 67.8049 354.477 67.8733 354.849 68.0102C355.225 68.147 355.525 68.3541 355.749 68.6313C355.974 68.9051 356.086 69.249 356.086 69.6631C356.086 69.9719 356.025 70.2422 355.902 70.4738C355.783 70.7054 355.619 70.909 355.412 71.0844C355.205 71.2564 354.97 71.4073 354.707 71.5371C354.981 71.681 355.24 71.8495 355.486 72.0425C355.732 72.232 355.932 72.4549 356.086 72.711C356.244 72.9672 356.323 73.2655 356.323 73.606C356.323 74.0341 356.209 74.4061 355.981 74.722C355.753 75.0343 355.437 75.2765 355.033 75.4484C354.63 75.6204 354.161 75.7064 353.628 75.7064C353.052 75.7064 352.563 75.6239 352.159 75.4589C351.755 75.294 351.448 75.0589 351.238 74.7535C351.027 74.4447 350.922 74.0762 350.922 73.6481C350.922 73.2971 350.987 72.9918 351.117 72.7321C351.25 72.4724 351.429 72.2496 351.654 72.0636C351.878 71.874 352.126 71.7126 352.396 71.5793C352.168 71.4354 351.959 71.2722 351.77 71.0897C351.584 70.9072 351.434 70.6984 351.322 70.4633C351.213 70.2281 351.159 69.9579 351.159 69.6526C351.159 69.2455 351.273 68.9051 351.501 68.6313C351.733 68.3576 352.036 68.1523 352.412 68.0154C352.787 67.875 353.193 67.8049 353.628 67.8049ZM352.428 73.5533C352.428 73.8306 352.526 74.0604 352.722 74.2429C352.922 74.4219 353.217 74.5114 353.607 74.5114C354.01 74.5114 354.312 74.4254 354.512 74.2534C354.712 74.078 354.812 73.8481 354.812 73.5638C354.812 73.3673 354.754 73.1954 354.638 73.048C354.526 72.9006 354.384 72.769 354.212 72.6531C354.04 72.5338 353.866 72.4233 353.691 72.3215L353.549 72.2478C353.324 72.3496 353.128 72.4636 352.959 72.59C352.794 72.7163 352.664 72.8584 352.57 73.0164C352.475 73.1743 352.428 73.3533 352.428 73.5533ZM353.617 68.9946C353.351 68.9946 353.129 69.063 352.954 69.1999C352.778 69.3367 352.691 69.5297 352.691 69.7789C352.691 69.9544 352.733 70.1088 352.817 70.2422C352.905 70.372 353.019 70.4861 353.159 70.5843C353.303 70.6826 353.459 70.7738 353.628 70.8581C353.789 70.7809 353.94 70.6949 354.08 70.6001C354.221 70.5054 354.335 70.3913 354.423 70.2579C354.51 70.1246 354.554 69.9649 354.554 69.7789C354.554 69.5297 354.465 69.3367 354.286 69.1999C354.11 69.063 353.887 68.9946 353.617 68.9946ZM358.86 67.7943C359.464 67.7943 359.922 68.0049 360.234 68.426C360.547 68.8472 360.703 69.4385 360.703 70.2C360.703 70.9616 360.555 71.5564 360.261 71.9846C359.966 72.4127 359.499 72.6268 358.86 72.6268C358.267 72.6268 357.816 72.4127 357.507 71.9846C357.199 71.5564 357.044 70.9616 357.044 70.2C357.044 69.4385 357.188 68.8472 357.476 68.426C357.767 68.0049 358.229 67.7943 358.86 67.7943ZM358.871 68.8945C358.699 68.8945 358.573 69.0033 358.492 69.2209C358.411 69.4385 358.371 69.7684 358.371 70.2106C358.371 70.6528 358.411 70.9844 358.492 71.2055C358.573 71.4266 358.699 71.5371 358.871 71.5371C359.043 71.5371 359.169 71.4283 359.25 71.2108C359.334 70.9897 359.376 70.6563 359.376 70.2106C359.376 69.7684 359.334 69.4385 359.25 69.2209C359.169 69.0033 359.043 68.8945 358.871 68.8945ZM364.325 67.9049L360.055 75.6011H358.792L363.061 67.9049H364.325ZM364.251 70.8686C364.854 70.8686 365.312 71.0792 365.625 71.5003C365.937 71.9214 366.093 72.5128 366.093 73.2743C366.093 74.0324 365.946 74.6254 365.651 75.0536C365.356 75.4818 364.89 75.6958 364.251 75.6958C363.658 75.6958 363.207 75.4818 362.898 75.0536C362.589 74.6254 362.435 74.0324 362.435 73.2743C362.435 72.5128 362.579 71.9214 362.866 71.5003C363.158 71.0792 363.619 70.8686 364.251 70.8686ZM364.261 71.9688C364.089 71.9688 363.963 72.0776 363.882 72.2952C363.802 72.5128 363.761 72.8427 363.761 73.2848C363.761 73.727 363.802 74.0587 363.882 74.2798C363.963 74.5009 364.089 74.6114 364.261 74.6114C364.433 74.6114 364.56 74.5026 364.64 74.285C364.725 74.0639 364.767 73.7305 364.767 73.2848C364.767 72.8427 364.725 72.5128 364.64 72.2952C364.56 72.0776 364.433 71.9688 364.261 71.9688Z" fill="#4168FF"/>
<path d="M386.945 72.0521C386.945 72.0521 388.691 73.3678 390.371 72C390.371 72 392.716 72.1042 393.094 75.8299L386.502 75.7648L385.056 75.7908L384.613 75.6085C384.613 75.6085 384.288 72.6774 386.945 72.0521Z" fill="#4168FF"/>
<path opacity="0.2" d="M390.97 68.6908C390.97 69.9674 389.928 71.0096 388.652 71.0096C387.987 71.0096 387.388 70.736 386.971 70.2801C387.61 70.4233 389.029 70.6188 389.759 69.772C390.488 68.9383 390.515 67.7789 390.475 67.2578C390.788 67.6616 390.97 68.1567 390.97 68.6908Z" fill="#4168FF"/>
<path d="M390.189 71.2964C391.218 70.6971 391.791 69.5377 391.661 68.3393C391.504 66.9584 390.384 65.8381 389.003 65.6818C388.143 65.5906 387.284 65.8642 386.645 66.4373C386.007 67.0105 385.629 67.8312 385.629 68.691C385.629 69.7592 386.202 70.7492 387.114 71.2964C386.867 71.3745 386.619 71.4787 386.398 71.609C386.372 71.622 386.333 71.6481 386.307 71.6742C385.343 72.2213 383.779 73.5109 383.936 75.947L383.962 76.2466H384.548C384.835 76.2466 385.069 76.0121 385.069 75.7255V75.5953H384.613C384.613 73.9669 385.512 73.0029 386.307 72.4688L386.411 72.4037C387.075 71.9738 387.857 71.7393 388.651 71.7393C390.814 71.7393 392.599 73.3937 392.768 75.5301H386.502V75.6604C386.502 75.973 386.763 76.2336 387.075 76.2336H393.497V75.8818C393.484 73.7975 392.143 71.9477 390.189 71.2964ZM386.333 68.691C386.333 67.4144 387.375 66.3722 388.651 66.3722C389.394 66.3722 390.058 66.7239 390.475 67.2711C390.788 67.6619 390.97 68.1569 390.97 68.704C390.97 69.9807 389.928 71.0228 388.651 71.0228C387.987 71.0228 387.388 70.7492 386.971 70.2933C386.567 69.8764 386.333 69.3163 386.333 68.691Z" fill="#121A67"/>
<rect x="0.725027" y="89.3359" width="425.55" height="23.4028" rx="3.3754" stroke="#E6E6E6" stroke-width="0.450054"/>
<path d="M14.9732 100.86C14.9732 101.453 14.8977 101.994 14.7468 102.481C14.5959 102.966 14.3713 103.383 14.073 103.734C13.7782 104.082 13.4114 104.35 12.9728 104.54C12.5341 104.729 12.0252 104.824 11.4462 104.824C10.8496 104.824 10.3284 104.729 9.88271 104.54C9.44052 104.35 9.07203 104.08 8.77723 103.729C8.48595 103.378 8.26661 102.959 8.11921 102.471C7.97533 101.983 7.90338 101.443 7.90338 100.85C7.90338 100.063 8.03323 99.3739 8.29293 98.7808C8.55263 98.1877 8.94569 97.7262 9.4721 97.3963C10.002 97.0664 10.6653 96.9015 11.462 96.9015C12.2235 96.9015 12.864 97.0647 13.3834 97.391C13.9063 97.7174 14.3011 98.1772 14.5678 98.7702C14.838 99.3598 14.9732 100.056 14.9732 100.86ZM8.84567 100.86C8.84567 101.513 8.93867 102.078 9.12467 102.555C9.31067 103.032 9.59493 103.401 9.97746 103.661C10.3635 103.92 10.8531 104.05 11.4462 104.05C12.0428 104.05 12.5306 103.92 12.9096 103.661C13.2921 103.401 13.5746 103.032 13.7571 102.555C13.9396 102.078 14.0309 101.513 14.0309 100.86C14.0309 99.8669 13.8221 99.0914 13.4044 98.5334C12.9903 97.9718 12.3428 97.6911 11.462 97.6911C10.8654 97.6911 10.374 97.8192 9.98799 98.0754C9.60195 98.3316 9.31418 98.6965 9.12467 99.1703C8.93867 99.6406 8.84567 100.204 8.84567 100.86ZM18.4212 104.108C18.5651 104.108 18.7125 104.096 18.8634 104.071C19.0143 104.047 19.1371 104.017 19.2319 103.982V104.661C19.1301 104.706 18.988 104.745 18.8055 104.777C18.6265 104.808 18.451 104.824 18.279 104.824C17.9737 104.824 17.6965 104.771 17.4473 104.666C17.1981 104.557 16.9981 104.375 16.8472 104.119C16.6998 103.862 16.6261 103.508 16.6261 103.055V99.6336H15.8049V99.2072L16.6314 98.865L16.9788 97.6121H17.5052V98.9492H19.195V99.6336H17.5052V103.029C17.5052 103.39 17.5877 103.661 17.7526 103.84C17.9211 104.019 18.1439 104.108 18.4212 104.108ZM21.2744 96.5277V98.9755C21.2744 99.1159 21.2708 99.2581 21.2638 99.4019C21.2568 99.5423 21.2445 99.6722 21.227 99.7915H21.2849C21.4042 99.5879 21.5551 99.4177 21.7376 99.2809C21.9236 99.1405 22.1342 99.0352 22.3693 98.965C22.6044 98.8913 22.8536 98.8545 23.1168 98.8545C23.5801 98.8545 23.9661 98.9282 24.2749 99.0756C24.5873 99.223 24.8206 99.4511 24.9751 99.7599C25.133 100.069 25.2119 100.469 25.2119 100.96V104.719H24.3486V101.018C24.3486 100.537 24.2381 100.178 24.017 99.9389C23.7994 99.7002 23.4642 99.5809 23.0115 99.5809C22.5834 99.5809 22.2412 99.6634 21.985 99.8283C21.7323 99.9898 21.5498 100.228 21.4375 100.544C21.3287 100.86 21.2744 101.246 21.2744 101.702V104.719H20.4005V96.5277H21.2744ZM29.2338 98.8439C29.7251 98.8439 30.1462 98.9527 30.4972 99.1703C30.8481 99.3879 31.1166 99.6932 31.3026 100.086C31.4886 100.476 31.5816 100.932 31.5816 101.455V101.997H27.5966C27.6071 102.675 27.7756 103.19 28.102 103.545C28.4283 103.899 28.8881 104.077 29.4812 104.077C29.8462 104.077 30.169 104.043 30.4498 103.977C30.7305 103.91 31.0218 103.812 31.3236 103.682V104.45C31.0324 104.58 30.7428 104.675 30.4551 104.735C30.1708 104.794 29.8339 104.824 29.4443 104.824C28.8898 104.824 28.4055 104.712 27.9914 104.487C27.5808 104.259 27.2615 103.926 27.0333 103.487C26.8052 103.048 26.6912 102.511 26.6912 101.876C26.6912 101.255 26.7947 100.718 27.0018 100.265C27.2123 99.809 27.5071 99.4581 27.8861 99.2124C28.2687 98.9668 28.7179 98.8439 29.2338 98.8439ZM29.2232 99.5599C28.7565 99.5599 28.3845 99.7125 28.1072 100.018C27.83 100.323 27.665 100.75 27.6124 101.297H30.6656C30.6621 100.953 30.6077 100.651 30.5024 100.392C30.4007 100.128 30.2445 99.9249 30.0339 99.781C29.8234 99.6336 29.5531 99.5599 29.2232 99.5599ZM35.6876 98.8439C35.8034 98.8439 35.9245 98.851 36.0509 98.865C36.1772 98.8755 36.2895 98.8913 36.3878 98.9124L36.2772 99.7231C36.1825 99.6985 36.0772 99.6792 35.9614 99.6652C35.8456 99.6511 35.7368 99.6441 35.635 99.6441C35.4034 99.6441 35.184 99.6915 34.977 99.7862C34.7734 99.8775 34.5944 100.011 34.44 100.186C34.2856 100.358 34.1645 100.567 34.0768 100.813C33.9891 101.055 33.9452 101.325 33.9452 101.623V104.719H33.0661V98.9492H33.7925L33.8873 100.013H33.9241C34.0435 99.7985 34.1873 99.6037 34.3558 99.4283C34.5242 99.2493 34.719 99.1072 34.9401 99.0019C35.1647 98.8966 35.4139 98.8439 35.6876 98.8439Z" fill="#4F4F4F"/>
<path d="M403.278 101.741C403.278 102.262 403.238 102.728 403.159 103.138C403.08 103.549 402.956 103.896 402.786 104.18C402.616 104.464 402.396 104.681 402.126 104.831C401.857 104.977 401.533 105.05 401.155 105.05C400.677 105.05 400.282 104.92 399.968 104.659C399.658 104.398 399.425 104.022 399.27 103.53C399.117 103.034 399.041 102.438 399.041 101.741C399.041 101.055 399.11 100.466 399.248 99.974C399.388 99.4788 399.614 99.0994 399.924 98.8357C400.235 98.5691 400.645 98.4357 401.155 98.4357C401.639 98.4357 402.037 98.5676 402.351 98.8313C402.664 99.0921 402.897 99.4701 403.049 99.9652C403.202 100.457 403.278 101.049 403.278 101.741ZM399.775 101.741C399.775 102.339 399.82 102.837 399.911 103.235C400.002 103.634 400.149 103.932 400.351 104.132C400.556 104.328 400.824 104.426 401.155 104.426C401.486 104.426 401.753 104.328 401.955 104.132C402.16 103.935 402.308 103.638 402.399 103.24C402.493 102.841 402.54 102.341 402.54 101.741C402.54 101.152 402.494 100.66 402.403 100.264C402.312 99.8656 402.166 99.5667 401.964 99.3675C401.762 99.1653 401.492 99.0642 401.155 99.0642C400.818 99.0642 400.549 99.1653 400.346 99.3675C400.144 99.5667 399.998 99.8656 399.907 100.264C399.819 100.66 399.775 101.152 399.775 101.741Z" fill="#666666"/>
<path d="M356.312 101.456C356.312 102.077 356.263 102.632 356.165 103.12C356.07 103.607 355.916 104.021 355.702 104.362C355.491 104.702 355.214 104.962 354.87 105.141C354.526 105.32 354.109 105.409 353.617 105.409C353 105.409 352.492 105.253 352.096 104.941C351.699 104.625 351.406 104.172 351.217 103.583C351.027 102.99 350.933 102.281 350.933 101.456C350.933 100.624 351.018 99.9137 351.19 99.3241C351.366 98.731 351.65 98.2765 352.043 97.9607C352.436 97.6448 352.961 97.4869 353.617 97.4869C354.231 97.4869 354.737 97.6448 355.133 97.9607C355.533 98.273 355.83 98.7258 356.023 99.3188C356.216 99.9084 356.312 100.621 356.312 101.456ZM352.549 101.456C352.549 102.042 352.58 102.532 352.643 102.925C352.71 103.314 352.821 103.607 352.975 103.804C353.129 104 353.344 104.099 353.617 104.099C353.887 104.099 354.1 104.002 354.254 103.809C354.412 103.613 354.524 103.32 354.591 102.93C354.658 102.537 354.691 102.046 354.691 101.456C354.691 100.87 354.658 100.38 354.591 99.9874C354.524 99.5943 354.412 99.2995 354.254 99.103C354.1 98.903 353.887 98.803 353.617 98.803C353.344 98.803 353.129 98.903 352.975 99.103C352.821 99.2995 352.71 99.5943 352.643 99.9874C352.58 100.38 352.549 100.87 352.549 101.456ZM358.86 97.4974C359.464 97.4974 359.922 97.708 360.234 98.1291C360.547 98.5503 360.703 99.1416 360.703 99.9032C360.703 100.665 360.555 101.26 360.261 101.688C359.966 102.116 359.499 102.33 358.86 102.33C358.267 102.33 357.816 102.116 357.507 101.688C357.199 101.26 357.044 100.665 357.044 99.9032C357.044 99.1416 357.188 98.5503 357.476 98.1291C357.767 97.708 358.229 97.4974 358.86 97.4974ZM358.871 98.5977C358.699 98.5977 358.573 98.7064 358.492 98.924C358.411 99.1416 358.371 99.4715 358.371 99.9137C358.371 100.356 358.411 100.688 358.492 100.909C358.573 101.13 358.699 101.24 358.871 101.24C359.043 101.24 359.169 101.131 359.25 100.914C359.334 100.693 359.376 100.359 359.376 99.9137C359.376 99.4715 359.334 99.1416 359.25 98.924C359.169 98.7064 359.043 98.5977 358.871 98.5977ZM364.325 97.608L360.055 105.304H358.792L363.061 97.608H364.325ZM364.251 100.572C364.854 100.572 365.312 100.782 365.625 101.203C365.937 101.625 366.093 102.216 366.093 102.977C366.093 103.735 365.946 104.329 365.651 104.757C365.356 105.185 364.89 105.399 364.251 105.399C363.658 105.399 363.207 105.185 362.898 104.757C362.589 104.329 362.435 103.735 362.435 102.977C362.435 102.216 362.579 101.625 362.866 101.203C363.158 100.782 363.619 100.572 364.251 100.572ZM364.261 101.672C364.089 101.672 363.963 101.781 363.882 101.998C363.802 102.216 363.761 102.546 363.761 102.988C363.761 103.43 363.802 103.762 363.882 103.983C363.963 104.204 364.089 104.315 364.261 104.315C364.433 104.315 364.56 104.206 364.64 103.988C364.725 103.767 364.767 103.434 364.767 102.988C364.767 102.546 364.725 102.216 364.64 101.998C364.56 101.781 364.433 101.672 364.261 101.672Z" fill="#4168FF"/>
<path d="M386.945 101.753C386.945 101.753 388.691 103.069 390.371 101.701C390.371 101.701 392.716 101.805 393.094 105.531L386.502 105.466L385.056 105.492L384.613 105.31C384.613 105.31 384.288 102.379 386.945 101.753Z" fill="#4168FF"/>
<path opacity="0.2" d="M390.97 98.3919C390.97 99.6686 389.928 100.711 388.652 100.711C387.987 100.711 387.388 100.437 386.971 99.9812C387.61 100.125 389.029 100.32 389.759 99.4732C390.488 98.6395 390.515 97.4801 390.475 96.959C390.788 97.3628 390.97 97.8578 390.97 98.3919Z" fill="#4168FF"/>
<path d="M390.189 100.998C391.218 100.398 391.791 99.2389 391.661 98.0404C391.504 96.6596 390.384 95.5393 389.003 95.3829C388.143 95.2918 387.284 95.5653 386.645 96.1385C386.007 96.7117 385.629 97.5324 385.629 98.3922C385.629 99.4604 386.202 100.45 387.114 100.998C386.867 101.076 386.619 101.18 386.398 101.31C386.372 101.323 386.333 101.349 386.307 101.375C385.343 101.922 383.779 103.212 383.936 105.648L383.962 105.948H384.548C384.835 105.948 385.069 105.713 385.069 105.427V105.296H384.613C384.613 103.668 385.512 102.704 386.307 102.17L386.411 102.105C387.075 101.675 387.857 101.44 388.651 101.44C390.814 101.44 392.599 103.095 392.768 105.231H386.502V105.362C386.502 105.674 386.763 105.935 387.075 105.935H393.497V105.583C393.484 103.499 392.143 101.649 390.189 100.998ZM386.333 98.3922C386.333 97.1155 387.375 96.0734 388.651 96.0734C389.394 96.0734 390.058 96.4251 390.475 96.9722C390.788 97.363 390.97 97.8581 390.97 98.4052C390.97 99.6818 389.928 100.724 388.651 100.724C387.987 100.724 387.388 100.45 386.971 99.9945C386.567 99.5776 386.333 99.0175 386.333 98.3922Z" fill="#121A67"/>
</svg>
