<svg width="276" height="195" viewBox="0 0 276 195" fill="none" xmlns="http://www.w3.org/2000/svg">
<rect width="276" height="195" rx="16.7228" fill="#F2F2F2"/>
<path d="M77.4633 15.0057V21.3671C77.4633 22.044 77.3132 22.6559 77.0128 23.2029C76.7169 23.7453 76.2664 24.1757 75.6612 24.494C75.0605 24.8123 74.3028 24.9714 73.3883 24.9714C72.0883 24.9714 71.0975 24.6397 70.4161 23.9762C69.7347 23.3127 69.394 22.434 69.394 21.3402V15.0057H71.4718V21.0241C71.4718 21.8356 71.6377 22.4049 71.9695 22.7322C72.3012 23.0594 72.7921 23.223 73.4421 23.223C73.8994 23.223 74.2692 23.1446 74.5517 22.9877C74.8386 22.8308 75.0493 22.5887 75.1838 22.2614C75.3182 21.9342 75.3855 21.5173 75.3855 21.0107V15.0057H77.4633ZM83.9794 17.1777C84.7818 17.1777 85.4274 17.3974 85.916 17.8367C86.4047 18.2716 86.649 18.9709 86.649 19.9348V24.8369H84.598V20.4458C84.598 19.9079 84.4994 19.5022 84.3021 19.2287C84.1094 18.9552 83.8045 18.8185 83.3876 18.8185C82.76 18.8185 82.3319 19.0315 82.1032 19.4573C81.8746 19.8832 81.7603 20.4974 81.7603 21.2998V24.8369H79.7093V17.319H81.2761L81.5518 18.2806H81.6661C81.8275 18.0205 82.027 17.8098 82.2646 17.6485C82.5067 17.4871 82.7734 17.3683 83.0648 17.2921C83.3607 17.2158 83.6656 17.1777 83.9794 17.1777ZM91.8134 24.9714C91.0692 24.9714 90.4349 24.8369 89.9104 24.5679C89.3858 24.2945 88.9869 23.8731 88.7134 23.3037C88.4399 22.7344 88.3032 22.0059 88.3032 21.1183C88.3032 20.1993 88.4579 19.4506 88.7672 18.8723C89.081 18.2895 89.5136 17.8614 90.065 17.5879C90.6209 17.3145 91.2642 17.1777 91.9949 17.1777C92.515 17.1777 92.9633 17.2293 93.3398 17.3324C93.7209 17.431 94.0526 17.5498 94.3351 17.6888L93.7299 19.2758C93.4071 19.1458 93.1067 19.0404 92.8288 18.9597C92.5508 18.8745 92.2729 18.832 91.9949 18.832C91.6363 18.832 91.3382 18.9171 91.1006 19.0875C90.863 19.2534 90.6859 19.5044 90.5693 19.8406C90.4528 20.1769 90.3945 20.5983 90.3945 21.1048C90.3945 21.6024 90.4573 22.0149 90.5828 22.3421C90.7083 22.6694 90.8899 22.9137 91.1275 23.0751C91.3651 23.232 91.6542 23.3105 91.9949 23.3105C92.4208 23.3105 92.7996 23.2544 93.1314 23.1423C93.4631 23.0258 93.7859 22.8644 94.0997 22.6582V24.4133C93.7859 24.6105 93.4564 24.7517 93.1112 24.8369C92.7705 24.9266 92.3379 24.9714 91.8134 24.9714ZM97.899 24.8369H95.8481V14.3736H97.899V24.8369ZM103.158 17.1777C103.852 17.1777 104.451 17.3122 104.953 17.5812C105.455 17.8457 105.843 18.2312 106.116 18.7378C106.39 19.2444 106.527 19.863 106.527 20.5938V21.589H101.678C101.701 22.1673 101.873 22.6223 102.196 22.9541C102.523 23.2813 102.976 23.4449 103.554 23.4449C104.034 23.4449 104.473 23.3956 104.872 23.297C105.271 23.1984 105.681 23.0504 106.103 22.8532V24.4402C105.731 24.624 105.341 24.7585 104.933 24.8436C104.529 24.9288 104.038 24.9714 103.46 24.9714C102.707 24.9714 102.039 24.8324 101.456 24.5545C100.878 24.2765 100.423 23.8529 100.091 23.2836C99.7639 22.7142 99.6003 21.9969 99.6003 21.1317C99.6003 20.2531 99.7483 19.5223 100.044 18.9396C100.344 18.3523 100.761 17.9129 101.295 17.6216C101.828 17.3257 102.449 17.1777 103.158 17.1777ZM103.171 18.6369C102.772 18.6369 102.44 18.7647 102.176 19.0202C101.916 19.2758 101.766 19.677 101.725 20.2239H104.603C104.599 19.9191 104.543 19.6479 104.435 19.4103C104.332 19.1727 104.175 18.9844 103.965 18.8454C103.758 18.7064 103.494 18.6369 103.171 18.6369ZM111.274 17.1643C112.283 17.1643 113.056 17.384 113.594 17.8233C114.132 18.2626 114.401 18.9306 114.401 19.8272V24.8369H112.969L112.572 23.8148H112.518C112.303 24.0838 112.083 24.3034 111.859 24.4738C111.635 24.6441 111.377 24.7697 111.086 24.8504C110.794 24.9311 110.44 24.9714 110.023 24.9714C109.579 24.9714 109.18 24.8862 108.826 24.7159C108.477 24.5455 108.201 24.2855 107.999 23.9358C107.797 23.5817 107.697 23.1334 107.697 22.5909C107.697 21.793 107.977 21.2057 108.537 20.8291C109.098 20.4481 109.938 20.2374 111.059 20.197L112.363 20.1567V19.8272C112.363 19.4327 112.26 19.1435 112.054 18.9597C111.848 18.7759 111.561 18.684 111.193 18.684C110.83 18.684 110.474 18.7356 110.124 18.8387C109.774 18.9418 109.425 19.0718 109.075 19.2287L108.396 17.8435C108.795 17.6328 109.241 17.4669 109.734 17.3459C110.232 17.2248 110.745 17.1643 111.274 17.1643ZM112.363 21.3536L111.57 21.3805C110.906 21.3985 110.445 21.5173 110.185 21.7369C109.929 21.9566 109.801 22.2458 109.801 22.6044C109.801 22.9182 109.893 23.1423 110.077 23.2768C110.261 23.4068 110.501 23.4718 110.797 23.4718C111.236 23.4718 111.606 23.3418 111.906 23.0818C112.211 22.8218 112.363 22.452 112.363 21.9723V21.3536ZM120.715 17.1777C120.818 17.1777 120.937 17.1845 121.072 17.1979C121.211 17.2069 121.323 17.2203 121.408 17.2383L121.253 19.1615C121.186 19.139 121.089 19.1234 120.964 19.1144C120.843 19.1009 120.738 19.0942 120.648 19.0942C120.383 19.0942 120.126 19.1278 119.875 19.1951C119.628 19.2623 119.406 19.3722 119.209 19.5246C119.012 19.6725 118.855 19.8698 118.738 20.1163C118.626 20.3584 118.57 20.6565 118.57 21.0107V24.8369H116.519V17.319H118.072L118.375 18.5832H118.476C118.624 18.3276 118.808 18.0945 119.027 17.8838C119.251 17.6686 119.505 17.4983 119.787 17.3727C120.074 17.2427 120.383 17.1777 120.715 17.1777ZM128.401 17.319V24.8369H126.35V17.319H128.401ZM127.379 14.3736C127.684 14.3736 127.946 14.4454 128.166 14.5888C128.386 14.7278 128.495 14.99 128.495 15.3756C128.495 15.7566 128.386 16.0211 128.166 16.1691C127.946 16.3125 127.684 16.3843 127.379 16.3843C127.07 16.3843 126.805 16.3125 126.586 16.1691C126.37 16.0211 126.263 15.7566 126.263 15.3756C126.263 14.99 126.37 14.7278 126.586 14.5888C126.805 14.4454 127.07 14.3736 127.379 14.3736ZM134.83 17.1777C135.632 17.1777 136.278 17.3974 136.766 17.8367C137.255 18.2716 137.499 18.9709 137.499 19.9348V24.8369H135.448V20.4458C135.448 19.9079 135.35 19.5022 135.153 19.2287C134.96 18.9552 134.655 18.8185 134.238 18.8185C133.61 18.8185 133.182 19.0315 132.954 19.4573C132.725 19.8832 132.611 20.4974 132.611 21.2998V24.8369H130.56V17.319H132.127L132.402 18.2806H132.517C132.678 18.0205 132.877 17.8098 133.115 17.6485C133.357 17.4871 133.624 17.3683 133.915 17.2921C134.211 17.2158 134.516 17.1777 134.83 17.1777ZM143.767 18.8589H141.991V24.8369H139.94V18.8589H138.811V17.8704L139.94 17.319V16.7675C139.94 16.1265 140.048 15.6289 140.263 15.2747C140.483 14.9161 140.79 14.665 141.184 14.5216C141.583 14.3736 142.054 14.2997 142.597 14.2997C142.996 14.2997 143.359 14.3333 143.686 14.4005C144.013 14.4633 144.28 14.535 144.486 14.6157L143.962 16.122C143.805 16.0727 143.634 16.0279 143.451 15.9875C143.267 15.9472 143.056 15.927 142.819 15.927C142.532 15.927 142.321 16.0144 142.186 16.1892C142.056 16.3596 141.991 16.5793 141.991 16.8482V17.319H143.767V18.8589ZM151.782 21.0645C151.782 21.6921 151.697 22.248 151.527 22.7322C151.361 23.2163 151.117 23.6265 150.794 23.9627C150.475 24.2945 150.09 24.5455 149.637 24.7159C149.189 24.8862 148.682 24.9714 148.117 24.9714C147.588 24.9714 147.102 24.8862 146.658 24.7159C146.219 24.5455 145.836 24.2945 145.508 23.9627C145.186 23.6265 144.934 23.2163 144.755 22.7322C144.58 22.248 144.493 21.6921 144.493 21.0645C144.493 20.2306 144.641 19.5246 144.937 18.9463C145.233 18.368 145.654 17.9286 146.201 17.6283C146.748 17.3279 147.4 17.1777 148.158 17.1777C148.862 17.1777 149.485 17.3279 150.027 17.6283C150.574 17.9286 151.002 18.368 151.312 18.9463C151.625 19.5246 151.782 20.2306 151.782 21.0645ZM146.584 21.0645C146.584 21.5576 146.638 21.9723 146.746 22.3085C146.853 22.6447 147.021 22.898 147.25 23.0684C147.479 23.2387 147.777 23.3239 148.144 23.3239C148.507 23.3239 148.801 23.2387 149.025 23.0684C149.254 22.898 149.42 22.6447 149.523 22.3085C149.63 21.9723 149.684 21.5576 149.684 21.0645C149.684 20.5669 149.63 20.1544 149.523 19.8272C149.42 19.4954 149.254 19.2466 149.025 19.0808C148.797 18.9149 148.498 18.832 148.131 18.832C147.588 18.832 147.194 19.018 146.947 19.3901C146.705 19.7622 146.584 20.3203 146.584 21.0645ZM157.673 17.1777C157.776 17.1777 157.895 17.1845 158.029 17.1979C158.168 17.2069 158.28 17.2203 158.365 17.2383L158.211 19.1615C158.144 19.139 158.047 19.1234 157.922 19.1144C157.801 19.1009 157.695 19.0942 157.606 19.0942C157.341 19.0942 157.083 19.1278 156.832 19.1951C156.586 19.2623 156.364 19.3722 156.167 19.5246C155.969 19.6725 155.812 19.8698 155.696 20.1163C155.584 20.3584 155.528 20.6565 155.528 21.0107V24.8369H153.477V17.319H155.03L155.333 18.5832H155.434C155.582 18.3276 155.765 18.0945 155.985 17.8838C156.209 17.6686 156.462 17.4983 156.745 17.3727C157.032 17.2427 157.341 17.1777 157.673 17.1777ZM168.56 17.1777C169.412 17.1777 170.055 17.3974 170.49 17.8367C170.929 18.2716 171.149 18.9709 171.149 19.9348V24.8369H169.091V20.4458C169.091 19.9079 168.999 19.5022 168.815 19.2287C168.632 18.9552 168.347 18.8185 167.961 18.8185C167.419 18.8185 167.033 19.0135 166.805 19.4035C166.576 19.7891 166.462 20.3427 166.462 21.0645V24.8369H164.411V20.4458C164.411 20.0872 164.37 19.7868 164.29 19.5448C164.209 19.3027 164.086 19.1211 163.92 19.0001C163.754 18.879 163.541 18.8185 163.281 18.8185C162.9 18.8185 162.6 18.9149 162.38 19.1077C162.165 19.2959 162.01 19.5761 161.916 19.9482C161.826 20.3158 161.782 20.7664 161.782 21.2998V24.8369H159.731V17.319H161.297L161.573 18.2806H161.687C161.84 18.0205 162.03 17.8098 162.259 17.6485C162.492 17.4871 162.748 17.3683 163.026 17.2921C163.303 17.2158 163.586 17.1777 163.873 17.1777C164.424 17.1777 164.89 17.2674 165.272 17.4467C165.657 17.626 165.953 17.904 166.159 18.2806H166.341C166.565 17.895 166.881 17.6148 167.289 17.44C167.701 17.2652 168.125 17.1777 168.56 17.1777ZM176.34 17.1643C177.349 17.1643 178.122 17.384 178.66 17.8233C179.198 18.2626 179.467 18.9306 179.467 19.8272V24.8369H178.035L177.638 23.8148H177.584C177.369 24.0838 177.149 24.3034 176.925 24.4738C176.701 24.6441 176.443 24.7697 176.152 24.8504C175.86 24.9311 175.506 24.9714 175.089 24.9714C174.645 24.9714 174.246 24.8862 173.892 24.7159C173.543 24.5455 173.267 24.2855 173.065 23.9358C172.863 23.5817 172.763 23.1334 172.763 22.5909C172.763 21.793 173.043 21.2057 173.603 20.8291C174.164 20.4481 175.004 20.2374 176.125 20.197L177.429 20.1567V19.8272C177.429 19.4327 177.326 19.1435 177.12 18.9597C176.914 18.7759 176.627 18.684 176.259 18.684C175.896 18.684 175.54 18.7356 175.19 18.8387C174.84 18.9418 174.491 19.0718 174.141 19.2287L173.462 17.8435C173.861 17.6328 174.307 17.4669 174.8 17.3459C175.298 17.2248 175.811 17.1643 176.34 17.1643ZM177.429 21.3536L176.636 21.3805C175.972 21.3985 175.511 21.5173 175.251 21.7369C174.995 21.9566 174.867 22.2458 174.867 22.6044C174.867 22.9182 174.959 23.1423 175.143 23.2768C175.327 23.4068 175.567 23.4718 175.863 23.4718C176.302 23.4718 176.672 23.3418 176.972 23.0818C177.277 22.8218 177.429 22.452 177.429 21.9723V21.3536ZM184.752 23.3374C184.976 23.3374 185.194 23.3149 185.405 23.2701C185.62 23.2253 185.833 23.1692 186.043 23.102V24.6285C185.824 24.7271 185.55 24.8078 185.223 24.8705C184.9 24.9378 184.546 24.9714 184.161 24.9714C183.712 24.9714 183.309 24.8997 182.95 24.7562C182.596 24.6083 182.316 24.355 182.11 23.9964C181.908 23.6332 181.807 23.1289 181.807 22.4833V18.8589H180.825V17.9914L181.955 17.3055L182.547 15.7185H183.858V17.319H185.963V18.8589H183.858V22.4833C183.858 22.7703 183.939 22.9854 184.1 23.1289C184.266 23.2679 184.483 23.3374 184.752 23.3374ZM189.621 17.319V24.8369H187.57V17.319H189.621ZM188.599 14.3736C188.904 14.3736 189.166 14.4454 189.385 14.5888C189.605 14.7278 189.715 14.99 189.715 15.3756C189.715 15.7566 189.605 16.0211 189.385 16.1691C189.166 16.3125 188.904 16.3843 188.599 16.3843C188.289 16.3843 188.025 16.3125 187.805 16.1691C187.59 16.0211 187.482 15.7566 187.482 15.3756C187.482 14.99 187.59 14.7278 187.805 14.5888C188.025 14.4454 188.289 14.3736 188.599 14.3736ZM198.611 21.0645C198.611 21.6921 198.526 22.248 198.356 22.7322C198.19 23.2163 197.946 23.6265 197.623 23.9627C197.305 24.2945 196.919 24.5455 196.466 24.7159C196.018 24.8862 195.511 24.9714 194.947 24.9714C194.418 24.9714 193.931 24.8862 193.487 24.7159C193.048 24.5455 192.665 24.2945 192.338 23.9627C192.015 23.6265 191.764 23.2163 191.584 22.7322C191.41 22.248 191.322 21.6921 191.322 21.0645C191.322 20.2306 191.47 19.5246 191.766 18.9463C192.062 18.368 192.483 17.9286 193.03 17.6283C193.577 17.3279 194.229 17.1777 194.987 17.1777C195.691 17.1777 196.314 17.3279 196.856 17.6283C197.403 17.9286 197.831 18.368 198.141 18.9463C198.455 19.5246 198.611 20.2306 198.611 21.0645ZM193.413 21.0645C193.413 21.5576 193.467 21.9723 193.575 22.3085C193.682 22.6447 193.851 22.898 194.079 23.0684C194.308 23.2387 194.606 23.3239 194.974 23.3239C195.337 23.3239 195.63 23.2387 195.854 23.0684C196.083 22.898 196.249 22.6447 196.352 22.3085C196.46 21.9723 196.513 21.5576 196.513 21.0645C196.513 20.5669 196.46 20.1544 196.352 19.8272C196.249 19.4954 196.083 19.2466 195.854 19.0808C195.626 18.9149 195.328 18.832 194.96 18.832C194.418 18.832 194.023 19.018 193.777 19.3901C193.534 19.7622 193.413 20.3203 193.413 21.0645ZM204.576 17.1777C205.379 17.1777 206.024 17.3974 206.513 17.8367C207.001 18.2716 207.246 18.9709 207.246 19.9348V24.8369H205.195V20.4458C205.195 19.9079 205.096 19.5022 204.899 19.2287C204.706 18.9552 204.401 18.8185 203.984 18.8185C203.357 18.8185 202.929 19.0315 202.7 19.4573C202.471 19.8832 202.357 20.4974 202.357 21.2998V24.8369H200.306V17.319H201.873L202.149 18.2806H202.263C202.424 18.0205 202.624 17.8098 202.861 17.6485C203.103 17.4871 203.37 17.3683 203.662 17.2921C203.957 17.2158 204.262 17.1777 204.576 17.1777Z" fill="#030620"/>
<rect x="84.1465" y="39.8569" width="45.2038" height="45.2038" fill="#030620"/>
<rect x="145.674" y="48.646" width="45.2038" height="45.2038" fill="#7D8FFF"/>
<rect x="106.749" y="101.384" width="45.2038" height="45.2038" fill="#801060"/>
<rect x="164.509" y="135.289" width="45.2038" height="45.2038" fill="#E993B7"/>
<rect x="87.9136" y="48.646" width="33.9029" height="2.51132" rx="1.25566" fill="white"/>
<rect x="150.697" y="52.4131" width="18.8194" height="2.50925" rx="1.25463" fill="white"/>
<rect x="111.771" y="106.406" width="18.8194" height="2.50925" rx="1.25463" fill="white"/>
<rect x="169.532" y="147.844" width="18.8194" height="2.50925" rx="1.25463" fill="white"/>
<rect x="111.771" y="126.497" width="18.8194" height="2.50925" rx="1.25463" fill="white"/>
<rect x="87.9136" y="53.6689" width="33.9029" height="2.51132" rx="1.25566" fill="white"/>
<rect x="150.697" y="57.437" width="33.9029" height="2.51132" rx="1.25566" fill="white"/>
<rect x="111.771" y="111.429" width="33.9029" height="2.51132" rx="1.25566" fill="white"/>
<rect x="169.532" y="154.122" width="27.6246" height="2.51132" rx="1.25566" fill="white"/>
<rect x="87.9136" y="58.6919" width="17.5648" height="2.50925" rx="1.25463" fill="white"/>
<rect x="150.697" y="62.458" width="25.1132" height="2.51132" rx="1.25566" fill="white"/>
<rect x="111.771" y="116.452" width="25.1132" height="2.51132" rx="1.25566" fill="white"/>
<rect x="169.532" y="160.399" width="25.1132" height="2.51132" rx="1.25566" fill="white"/>
<rect x="111.771" y="121.474" width="30.1359" height="2.51132" rx="1.25566" fill="white"/>
</svg>
