<svg width="284" height="204" viewBox="0 0 284 204" fill="none" xmlns="http://www.w3.org/2000/svg">
<g filter="url(#filter0_d_426_3073)">
<rect x="4" y="0.787598" width="276" height="195" rx="8" fill="#E993B7" fill-opacity="0.2"/>
<rect x="4" y="0.787598" width="276" height="195" rx="8" fill="white"/>
</g>
<path d="M81.4633 15.7933V22.1547C81.4633 22.8316 81.3132 23.4435 81.0128 23.9905C80.7169 24.5329 80.2664 24.9633 79.6612 25.2816C79.0605 25.5999 78.3028 25.759 77.3883 25.759C76.0883 25.759 75.0975 25.4273 74.4161 24.7638C73.7347 24.1003 73.394 23.2216 73.394 22.1278V15.7933H75.4718V21.8117C75.4718 22.6232 75.6377 23.1925 75.9695 23.5198C76.3012 23.847 76.7921 24.0106 77.4421 24.0106C77.8994 24.0106 78.2692 23.9322 78.5517 23.7753C78.8386 23.6184 79.0493 23.3763 79.1838 23.049C79.3182 22.7218 79.3855 22.3049 79.3855 21.7983V15.7933H81.4633ZM87.9794 17.9653C88.7818 17.9653 89.4274 18.185 89.916 18.6243C90.4047 19.0592 90.649 19.7585 90.649 20.7224V25.6245H88.598V21.2334C88.598 20.6955 88.4994 20.2898 88.3021 20.0163C88.1094 19.7428 87.8045 19.6061 87.3876 19.6061C86.76 19.6061 86.3319 19.819 86.1032 20.2449C85.8746 20.6708 85.7603 21.285 85.7603 22.0874V25.6245H83.7093V18.1066H85.2761L85.5518 19.0682H85.6661C85.8275 18.8081 86.027 18.5974 86.2646 18.436C86.5067 18.2747 86.7734 18.1559 87.0648 18.0797C87.3607 18.0034 87.6656 17.9653 87.9794 17.9653ZM95.8134 25.759C95.0692 25.759 94.4349 25.6245 93.9104 25.3555C93.3858 25.0821 92.9869 24.6607 92.7134 24.0913C92.4399 23.522 92.3032 22.7935 92.3032 21.9059C92.3032 20.9869 92.4579 20.2382 92.7672 19.6599C93.081 19.0771 93.5136 18.649 94.065 18.3755C94.6209 18.1021 95.2642 17.9653 95.9949 17.9653C96.515 17.9653 96.9633 18.0169 97.3398 18.12C97.7209 18.2186 98.0526 18.3374 98.3351 18.4764L97.7299 20.0634C97.4071 19.9334 97.1067 19.828 96.8288 19.7473C96.5508 19.6621 96.2729 19.6196 95.9949 19.6196C95.6363 19.6196 95.3382 19.7047 95.1006 19.8751C94.863 20.041 94.6859 20.292 94.5693 20.6282C94.4528 20.9645 94.3945 21.3859 94.3945 21.8924C94.3945 22.39 94.4573 22.8025 94.5828 23.1297C94.7083 23.457 94.8899 23.7013 95.1275 23.8627C95.3651 24.0196 95.6542 24.0981 95.9949 24.0981C96.4208 24.0981 96.7996 24.042 97.1314 23.9299C97.4631 23.8134 97.7859 23.652 98.0997 23.4458V25.2009C97.7859 25.3981 97.4564 25.5393 97.1112 25.6245C96.7705 25.7142 96.3379 25.759 95.8134 25.759ZM101.899 25.6245H99.8481V15.1612H101.899V25.6245ZM107.158 17.9653C107.852 17.9653 108.451 18.0998 108.953 18.3688C109.455 18.6333 109.843 19.0188 110.116 19.5254C110.39 20.032 110.527 20.6506 110.527 21.3814V22.3766H105.678C105.701 22.9549 105.873 23.4099 106.196 23.7417C106.523 24.0689 106.976 24.2325 107.554 24.2325C108.034 24.2325 108.473 24.1832 108.872 24.0846C109.271 23.986 109.681 23.838 110.103 23.6408V25.2278C109.731 25.4116 109.341 25.5461 108.933 25.6312C108.529 25.7164 108.038 25.759 107.46 25.759C106.707 25.759 106.039 25.62 105.456 25.3421C104.878 25.0641 104.423 24.6405 104.091 24.0712C103.764 23.5018 103.6 22.7845 103.6 21.9193C103.6 21.0407 103.748 20.3099 104.044 19.7271C104.344 19.1399 104.761 18.7005 105.295 18.4092C105.828 18.1133 106.449 17.9653 107.158 17.9653ZM107.171 19.4245C106.772 19.4245 106.44 19.5523 106.176 19.8078C105.916 20.0634 105.766 20.4646 105.725 21.0115H108.603C108.599 20.7067 108.543 20.4355 108.435 20.1979C108.332 19.9603 108.175 19.772 107.965 19.633C107.758 19.494 107.494 19.4245 107.171 19.4245ZM115.274 17.9519C116.283 17.9519 117.056 18.1716 117.594 18.6109C118.132 19.0502 118.401 19.7182 118.401 20.6148V25.6245H116.969L116.572 24.6024H116.518C116.303 24.8714 116.083 25.091 115.859 25.2614C115.635 25.4317 115.377 25.5573 115.086 25.638C114.794 25.7187 114.44 25.759 114.023 25.759C113.579 25.759 113.18 25.6738 112.826 25.5035C112.477 25.3331 112.201 25.0731 111.999 24.7234C111.797 24.3693 111.697 23.921 111.697 23.3785C111.697 22.5806 111.977 21.9933 112.537 21.6167C113.098 21.2357 113.938 21.025 115.059 20.9846L116.363 20.9443V20.6148C116.363 20.2203 116.26 19.9311 116.054 19.7473C115.848 19.5635 115.561 19.4716 115.193 19.4716C114.83 19.4716 114.474 19.5232 114.124 19.6263C113.774 19.7294 113.425 19.8594 113.075 20.0163L112.396 18.6311C112.795 18.4204 113.241 18.2545 113.734 18.1334C114.232 18.0124 114.745 17.9519 115.274 17.9519ZM116.363 22.1412L115.57 22.1681C114.906 22.1861 114.445 22.3049 114.185 22.5245C113.929 22.7442 113.801 23.0333 113.801 23.392C113.801 23.7058 113.893 23.9299 114.077 24.0644C114.261 24.1944 114.501 24.2594 114.797 24.2594C115.236 24.2594 115.606 24.1294 115.906 23.8694C116.211 23.6094 116.363 23.2396 116.363 22.7599V22.1412ZM124.715 17.9653C124.818 17.9653 124.937 17.9721 125.072 17.9855C125.211 17.9945 125.323 18.0079 125.408 18.0259L125.253 19.9491C125.186 19.9266 125.089 19.911 124.964 19.902C124.843 19.8885 124.738 19.8818 124.648 19.8818C124.383 19.8818 124.126 19.9154 123.875 19.9827C123.628 20.0499 123.406 20.1598 123.209 20.3122C123.012 20.4601 122.855 20.6574 122.738 20.9039C122.626 21.146 122.57 21.4441 122.57 21.7983V25.6245H120.519V18.1066H122.072L122.375 19.3708H122.476C122.624 19.1152 122.808 18.8821 123.027 18.6714C123.251 18.4562 123.505 18.2859 123.787 18.1603C124.074 18.0303 124.383 17.9653 124.715 17.9653ZM132.401 18.1066V25.6245H130.35V18.1066H132.401ZM131.379 15.1612C131.684 15.1612 131.946 15.233 132.166 15.3764C132.386 15.5154 132.495 15.7776 132.495 16.1632C132.495 16.5442 132.386 16.8087 132.166 16.9567C131.946 17.1001 131.684 17.1718 131.379 17.1718C131.07 17.1718 130.805 17.1001 130.586 16.9567C130.37 16.8087 130.263 16.5442 130.263 16.1632C130.263 15.7776 130.37 15.5154 130.586 15.3764C130.805 15.233 131.07 15.1612 131.379 15.1612ZM138.83 17.9653C139.632 17.9653 140.278 18.185 140.766 18.6243C141.255 19.0592 141.499 19.7585 141.499 20.7224V25.6245H139.448V21.2334C139.448 20.6955 139.35 20.2898 139.153 20.0163C138.96 19.7428 138.655 19.6061 138.238 19.6061C137.61 19.6061 137.182 19.819 136.954 20.2449C136.725 20.6708 136.611 21.285 136.611 22.0874V25.6245H134.56V18.1066H136.127L136.402 19.0682H136.517C136.678 18.8081 136.877 18.5974 137.115 18.436C137.357 18.2747 137.624 18.1559 137.915 18.0797C138.211 18.0034 138.516 17.9653 138.83 17.9653ZM147.767 19.6465H145.991V25.6245H143.94V19.6465H142.811V18.658L143.94 18.1066V17.5551C143.94 16.9141 144.048 16.4165 144.263 16.0623C144.483 15.7037 144.79 15.4526 145.184 15.3092C145.583 15.1612 146.054 15.0873 146.597 15.0873C146.996 15.0873 147.359 15.1209 147.686 15.1881C148.013 15.2509 148.28 15.3226 148.486 15.4033L147.962 16.9096C147.805 16.8603 147.634 16.8155 147.451 16.7751C147.267 16.7348 147.056 16.7146 146.819 16.7146C146.532 16.7146 146.321 16.802 146.186 16.9768C146.056 17.1472 145.991 17.3669 145.991 17.6358V18.1066H147.767V19.6465ZM155.782 21.8521C155.782 22.4797 155.697 23.0356 155.527 23.5198C155.361 24.0039 155.117 24.4141 154.794 24.7503C154.475 25.0821 154.09 25.3331 153.637 25.5035C153.189 25.6738 152.682 25.759 152.117 25.759C151.588 25.759 151.102 25.6738 150.658 25.5035C150.219 25.3331 149.836 25.0821 149.508 24.7503C149.186 24.4141 148.934 24.0039 148.755 23.5198C148.58 23.0356 148.493 22.4797 148.493 21.8521C148.493 21.0182 148.641 20.3122 148.937 19.7339C149.233 19.1556 149.654 18.7162 150.201 18.4159C150.748 18.1155 151.4 17.9653 152.158 17.9653C152.862 17.9653 153.485 18.1155 154.027 18.4159C154.574 18.7162 155.002 19.1556 155.312 19.7339C155.625 20.3122 155.782 21.0182 155.782 21.8521ZM150.584 21.8521C150.584 22.3452 150.638 22.7599 150.746 23.0961C150.853 23.4323 151.021 23.6856 151.25 23.856C151.479 24.0263 151.777 24.1115 152.144 24.1115C152.507 24.1115 152.801 24.0263 153.025 23.856C153.254 23.6856 153.42 23.4323 153.523 23.0961C153.63 22.7599 153.684 22.3452 153.684 21.8521C153.684 21.3545 153.63 20.942 153.523 20.6148C153.42 20.283 153.254 20.0342 153.025 19.8684C152.797 19.7025 152.498 19.6196 152.131 19.6196C151.588 19.6196 151.194 19.8056 150.947 20.1777C150.705 20.5498 150.584 21.1079 150.584 21.8521ZM161.673 17.9653C161.776 17.9653 161.895 17.9721 162.029 17.9855C162.168 17.9945 162.28 18.0079 162.365 18.0259L162.211 19.9491C162.144 19.9266 162.047 19.911 161.922 19.902C161.801 19.8885 161.695 19.8818 161.606 19.8818C161.341 19.8818 161.083 19.9154 160.832 19.9827C160.586 20.0499 160.364 20.1598 160.167 20.3122C159.969 20.4601 159.812 20.6574 159.696 20.9039C159.584 21.146 159.528 21.4441 159.528 21.7983V25.6245H157.477V18.1066H159.03L159.333 19.3708H159.434C159.582 19.1152 159.765 18.8821 159.985 18.6714C160.209 18.4562 160.462 18.2859 160.745 18.1603C161.032 18.0303 161.341 17.9653 161.673 17.9653ZM172.56 17.9653C173.412 17.9653 174.055 18.185 174.49 18.6243C174.929 19.0592 175.149 19.7585 175.149 20.7224V25.6245H173.091V21.2334C173.091 20.6955 172.999 20.2898 172.815 20.0163C172.632 19.7428 172.347 19.6061 171.961 19.6061C171.419 19.6061 171.033 19.8011 170.805 20.1911C170.576 20.5767 170.462 21.1303 170.462 21.8521V25.6245H168.411V21.2334C168.411 20.8748 168.37 20.5744 168.29 20.3324C168.209 20.0903 168.086 19.9087 167.92 19.7877C167.754 19.6666 167.541 19.6061 167.281 19.6061C166.9 19.6061 166.6 19.7025 166.38 19.8953C166.165 20.0835 166.01 20.3637 165.916 20.7358C165.826 21.1034 165.782 21.554 165.782 22.0874V25.6245H163.731V18.1066H165.297L165.573 19.0682H165.687C165.84 18.8081 166.03 18.5974 166.259 18.436C166.492 18.2747 166.748 18.1559 167.026 18.0797C167.303 18.0034 167.586 17.9653 167.873 17.9653C168.424 17.9653 168.89 18.055 169.272 18.2343C169.657 18.4136 169.953 18.6916 170.159 19.0682H170.341C170.565 18.6826 170.881 18.4024 171.289 18.2276C171.701 18.0528 172.125 17.9653 172.56 17.9653ZM180.34 17.9519C181.349 17.9519 182.122 18.1716 182.66 18.6109C183.198 19.0502 183.467 19.7182 183.467 20.6148V25.6245H182.035L181.638 24.6024H181.584C181.369 24.8714 181.149 25.091 180.925 25.2614C180.701 25.4317 180.443 25.5573 180.152 25.638C179.86 25.7187 179.506 25.759 179.089 25.759C178.645 25.759 178.246 25.6738 177.892 25.5035C177.543 25.3331 177.267 25.0731 177.065 24.7234C176.863 24.3693 176.763 23.921 176.763 23.3785C176.763 22.5806 177.043 21.9933 177.603 21.6167C178.164 21.2357 179.004 21.025 180.125 20.9846L181.429 20.9443V20.6148C181.429 20.2203 181.326 19.9311 181.12 19.7473C180.914 19.5635 180.627 19.4716 180.259 19.4716C179.896 19.4716 179.54 19.5232 179.19 19.6263C178.84 19.7294 178.491 19.8594 178.141 20.0163L177.462 18.6311C177.861 18.4204 178.307 18.2545 178.8 18.1334C179.298 18.0124 179.811 17.9519 180.34 17.9519ZM181.429 22.1412L180.636 22.1681C179.972 22.1861 179.511 22.3049 179.251 22.5245C178.995 22.7442 178.867 23.0333 178.867 23.392C178.867 23.7058 178.959 23.9299 179.143 24.0644C179.327 24.1944 179.567 24.2594 179.863 24.2594C180.302 24.2594 180.672 24.1294 180.972 23.8694C181.277 23.6094 181.429 23.2396 181.429 22.7599V22.1412ZM188.752 24.125C188.976 24.125 189.194 24.1025 189.405 24.0577C189.62 24.0129 189.833 23.9568 190.043 23.8896V25.4161C189.824 25.5147 189.55 25.5954 189.223 25.6581C188.9 25.7254 188.546 25.759 188.161 25.759C187.712 25.759 187.309 25.6873 186.95 25.5438C186.596 25.3959 186.316 25.1426 186.11 24.784C185.908 24.4208 185.807 23.9165 185.807 23.2709V19.6465H184.825V18.779L185.955 18.0931L186.547 16.5061H187.858V18.1066H189.963V19.6465H187.858V23.2709C187.858 23.5579 187.939 23.773 188.1 23.9165C188.266 24.0555 188.483 24.125 188.752 24.125ZM193.621 18.1066V25.6245H191.57V18.1066H193.621ZM192.599 15.1612C192.904 15.1612 193.166 15.233 193.385 15.3764C193.605 15.5154 193.715 15.7776 193.715 16.1632C193.715 16.5442 193.605 16.8087 193.385 16.9567C193.166 17.1001 192.904 17.1718 192.599 17.1718C192.289 17.1718 192.025 17.1001 191.805 16.9567C191.59 16.8087 191.482 16.5442 191.482 16.1632C191.482 15.7776 191.59 15.5154 191.805 15.3764C192.025 15.233 192.289 15.1612 192.599 15.1612ZM202.611 21.8521C202.611 22.4797 202.526 23.0356 202.356 23.5198C202.19 24.0039 201.946 24.4141 201.623 24.7503C201.305 25.0821 200.919 25.3331 200.466 25.5035C200.018 25.6738 199.511 25.759 198.947 25.759C198.418 25.759 197.931 25.6738 197.487 25.5035C197.048 25.3331 196.665 25.0821 196.338 24.7503C196.015 24.4141 195.764 24.0039 195.584 23.5198C195.41 23.0356 195.322 22.4797 195.322 21.8521C195.322 21.0182 195.47 20.3122 195.766 19.7339C196.062 19.1556 196.483 18.7162 197.03 18.4159C197.577 18.1155 198.229 17.9653 198.987 17.9653C199.691 17.9653 200.314 18.1155 200.856 18.4159C201.403 18.7162 201.831 19.1556 202.141 19.7339C202.455 20.3122 202.611 21.0182 202.611 21.8521ZM197.413 21.8521C197.413 22.3452 197.467 22.7599 197.575 23.0961C197.682 23.4323 197.851 23.6856 198.079 23.856C198.308 24.0263 198.606 24.1115 198.974 24.1115C199.337 24.1115 199.63 24.0263 199.854 23.856C200.083 23.6856 200.249 23.4323 200.352 23.0961C200.46 22.7599 200.513 22.3452 200.513 21.8521C200.513 21.3545 200.46 20.942 200.352 20.6148C200.249 20.283 200.083 20.0342 199.854 19.8684C199.626 19.7025 199.328 19.6196 198.96 19.6196C198.418 19.6196 198.023 19.8056 197.777 20.1777C197.534 20.5498 197.413 21.1079 197.413 21.8521ZM208.576 17.9653C209.379 17.9653 210.024 18.185 210.513 18.6243C211.001 19.0592 211.246 19.7585 211.246 20.7224V25.6245H209.195V21.2334C209.195 20.6955 209.096 20.2898 208.899 20.0163C208.706 19.7428 208.401 19.6061 207.984 19.6061C207.357 19.6061 206.929 19.819 206.7 20.2449C206.471 20.6708 206.357 21.285 206.357 22.0874V25.6245H204.306V18.1066H205.873L206.149 19.0682H206.263C206.424 18.8081 206.624 18.5974 206.861 18.436C207.103 18.2747 207.37 18.1559 207.662 18.0797C207.957 18.0034 208.262 17.9653 208.576 17.9653Z" fill="#4A4A4A"/>
<rect x="88.1465" y="40.6445" width="45.2038" height="45.2038" fill="#4A4A4A"/>
<rect x="149.674" y="49.4336" width="45.2038" height="45.2038" fill="#7D8FFF"/>
<rect x="110.749" y="102.171" width="45.2038" height="45.2038" fill="#801060"/>
<rect x="168.509" y="136.076" width="45.2038" height="45.2038" fill="#E993B7"/>
<rect x="91.9136" y="49.4336" width="33.9029" height="2.51132" rx="1.25566" fill="white"/>
<rect x="154.697" y="53.2007" width="18.8194" height="2.50925" rx="1.25463" fill="white"/>
<rect x="115.771" y="107.193" width="18.8194" height="2.50925" rx="1.25463" fill="white"/>
<rect x="173.532" y="148.631" width="18.8194" height="2.50925" rx="1.25463" fill="white"/>
<rect x="115.771" y="127.285" width="18.8194" height="2.50925" rx="1.25463" fill="white"/>
<rect x="91.9136" y="54.4565" width="33.9029" height="2.51132" rx="1.25566" fill="white"/>
<rect x="154.697" y="58.2246" width="33.9029" height="2.51132" rx="1.25566" fill="white"/>
<rect x="115.771" y="112.217" width="33.9029" height="2.51132" rx="1.25566" fill="white"/>
<rect x="173.532" y="154.909" width="27.6246" height="2.51132" rx="1.25566" fill="white"/>
<rect x="91.9136" y="59.4795" width="17.5648" height="2.50925" rx="1.25463" fill="white"/>
<rect x="154.697" y="63.2456" width="25.1132" height="2.51132" rx="1.25566" fill="white"/>
<rect x="115.771" y="117.24" width="25.1132" height="2.51132" rx="1.25566" fill="white"/>
<rect x="173.532" y="161.186" width="25.1132" height="2.51132" rx="1.25566" fill="white"/>
<rect x="115.771" y="122.261" width="30.1359" height="2.51132" rx="1.25566" fill="white"/>
<defs>
<filter id="filter0_d_426_3073" x="0" y="0.787598" width="284" height="203" filterUnits="userSpaceOnUse" color-interpolation-filters="sRGB">
<feFlood flood-opacity="0" result="BackgroundImageFix"/>
<feColorMatrix in="SourceAlpha" type="matrix" values="0 0 0 0 0 0 0 0 0 0 0 0 0 0 0 0 0 0 127 0" result="hardAlpha"/>
<feOffset dy="4"/>
<feGaussianBlur stdDeviation="2"/>
<feComposite in2="hardAlpha" operator="out"/>
<feColorMatrix type="matrix" values="0 0 0 0 0 0 0 0 0 0 0 0 0 0 0 0 0 0 0.07 0"/>
<feBlend mode="normal" in2="BackgroundImageFix" result="effect1_dropShadow_426_3073"/>
<feBlend mode="normal" in="SourceGraphic" in2="effect1_dropShadow_426_3073" result="shape"/>
</filter>
</defs>
</svg>
